<svg xmlns="http://www.w3.org/2000/svg" xmlns:xlink="http://www.w3.org/1999/xlink" width="474.62" height="400" viewBox="0 0 474.62 400"><defs><clipPath id="b"><rect width="474.62" height="400"/></clipPath></defs><g id="a" clip-path="url(#b)"><g transform="translate(-57 -21.999)"><path d="M776.686,446.063c2.653,1.365,5.132,1.364,7.742,2.426,2.59,1.055,3.265,5.426,5.48,5.948-10.267,1.08-20.378,3.369-30.77,2.231.9-3.667-.716-7.419,1.448-10.86C766.374,440.334,770.136,442.693,776.686,446.063Zm-43.354-252c.134,2.578.324,3.6,2.154,5.265,1.434,1.3,2.24-.64,2.376,1.905.079,1.468-1.447,2.2-2.037,3.391-2.943,5.911-.912,13.546.534,19.435,2.933,11.94,10.1,24.922,5.049,37.058-.509,1.224-.918,3.877-1.9,4.814a1.807,1.807,0,0,0-2.84.9l-1.074,1.207c-2.268,2.1-4.683,2.878-7.694,1.762-6.07-2.247-7.074-9.3-7.106-14.848-.036-6.118,1.267-12.525,2.66-18.485.671-2.87,1.7-6.2-.219-8.908-1.816-2.557-4.06-1.116-5.848-2.257-1.9-1.215.838-10.144-1.037-12.512-3.275-4.134-4.416,5.98-4.468,8.045a14.69,14.69,0,0,0,1.132,6.954c.838,1.611,3.565,3.025,4.032,4.652.438,1.52-1.482,5.469-1.778,7.1a59.893,59.893,0,0,0-.746,7.63c-.443,8.607.908,17.665,6.833,24.345,2.6,2.929,7,6.255,11.119,5.722,3.636-.471,7.289-2.434,10.68-3.768a169.69,169.69,0,0,0,9.355,25.517c3.172,7.191,6.154,14.557,9.486,21.66,7.023,14.972,18.422,27.726,27.329,41.57A94.812,94.812,0,0,1,803.9,406.7c.273,3.731-.816,8.836.053,12.325.815,3.271,1.53,4.691,1,8.258-.593,3.964-1.742,7.619-1.248,11.652.438,3.578,2.143,8.909.279,12.224-2.239-2.385-4.473-3.508-5.831-6.69-1.379-3.229-.836-5.882-3.961-7.3-2.67-1.212-4.585-.948-6.941-2.933a22.041,22.041,0,0,1-6.222-8.808,26.052,26.052,0,0,1-.72-18.323c1.631-4.849,6.4-13.927,13.077-10.678-.992-2.038-1.653-4.254-3.546-5.578-1.649-1.153-4.114-1.529-5.955-2.841a44.628,44.628,0,0,0-6.686-4.1,19.664,19.664,0,0,0-2.658-.91,12.426,12.426,0,0,0-3.338-.117c-3.946-.6-8.346-2.5-10.756-5.359a42.262,42.262,0,0,1-4.8-6.632c-1.8-3.2-2.49-3.006-5.938-3.766-5.012-1.1-8.192-1.857-12.2-5.575-4.446-4.124-7.7-9.263-10.954-14.323-1.906-2.965-3.582-3.146-6.688-4.33-1.806-.688-4.308-3.769-5.952-4-.474-.066-2.748.969-3.517,1.092a14.206,14.206,0,0,1-3.945.038c-3.159-.332-5.952-1.168-8.076-3.641-6.542-7.613-8.537-25.559.42-32.036,1.707-1.234,4.084-1.8,5.091-3.851,1.155-2.352.629-6.782.536-9.262a79.386,79.386,0,0,0-.661-8.7,11,11,0,0,0-.863-3.105c-1.038-2.546-1.342-2.175-3.48-2.787-3.049-.872-4.428-.529-6.3-3.424a16.367,16.367,0,0,1-2.324-7.947c-.126-2.547,1.022-4.9.063-7.207-1.4-3.376-4.008-5.931-5.15-9.625-.963-3.111-3.447-10.056-1-12.927,1.1-1.286,3.047-1.475,4.135-3.2,1.9-3,2.662-4.637,5.476-7,2.076-1.743,4.07-4.341,6.572-5.407,2.461-1.048,4.784.639,6.782.176,2.178-.505,1.605-5.556,2.21-7.83a22.3,22.3,0,0,1,4.679-8.657c.707-.8,1.588-.953,2.138-2.016.746-1.439.45-3.49,1.031-5.063.694-1.88,2.378-5.118,4.261-6.148C727.5,187.359,729.148,195.119,733.332,194.065ZM720.46,416.757c.776,2.091.347,5.452,1.24,7.252.712,1.434,3.568,2.344,4.969,4.054a17.313,17.313,0,0,1,3.053,14.065c-3.67-.906-6.124-1.486-9.856-1.008A199.192,199.192,0,0,1,720.46,416.757ZM675.1,422.933a12.448,12.448,0,0,1,3.375,9.789,25.95,25.95,0,0,1-.924,4.456c-.429,1.4-2.561,4.013-1.733,4.761-2.329-.139-5.067.131-6.745-1.375-1.507-1.352-2.561-4.837-3.172-6.684q1.764-3.521,3.529-7.042c.766,1.215,3.015,4.388,4.872,3.373C675.7,429.447,674.569,424.478,675.1,422.933Zm87.645-21.706c2.858,2.656,3.835,7.443,3.689,11.16.047,5.122-1.726,15.375-8.385,15.718-5.351.276-11.059-7.388-11.661-12.125-.66-5.193,1.058-17.612,7.866-18.68C756.759,396.907,760.937,399.549,762.743,401.228ZM714.91,407.85a86.5,86.5,0,0,1-.1,9.934c-.222,2.8.519,6.1-.108,8.78-3.959-4.429-9.174-9.252-9.015-15.763C705.839,404.648,710.937,405.172,714.91,407.85Zm-39.9-74,3.314,3.632c.095,5.1-.006,10.15,1.548,15.07a76.319,76.319,0,0,0,7.087,14.85c5.273,9.1,6.53,17.682,7.165,28.089-9.916-4.443-15.324-19.623-18.6-29.119-1.732-5.027-3.529-10.059-5.163-15.117-1.611-4.989-4.459-11.507-2.585-16.762C671.382,337.146,672.941,338.511,675.009,333.854Zm61.792,35.82c4.842,3.851,5.208,9.743,6.946,15.128a33.522,33.522,0,0,0-3.008,2.418c-.559.564-1.877,2.872-2.306,3.109-1.715.948-3.214-.269-4.89-1.8-3.3-3.013-5.359-9.408-5.2-13.83C728.52,369.536,732.171,365.991,736.8,369.674Zm67.747-22.628c6.294,3.606,4.652,13.581,3.867,19.207-.492,3.527.6,7.115.523,10.47-.085,3.787-2.05,3-3.306,5.352-1.091-2.851-3.093-6.282-3.548-9.27l-.723-1.891a1.4,1.4,0,0,0,.976-1.282,36.545,36.545,0,0,0,.334-4.4A147.8,147.8,0,0,1,804.548,347.045Zm-95.889,6.737c-.7,2.656-1.207,7.654-5.12,6.113-3.088-1.216-3.834-6.124-3.84-8.86-.005-2.246.364-6.372,3.505-6.506C707.06,344.364,708.437,351.188,708.659,353.782Zm-29.79-73.944c-2.6,4.17-4.41,10.329-3.18,15.265,1.291,5.184,5.307,6.439,8.879,2.624,2.948,4.641-3.1,12.906-8.5,8.493-1.168-.953-1.952-2.778-3.4-3.373-1.184-.487-2.233.175-3.442-.1-3.718-.845-5.123-4.5-6.583-7.562.4-2.5.826-4.976,1.366-7.45.288-1.315.587-2.629.879-3.943.5-2.234.341-1.955,1.961-3.062C671.126,277.813,674.064,277.668,678.87,279.838Zm2.205,2.25,3.124,6.948c-1.7-.41-3.557,4.7-4.669,5.694C679.01,290.479,680.256,286.222,681.075,282.088Zm-1.731-23.732c2.825,1.19,3.387,6.348,3.487,8.843-.777,2.627-1.5,5.987-4.785,4.137-2.191-1.235-3.13-5.3-3.2-7.523C674.747,261.028,675.793,256.86,679.344,258.356Z" transform="translate(-287.996 -66.159)" fill="#deecfc" fill-rule="evenodd"/><g transform="translate(57 46)"><path d="M127.829,95.872s-12.986-5.411-17.855,2.435S72.91,141.863,69.123,144.3s-5.141,3.787-4.329,5.14,11.634,12.985,15.421,17.314S98.07,180.279,99.423,180.82s2.435-5.41,3.787-8.387,5.411-9.739,5.411-9.739,9.2,19.749,10.551,22.725.541,8.386,0,10.821S113.22,216.8,113.22,216.8a37.483,37.483,0,0,1,11.092,6.493c4.869,4.328,8.657,10.01,11.362,12.986s12.716,4.87,16.5,5.411,36.794,10.821,53.837,7.575,35.17-14.88,36.252-18.4,1.894-15.961,0-19.208-10.01-4.6-12.715-10.822-7.034-36.793-7.305-40.31,7.576-16.773,11.092-21.372,7.034-7.3,11.633-6.223,20.29-1.353,23,0,4.057,4.059,3.517,6.223,9.469,1.623,9.469,1.623,7.575-3.517,7.575-9.739,3.518-30.3,2.165-32.735-9.469-1.894-13.527-2.435a288.634,288.634,0,0,1-28.406-7.034c-5.411-1.894-26.242-8.657-26.513-10.28s-13.256-.271-21.1,0a56.8,56.8,0,0,0-13.8,2.164v2.423s.633,2.746,1.081,5.773,2.793,24-14.689,28.786-28.511.832-34.13-6.243S127.829,95.872,127.829,95.872Z" transform="translate(0.29 -1.999)" fill="#2680eb"/><path d="M311.721,83.439c-1.174.528,1.067,4.473,1.415,5.2.91,1.889,2.02,5.793,4.175,4.718l-5.59-9.914M36.017,312.314c-1.571-.7-3.671,5.295-3.951,6.512-.781,3.391-.127,5.669,2.587,7.862-1.124-4.846.222-9.674,1.364-14.374m362.55-256.57c-1.953-2.535-4.775-7.243-8.721-4.751-1.559.985-2.758,4.141-3.719,5.683a58.533,58.533,0,0,0-4.119,7.357c1.951-.8,3.1-2.546,4.846-3.5a28.8,28.8,0,0,1,3.427-1.188c2.539-1.048,6.016-2.077,8.286-3.6M80.109,305.559c1.057,4.136,2.034,8.261,2.852,12.45.553,2.835,2.411,6.84,1.442,9.615l7.536-1.013a46.969,46.969,0,0,1-3.4-13.347c-.339-2.8.1-3.6-2.017-5.163-1.636-1.208-4.516-1.789-6.415-2.541M66.215,147.237c4.83,4.834,9.054,10.345,14.186,14.85,2.667,2.341,5.4,4.616,8.138,6.873,2.321,1.914,6.012,6.134,9.032,6.72.373-1.542,1.256-4.068,1.02-5.65q1.322-1.368-.821-2-1.311-1.008-2.594-2.05c-3.357-2.8-6.535-5.846-9.716-8.844a98.273,98.273,0,0,1-8.833-9.463c-1.446-1.773-2.292-3.55-4.664-4.071-2.818-.619-3.756,1.578-5.748,3.633m96.527,179.5c-.136,2.627,6.324,4.237,8.287,4.394,5.306.426,8.751-1.9,10.577-6.49,3.8-9.55,9.887-17.965,12.433-28.007.755-2.98,1.409-4.336-1.282-5.854-1.1-.622-3.98-2.011-5.18-1.219-1.143.754-2.079,4.149-2.814,5.383-1.167,1.96-2.494,3.824-3.76,5.721-5.926,8.872-11.9,17.511-18.261,26.072M86.072,195.215l24.8,14.183c1.034-3.571,1.51-7.294,2.48-10.893.69-2.558,2.466-6.171,2.354-8.417-.168-3.353-2.764-7.8-3.9-11L107.58,167.14c-1.91,1.827-4.11,3.1-4.134,5.483-.013,1.361.894,2.21.368,3.751-.369,1.081-1.939,2.517-2.7,3.321-2.214,2.35-2.145,2.467-4.472.27L86.072,195.215m27.288,66.5a82.446,82.446,0,0,1,1.579-10.045c.473-2.06,2.468-6.29,1.812-8.23-.482-1.426-3.35-2.666-4.467-3.442-3.231-2.245-6.386-4.606-9.585-6.9-2.8-2.009-5.652-3.969-8.4-6.05-2.549-1.927-4.473-4.323-7.558-5.149-2.7-.723-6.124-.251-8.919-.344-3.752-.125-7.561-.166-11.309.017-12.578.616-26.668-.264-38.769,3.244-5.719,1.658-9.406,2.634-12.6,8.051a140.25,140.25,0,0,0-9.546,19.542c-.393.988-1.28,2.414-1.247,3.494.066,2.062.8,1.587,2.781,2.763,2.137,1.27,4.231,2.778,6.272,4.209A113.117,113.117,0,0,0,24.874,269.8c4.369,2.3,8.77,4.366,13.214,6.683,2.816,1.469,5.73,2.67,8.493,4.284,3,1.753,6.356,2.252,9.589,3.62,10.009,4.238,19.7,8.155,29.519,12.99,9.587,4.719,19.285,8.707,29.094,12.87,12.678,5.38,25.231,10.355,38.452,14.076.968.273,3,1.233,3.959,1.189,2.044-.094,2.507-1.588,3.735-3.271,2.413-3.308,4.738-6.68,7.046-10.061,5.007-7.335,9.9-14.752,15.293-21.816-15.275-4.262-29.438-12.126-42.866-20.2-.572,1.607-1.027,5.166-2.86,5.7-2.266.665-3.912-2.474-4.928-3.918-.961,2.393-2.606,10.467-5.682,10.29-4.251-.244-3.5-6.935-4.03-9.59-2.343,3.115-5.059,6.7-8.243,1.906-2.207-3.32-1.962-9.147-1.3-12.849m176.982-38.153c-1.969-.616-3.927-1.163-5.853-1.853a1.8,1.8,0,0,0-2.523-.977,6.525,6.525,0,0,1-2.81-.358,106.372,106.372,0,0,1-12.327-2.741c-3.424-1.033-6.653-1.946-10.132-2.722-2.066-.46-11.268-3.064-12.628-1.532-.418.471.3,6.187.2,7.205-.18,1.811-.269,4.793-1.417,6.3-.44.578-2.116,1.22-2.722,1.67-1.968,1.463-3.787,3.282-5.744,4.8-4.274,3.313-8.437,6.751-12.8,9.955-3.082,2.264-6.61,3.385-10.034,5.031,2.436.436,7.2-1.908,9.661-2.635,3.185-.942,6.31-1.989,9.567-2.851,6.678-1.768,13.52-3.765,20.307-5.647,4.168-1.156,8.571-2.361,12.612-3.891,1.793-.679,3.2-2.258,4.384-.651.945,1.283-.2,2.971-.925,3.922-4.237,5.545-15.744,6.894-21.9,9.195-6.951,2.6-13.809,5.329-20.966,7.153-8.358,2.13-17.431,3.759-25.22,7.5-6.462,3.1-13.782,4.3-20.652,6.126-6.452,1.71-14.1,2.053-20.2,4.956,2.634,2.08,6.531,3.165,9.6,4.564,3.758,1.712,7.556,3.274,11.273,5.088,1.582.772,3.238,1.92,4.839,2.562,2.032.815,1.772.385,3.871.22,3.267-.257,7.675-.844,10.329,1.535,3.2,2.869,1.173,6.012,1.643,9.523.323,2.407.487,2.021,3.159,2.388,2.46.338,4.917.732,7.343,1.258,3,.65,6.061,1.739,8.979,2.678,4.524,1.456,5.016,3.17,9.732,1.29,13.431-5.353,27.322-9.753,40.839-14.818,6.226-2.333,12.478-6.833,18.339-10.214,7.519-4.338,14.317-9.03,19.408-16.253,2.32-3.292,4.74-8.852,4.252-12.938-.436-3.654-3.14-7.717-4.883-10.859-2.226-4.012-4.185-5.569-7.591-8.235-2.367-1.853-6.025-5.765-9.01-5.741M140.764,254.615c.208,2.017-.971,10.334.2,11.613,2,2.188,6.9-.366,8.791-1.017,6.157-2.117,13.313-1.654,19.583-3.33,6.082-1.626,12.032-3.733,18.148-5.389,3.281-.889,6.4-2.282,9.622-3.341,3.593-1.178,7.6-1.824,10.935-3.6-.412-1.025-14.829,1.441-16.467,1.574-5.691.462-11.048-.416-16.657-1.447-12.371-2.275-24.028-7.671-36.24-11.172.572,5.632,16.421,6.753,14.533,13.289-.527,1.822-7.617,4.8-9.962,3.657-4.764-2.323,1.064-5.592,3.438-6.407a89.8,89.8,0,0,1-10.373-6.874c-3.532-2.734-5.052-6.569-6.945-10.527-3.957-8.275-13.322-13.088-20.6-18.24-7.866-5.57-16.241-10.305-24.1-15.863-1.4-.992-2.058-.537-2.551-2.348-.527-1.94,1.41-4.4,2.351-5.884a63.028,63.028,0,0,1,8.616-10.828c-4.211-2.866-8.76-5.232-12.709-8.476-4-3.288-7.315-7.3-10.846-11.067-5.641,12.275-13.547,23.659-19.756,35.7-2.452,4.755-3.749,11.946-.019,16.553,3.925,4.849,11.244,2.962,16.784,3.218A71.117,71.117,0,0,1,83.487,217c2.609.751,4.984.529,7.492,1.734,2.941,1.413,5.834,3.228,8.632,4.9,5.5,3.294,10.644,7.417,15.84,11.175,2.131,1.541,13.689,10.679,4.547,9.268,0,8.551-1.5,17.308-2.284,25.818a31.655,31.655,0,0,0,5.026-8.33c.78-1.85.79-6.573,3.39-5.453,3.911,1.683.865,14.054.865,17.4a45.465,45.465,0,0,0,2.345-5.873c.528-1.5,1.189-5.765,2.292-6.774,3.691-3.374,4.209,5.828,4.209,7.748a35.2,35.2,0,0,0,1.536-10.6c.047-1.414-.3-3.614.055-4.982.594-2.28.524-2.131,2.911-3.1q.211,2.334.422,4.669M254.8,326.777c.293,2.893,1.412,4.987-.49,7.59,3.677-.263,7.3-.586,10.98-.493,2.957.075,7.379.751,10.138-.515,1.124-.516,1.506.372,2.084-.613.549-.937-.74-4.046-.9-4.817-.743-3.7-1.106-7.5-1.782-11.221-.464-2.56-1.826-7.593-.113-10.012,2.52-3.559,3.629,1.455,4.286,3.681,2.162,7.333,2.037,14.3,2.037,21.833,3.256,0,7.535-1.422,10.675-2.28,4.332-1.184,8.958-2.4,13.156-3.946a20.641,20.641,0,0,0,9.948-7.007c1.872-2.561,6.023-8.878,4.992-11.709-1.264-3.471-7.293-5.858-10.512-6.24-4.177-.5-8.458.344-12.732.7-4.576.377-9.015,1.4-13.542,1.886-4.4.476-10.3,1.942-14.568.843-.111,1.757,1.358,4.119,1.87,5.907.671,2.345,1.27,4.712,1.814,7.089.583,2.545,4.193,11.694.91,13.523-3.854,2.147-5.693-7.047-6.173-9.288-1.145-5.344-2.128-10.682-.93-16.054-4.919-.887-10.852.43-15.925.78,1.89,6.657,3.109,13.629,4.77,20.367M42.932,329.671c1.711.761,4.061.352,5.92.5a80.013,80.013,0,0,0,8.766.66c4.463-.142,9.142-.706,13.609-1.217A32.137,32.137,0,0,1,66.815,315.4c-.114-1.892-1.118-13.625,2.373-13.123,1.684.242,1.327,10.261,1.654,12.107a81.962,81.962,0,0,0,1.834,8.04c.541,1.9,2.384,4.748,1.912,6.8l6.757-1.095a35.679,35.679,0,0,1-3.686-10.515c-.317-1.88-.115-4.219-.729-6-.387-1.125-1.271-2.184-1.389-3.127-.136-1.089,1.056-3.764.615-4.731-.433-.951-3.451-1.83-4.508-2.354-2.914-1.444-4.622-1.809-7.888-.979-6.3,1.6-16.225,2.737-20.923,7.055-4.654,4.278-6.348,18.708.1,22.194M318.053,121.136c1.744-.2,3.47-.319,5.223-.409a113.556,113.556,0,0,1-7.011-11.248c-1.041-1.9-2.023-3.829-2.964-5.78-1.08-2.238-1.051-3.7-3.4-4.145-3.249-.616-7.595.615-10.938.475-2.582-.109-8.381-2.539-10.461-1.658,1.9,3.888.374,9.937.448,14.122a62.979,62.979,0,0,1-1.175,12.289c4.431,0,9.978-1.53,14.451-2.213,5.208-.8,10.518-.837,15.824-1.433M247.708,334.785a38.963,38.963,0,0,1,5.053-.287c-3.882-6.293-6.813-13.331-6.846-20.83,0-.981,1.175-6.618.785-7.086-.761-.913-3.917-.192-4.781-.106-3.535.353-7.465.327-10.794,1.6-2.3.879-2.322.348-3.235,3.051a16.856,16.856,0,0,0-.939,5.106,26.442,26.442,0,0,0,2.462,10.427c1.334,2.912,3.44,6.035,6.338,7.6,3.339,1.8,8.043.73,11.958.525m35.3-233.8c-.671-2.507-.381-1.941-2.613-2.252-.47-.065-5.583.041-5.877.34-.338.346-.209,5.451-.253,6.035-.151,2-.375,4-.594,6-.885,8.1-2.565,15.948-3.824,23.985,3.112-1.931,7.609.7,10.267-1.388,2.1-1.652,1.786-6.937,1.942-9.268.524-7.8.7-15.629.951-23.446m112.36-9.463-.84,1.349c1.087.7,7.447-6.389,8.862-7.657,1.884-1.688,4.865-3.942,5.715-6.41.987-2.868.016-7.4-.223-10.362-.171-2.122.192-5.058-1.538-6.541-1.592-1.364-5.516-1.328-7.4-1.036-5.66.876-9.064,5.53-11.921,9.965,2.9-.357,13.128-5.026,14.316-2.5,1.726,3.669-9.015,6.949-10.077,10.168,2.2.776,7.048-2.235,5.684,2.776a3.651,3.651,0,0,1-1.218,1.742q-1.506.533-.713,2.01c-.449,1.963-.358,4.446-.645,6.5m65.144,177.643a3.928,3.928,0,0,0,1.112,3.167c2.156-6.829,2.83-13.661,3.723-20.763a207.307,207.307,0,0,0,1.987-21.48,138.824,138.824,0,0,0-1.879-24.464c-1.006-6.143-1.785-13.7-5.448-18.932,2.08,13.55,1.433,26.4.031,39.994-.745,7.22-1.8,14.384-2.278,21.636-.127,1.915-.169,3.853-.335,5.765-.1,1.126-1.213,3.26-1.223,3.813-.055,3.07,3.231,8.444,4.31,11.263m-110.67-10.553c1.73,3.98,3.7,7.9,4.734,12.134,1.095,4.47.623,8.632.8,13.161.291,7.514-.312,14.984-.206,22.509.09,6.413-.156,12.666-.092,19.012.041,4.014-.179,8.013-.166,12.025,0-.012.16,3.6-.116,3.784-1.239.823-2.593-.346-2.972-1.471l-3.673,4.155c1.925-.484,4.293-1.494,6.271-1.583a3.254,3.254,0,0,1,2.264-.023,4.1,4.1,0,0,1,1.659,1.887c5.185,1.1,8.3-3.511,9.229-7.637,2.02-8.953,1.292-17.792,1.146-26.831-.318-19.636,2.8-39.155,2.507-58.793a68.551,68.551,0,0,1,.369-11.349c1.06-7.046,2.625-.6,2.876,2.729.755,9.993,2.07,20.3,1.347,30.358-.651,9.06-.591,18.2-1.042,27.289-.48,9.658-1.253,19.111-.808,28.777,2.593-.332,10.936-.826,11.8,2.817.758,3.178-2.291,2-3.875,1.868-2.568-.218-5.076.385-7.883-.119.207,4.274.8,10.006-3.023,12.892a32.4,32.4,0,0,1-7.185,3.538c-2.151.821-5.795,2.639-8.036,2.539-1.586-.07-2.2-.924-3.936-.788-2.581.2-4.816,1.93-7.553.5-5.19-2.705-2.639-10.573.638-13.726a8.625,8.625,0,0,1,2.928-2.1c.539-.188,2.794.039,3.054-.243.96-1.042-.239-7.135-.367-8.291-.673-6.066-1.406-12.261-1.682-18.355-.259-5.729-.548-11.469-.745-17.2-.043-1.248.511-3.814-.012-4.9-.869-1.813-4.684-2.967-6.338-3.811,1.474,14.443,3.641,29.967-1.7,43.725-1.06,2.732-2.249,6.631-4.936,8.15-2.533,1.433-8.5,1.231-11.532,1.4-3.263.183-6.458-.579-8.256-3.643a4.227,4.227,0,0,1,2.338-6.355c1.739-.629,2.078-.225,3.6.524a5.511,5.511,0,0,1,.7,1.731h1.171c1.587.708,7.931,1.5,9.676.37,2.022-1.308,2.461-4.845,3.323-6.947,1.6-3.9,2.025-7.074,2.606-11.248.91-6.533-.011-14.108.006-20.915q.007-2.875.016-5.751c0-2.9.256-2.877-1.4-4.962-2.489-3.141-5.328-6.351-7.993-9.362,1.444,8.8.853,18.06.279,26.825-.322,4.924-.988,9.939-1.293,14.8-.092,1.46.957,5.486-.738,6.131-1.72.655-3.862-2.4-4.557-3.5-3.793,7.568-8.32,14.868-16.145,18.784a45.271,45.271,0,0,1-12.6,3.711c-4.068.732-7.827,2.067-11.838,2.7a124.553,124.553,0,0,1-24.3,1.2c-7.881-.268-15.426,1.187-23.282-.645a15.71,15.71,0,0,1-8.26-4.375c-1.143-1.281-1.649-3.3-2.8-4.477q-.39-2.292-2.7-1.414a18.445,18.445,0,0,1-2.887-.1c-7.879-.414-16.635.048-24.27-2.2-2.9-.854-6.133-2.261-4.687-5.888,1.264-3.17,4.75-2.207,7.61-1.93,8.306.8,16.481,2.272,24.906,3.011-.271-4.4-.038-8.893,1.688-13.011a91.292,91.292,0,0,1-17.465-3.706q-2.576-.865-5.131-1.791c-2.808-1.016-2.224-1.278-3.851.494-2.044,2.226-3.295,6.872-4.775,9.562-1.666,3.027-3.265,6.02-4.669,9.18-1.329,2.991-2.32,7-4.345,9.574-4.454,5.669-14.74,6.161-20.794,3.934-2.965-1.091-4.036-1.263-5.833-3.92-1.969-2.911-2.458-3.082-6.085-3.477a78.429,78.429,0,0,1-18.868-4.628c-6.483-2.4-13.139-4.268-19.6-6.857-6.051-2.424-11.9-4.863-18.16-6.755-.743,4.722,2.336,10.047,2.336,14.916,3.643-.364,7.04-.684,10.651-1.264,1.288-.207,9.4-2.027,10.192-.953,3.3,4.478-11.713,6.584-14.06,7.176-7.519,1.9-15.187,3.661-22.754,5.127-7.723,1.5-15.253,2.988-23.093,3.257-13.267.455-31.566-.312-30.933-17.742.249-6.83,3.062-14.242,8.447-18.7,3.35-2.772,7.528-4.3,11.623-5.549,1.513-.464,9.485-1.547,9.727-2.143-2.246-1.61-6.086-2.03-8.751-3.27-2.541-1.183-5.222-1.624-7.823-2.816a143.547,143.547,0,0,1-15.021-8.241,115.125,115.125,0,0,1-11.2-7.716,58.437,58.437,0,0,1-7.709-6.87c-1.17-1.324-3.24-2.5-4.177-3.636-3.289-4,.18-11.969,1.58-16.629,2.046-6.812,4.777-14.061,8.8-19.962,3.7-5.427,7.833-9.083,14.476-10.354A136.185,136.185,0,0,1,44.8,214.065c-1.054-4.008-2.537-6.837-2.161-11.234.355-4.147,2.449-8.267,4.092-12.044,3.055-7.02,5.937-13.891,10.115-20.355,2.3-3.552,4.876-6.924,7.382-10.328.4-.549,2.917-3.059,2.821-3.766s-2.619-2.842-3-3.333c-2.594-3.294-4.388-6.84-1.341-10.365,1.588-1.838,6.258-5.549,8.506-3.214,2.431-4.911,6.682-8.26,9.992-12.438,4.126-5.21,8.066-10.5,11.929-15.956,3.846-5.433,6.988-11.27,12.086-15.649,5.681-4.879,11.03-4.457,18.007-2.372.4-2.692.952-2.333,3.556-3.232,1.971-.68,3.886-1.488,5.823-2.256,2.059-.817,4.144-1.281,6.249-1.923,2.8-.855,3.226-.576,3.682-4.218.551-4.4-1.332-9.053-2.546-13.2-.6-2.045-1.016-4.591-2.365-5.967-1.22-1.244-3.383-1.811-4.718-3.187-11.5-11.853-11.68-37.161.569-48.177,2.38-2.141,4.344-5.022,7.307-6.468A50.86,50.86,0,0,1,151.91.769c7.386-1.541,15.67-1.052,21.508,4.14,2.88,2.561,4.635,6.631,5.617,10.266.938,3.473.737,9.343-2.818,3.976-2.242-3.385-4.189-6.837-7.983-8.512a23.906,23.906,0,0,0-11.225-1.986c-8.706.748-15.761,3.3-21.788,9.748-6.663,7.125-7,18.5-5.566,27.559,1.266-2.68,2.123-6.922,5.671-7.434,2.957-.427,7.62,3.349,6.032,6.6-7.2-1.836-9.308,9.055-3.081,9.711,1.885.2,4.273-3.158,6.009-2.376,3.247,1.461-1.1,6.5-1.962,8.153l-1.367.842q.674,1.565,1.36,3.124c.555,1.326,1.083,2.655,1.571,4.007A76.189,76.189,0,0,1,147.021,78.7c.727,3.486,1.1,7.556-.614,10.831-1.889,3.6-3.667,3.157-5.118-.267-3.8,2.394-7.617,4.947-12.082,5.891,4.682,7.855,10.743,14.608,19.856,17.078,7.724,2.094,17.447,2.018,24.816-1.447,7.648-3.595,11.856-12,10.945-20.356-.3-2.707-1.871-12.111,1.878-5.309,2.056,3.731,2.207,9.782,1.738,13.873-2.242,19.569-22.078,26.889-39.182,22.179-8.774-2.417-15.1-8.886-19.805-16.5-1.1-1.776-2.1-3.608-3.084-5.451a15.635,15.635,0,0,0-1.26-2.41c-2.05-2.531-.036-1.121-2.213-1.437-3.369-.49-8.67,2.09-11.172,4.134-6.787,5.546-10.547,14.417-15.756,21.406-5.546,7.44-12.59,14.063-19.655,20l23.976,24.558c1.651-1.827,4.79-6,5.229-8.448.257-1.432-.9-6.146,2.656-4.048,2.4,1.417,3.309,7.481,4.057,9.961,1.156,3.831,3.1,7.439,4.361,11.231,2.334,7.035,5.209,14.008,7.6,21.094.972,2.881,3.744,6.457,1.081,8.9-4.048,3.706-5.252-3.591-6.324-6.378-1.493,2.075-1.3,5.441-2.069,7.861-.47,1.479-1.9,3.78-1.854,5.237.081,2.491,2.342,3.233,4.38,4.625a119.437,119.437,0,0,1,11.154,8.134,20.119,20.119,0,0,1,3.839,4.15c.923,1.413,1.2,4.6,2.221,5.583,1.335,1.285,6.268.389,8.873.669,4.35.468,8.758,2.015,12.981,3.127,7.473,1.966,15.159,4.8,22.985,5.848a71.076,71.076,0,0,0,22.558-.855c4.184-.751,8.678-1.648,12.5-3.66,4.4-2.317,8.3-6.024,12.406-8.824,1.838-1.253,3.719-2.438,5.6-3.626,2.512-1.587,1.856-1.244,2.019-3.766.189-2.919,1.408-8.494-.541-11.092-.815-1.084-3.313-1.878-4.489-2.667a48.92,48.92,0,0,0-5.076-3.405c-2-1.008-2.06-.21-2.988-2.683-.844-2.246-1.4-4.6-2.175-6.869-3.543-10.382-4.458-20.925-5.927-31.765-.682-5.035-2.356-11.886-.461-16.791,2.636-6.822,4.841,2.719,5.4,5.164,2.516-4.31,3.962-9.1,6.579-13.358a24.607,24.607,0,0,0,3.133-6.467,7.9,7.9,0,0,1,1.224-2.929c1.557-1.934,1.788-.832,3.407-.879,5.094-.149,10.1-.018,15.2.218,2.818.131,5.636.2,8.474.189,1.383-.005,2.782-.073,4.163.007a13.058,13.058,0,0,1,2.223.167q2.282,1.065,1.742-1.836c1.325-2.771,1.236-7.192,1.705-10.216q.708-4.564,1.3-9.146c.21-1.633,1.98-7.793,1.041-9.135s-5.782-1.032-7.217-1.27c-9.542-1.586-18.419-5.518-27.344-8.74-4.394-1.586-8.565-3.727-12.78-5.672-2.194-1.013-4.267-3.1-6.58-3.748-2.918-.82-6.792.491-9.7.984a144.434,144.434,0,0,1-16.511,2.07c-1.987.108-5.766.665-7.558-.7-3.6-2.742.5-4.346,2.852-4.692,10.41-1.531,20.788-2.411,31.277-3.05a12.445,12.445,0,0,1,2.893-.207c1.366.431.815.931,1.634,1.376a23.365,23.365,0,0,0,5.171,1.942c5.493,1.459,11.025,3.907,16.536,5.83,9.917,3.461,21.766,8.979,31.685,8.008a33.571,33.571,0,0,1,7.02-.3c3,.291,4.746,1.828,7.049,2.275,3.085.6,7.5.149,10.744.264,3.1.11,6.195.253,9.292.253a81.434,81.434,0,0,1-5.906-16.48c-.834-3.2-2.089-6.114-1.545-9.488a16.645,16.645,0,0,1,1.587-4.527c1.047-2.172,1.345-1.717,1.717-4.122.512-3.31-.222-6.8.18-10.119.412-3.407,2.987-6.444,3.274-9.7.153-1.733-.817-3.147-.526-5.017a13.762,13.762,0,0,1,2.139-4.832,15.307,15.307,0,0,1,8.092-6.476c2.813-1.074,6.4-2.059,9.246-.32,2.9,1.774,2.691,5.345,4.08,7.951,2.988,5.6,9.881,10.609,15.376,13.471,5.048,2.628,10.486,4.289,15.9,6,3.294,1.043,6.681,1.787,9.918,2.979,2.33.858,6.13,2.94,8.5,1.676,2.068-1.1,4.48-4.466,6.527-6.028,2.4-1.827,5.589-3.61,8.6-2.019s2.768,7.456,5.113,8.558c.817.384,3.244-.741,4.358-.564a6.548,6.548,0,0,1,4.117,2.771c4.029,5.124,5.277,13.251,5.453,19.567.088,3.155.012,7.079-1.915,9.757-2.247,3.124-6.5,3.2-9.385,5.4-2.307,1.759-3.942,4.633-6.284,6.507-1.443,1.155-2,.268-2.6,2.068-.389,1.171.4,3.454.629,4.587,1.434,6.987,4.121,13.432,6.67,20.088a49.1,49.1,0,0,1,2.768,9.6c.359,2.181-.055,4.088.119,6.186.123,1.494.759,2.784.619,4.316-.3,3.244-2.058,6.109-3.178,8.963-1.277,3.253.477,8.886,1.764,12.25,3.083,8.06,7.418,16.2,11.27,23.946,3.783,7.607,6.6,15.708,11.005,23.016,4.281,7.1,9.318,14.046,14.189,20.758,2.709,3.734,5.584,7.285,8.04,11.2.537.856,4.2,7.958,5.151,7.712-1.165-12.393.013-25.282.534-37.666a132.538,132.538,0,0,0-5.684-44.344c-1.02-3.46-1.929-7-2.646-10.535-.5-2.475-1.92-4.51,1.561-3.427,5.764,1.791,10.837,12.673,13.768,17.409,6.563,10.608,12.045,24.755,12.78,37.2a191.665,191.665,0,0,1-1.427,35.931,102.029,102.029,0,0,1-3.83,18.231,86.166,86.166,0,0,1-3.379,8.743c-.538,1.181-1.718,2.516-1.923,3.813-.323,2.059,1.186,4.837,1.563,6.87a83.461,83.461,0,0,1,1.1,20.3,37.267,37.267,0,0,1-1.907,10.265c-1.505,4.338-.806,7.652-.179,12.124.67,4.786,1.313,15.665-3.664,18.384l-1.056-.109q-1.334-1.537-2.368.183c-1.287.42-2.544,1.5-3.9,1.966-3.146,1.08-6.54,1.146-9.821,1.621-6.422.93-12.822,2.57-19.131,2.768a110.112,110.112,0,0,1-22.569-1.367c-1.51-.271-3.275-.987-4.785-1.124-2.049-.186-3.488,1.176-5.6.856-3.279-.5-5.351-3.967-5.565-6.81-.683-9.061,4.344-13.216,12.559-14.825-5.308-7.6-11.42-13.834-12.832-23.595-1.39-9.6,1.625-20.717,7.1-28.411,5.257-7.386,14.227-12.323,23.478-10.449,4.294.87,24.549,6.85,20.633,13.633-.868-3.1-6.208-2.5-8.788-2.951-4.28-.743-8.56-1.865-12.9-1.634a25.735,25.735,0,0,0-20.932,13.154c-4.768,8.817-2.592,17.616,3.148,25.144,5.249,6.883,10.659,14.115,17.718,19.085-1.364,2.169-.871,2.85-3.581,2.462-1.861-.267-3.6-1.718-5.482-2.079-3.9-.749-10.038,2.447-12.448,5.642-1.424,1.888-1.371,2.821,1.254,3.984,1.937.858,4.987.415,7.068.6,5.176.462,10.452.617,15.644.6,8.988-.033,17.348-1.475,26.243-2.409,3.943-.414,8.066.063,11.924-1.388,5.225-1.965,3.945-7.736,3.267-12.411-.671-4.631.012-8.223.74-12.808.315-1.992.9-4.291.487-6.3-.495-2.382-1.383-3.436-1.27-6.093a94.5,94.5,0,0,0-3.289-28.536c-5.442-19.819-18.732-35.46-29.815-52.3-3.13-4.758-6.421-9.266-8.913-14.418-2.361-4.881-3.987-10.044-6.331-14.939-5.167-10.789-10.068-21.9-13.088-33.507-3.422,1.347-7.109,3.328-10.777,3.8-4.156.538-8.6-2.818-11.22-5.774-5.978-6.74-7.341-15.88-6.894-24.565a60.491,60.491,0,0,1,.752-7.7c.3-1.646,2.236-5.631,1.795-7.165-.472-1.642-3.224-3.069-4.069-4.695a14.82,14.82,0,0,1-1.143-7.017c.053-2.084,1.2-12.29,4.509-8.119,1.893,2.39-.874,11.4,1.047,12.626,1.729,1.1,4.11-.245,5.9,2.278,1.936,2.726.9,6.086.22,8.989-1.4,6-2.72,12.486-2.684,18.652.032,5.615,1.035,12.712,7.17,14.983,3.1,1.147,5.452.358,7.764-1.778q.795-.915,1.621-1.8.759-1.3,2.328-.324c.774-.615,1.922-4.865,2.309-5.815,4.751-11.644-2.74-25.012-5.486-36.437-1.68-6.988-3.144-14,.256-20.741.55-1.092,2.067-2.041,1.157-3.607-.24-.412-2.529-.605-3.071-1.084-1.766-1.559-1.4-4.464-1.4-6.545-4.084,1.259-5.26-1.918-4.73-5.812-3.046.483-5.162,1.414-6.29-2.11-1-3.125.51-6.313,1.512-9.225-14.094-1.511-29.316-3.446-40.548-13.171a36.5,36.5,0,0,1-6.992-8.544c-.347-.565-1.98-4.546-2.521-4.754-1.609-.618-2.958,2.53-4.388,3.309a24.837,24.837,0,0,1-4.489,1.5c-1.329.4-6.013.477-6.844,1.166-2.077,1.725-1.913,11.7-1.929,14.013a55.4,55.4,0,0,0,5.014,23.174c3.1,6.836,7.842,16.236,14.041,20.71a7.265,7.265,0,0,0,4.962,1.624c1.418-.066,2.824-1.059,4.3-.543,3.737,1.307,2.4,3.905-.473,5.133-8.211,3.512-15.132-4.208-19.88-9.6-1.39,6.4,5.057,13.972,8.468,19.193,2.174,3.328,4.323,6.658,6.391,10.054,1.5,2.466,4.453,7.02-.789,5.115-2.529,13.274-9.471,24.882-13.015,37.782-3.639,13.241-6.811,28.361-6.811,42.15,2.771-1.929,4.168-10.719,7.9-3.991.4.728.277,1.932.808,2.568.735.88,1.62.635,2.746,1.262,1.786.994,2.938,2.975,1.341,4.692,2.056-.478,4.209-.234,4.653,2.2.249,1.365-1.75,7.687-3.241,8.2-4.546,1.574-9.587-7.5-10.818-10.389-2.84,2.85-6.112,5.043-8.73.432-1.951-3.436-.819-8.633-.544-12.374.555-7.534,1.278-14.883,2.365-22.345,2.038-13.992,7.212-26.436,13.567-39.031,1.75-3.466,3.688-7.015,5.251-10.562,2.357-5.351-1.331-4.089-4.936-3.312A161.74,161.74,0,0,1,301.31,129.5c-3.725.281-8.5.449-12.074,1.526-2.517.757-2.085.234-3.1,2.93a13.45,13.45,0,0,1-1.76,3.522c-4.066,5.269-14.6,4.388-20.415,3.995.352-2.222.7-4.445,1.066-6.666a63.221,63.221,0,0,1-14.408,1.731c-2.483-.028-5.123-.407-7.6-.613-1.826-.152-5.288-1.446-7.006-.943-1.992.584-5.006,7.788-6.145,10.111-2.139,4.362-5.962,9.209-7.311,13.8-1.2,4.072,1.245,11.1,2.012,15.151a138.2,138.2,0,0,0,3.977,17.411c1.347,4.119,2.9,9.8,7.035,11.852,4.121,2.048,7.082,3.2,11.542,2.783,7.854-.734,16.21.471,23.963,2,7.984,1.572,15.3,2.28,22.878,5.082,17.2,6.356,28.147,25.935,21.663,43.871-3.729,10.316-9.872,17.983-18.884,24.365-4.592,3.252-10.018,5.891-15.052,8.4-2.311,1.151-4.584,2.547-6.94,3.569-1.722.747-4.68,2.467-6.551,2.656,2.076.987,3.913.063,6.073-.244,3.056-.435,6.177-.528,9.244-.907,4.774-.591,9.478-1.037,14.254-1.63a49.816,49.816,0,0,1,12.727-.1,22.852,22.852,0,0,1,6.645,1.78c1.371.741,2.627,2.45,4.1,3.3,1.621-6.658.863-14.865.939-21.706.062-5.585.311-11.046.837-16.6.589-6.217-3.215-13.287-4.619-19.376-1.314-5.7-4.816-12.922-3.527-18.87,1.625-7.5,5.879,5.972,6.464,7.9,1.831,6.026,3.957,11.908,5.986,17.863a138.679,138.679,0,0,0,8.361,20.586c2.926,5.524,6.287,12,12.3,14.7-.5-8.123-1.047-15.645-4.424-23.134-3.2-7.1-8.086-13.418-10.221-21.028a44.561,44.561,0,0,1-1.269-11.555c-.035-2.628.085-6.161,2.9-3.327,2.235,2.247,2.669,9.414,3.648,12.439.471,1.456,1.124,2.792,1.645,4.208.234.637,1.813,3.745,1.813,4.161,1.627,4.911,5.225,9.621,7.754,14.14" transform="translate(0 0)" fill="#2d3748" fill-rule="evenodd"/><path d="M334.645,103.144c.154,1.885,1.247,6.771-.153,8.262-1.856,1.979-2.736-.567-3.538-2.574-1.678-4.194-2.511-12.317.8-15.812,3.46-3.65,10.3-3.748,13.991-7.383,1.482-1.46,1.34-1.155,1.211-3.438a17.977,17.977,0,0,0-1.31-4.16c-1.048-3.011-2.2-5.985-3.293-8.978-1.915.873-4.671,3.566-6.557,1.309-1.744-2.087,1.158-5.506,3.178-6.116-1.055-2.306-6.025-1.88-6.972-5.268-.823-2.944,1.541-1.774,2.058-2.934.609-1.364-.637-3.209,0-4.467,2.225-4.366,4.69,3.661,5.8,5.094,2.062,2.665,5.654,3.247,5.97,7.278.2,2.482.008,3.636,1.031,6.073.941,2.244,2.06,4.4,2.85,6.7,1.189,3.479,3.021,9.81.7,13.178-1.959,2.841-6.716,5.007-9.809,6.222-1.549.608-3.7.978-4.95,2.163-1.636,1.545-1.126,2.495-1.01,4.846" transform="translate(-157.373 -24.272)" fill="#2d3748" fill-rule="evenodd"/><path d="M640.431,337.6l-1.059-1.668c-2.448,2.615-5.159,3.689-7.633.368-2.548-3.419-1.591-8.547-.6-12.281.51-1.922,3.088-9.5,4.74-3.727.365,1.274-.854,4.111-1.075,5.358a24.133,24.133,0,0,0-.47,7.284c2.87-2.569,4.275-9.081,7.188-2.319,1.056,2.452,1.172,6.49,3.984,2.766,1.5-1.989,1.6-5.661,2.3-8,4.793,1.146,3.92,8.234,2.32,11.687-2.548,5.5-6.014,3.728-9.695.535" transform="translate(-300.968 -151.935)" fill="#2d3748" fill-rule="evenodd"/><path d="M676.81,117.273c1.705,2.843-1.52,8.043-2.1,10.962,2.856-.331,9.923-7.219,11.912-6.084,4.141,2.364-4.606,10.608-6.287,11.816-13.432,9.654-11.011-18.272-3.521-16.695" transform="translate(-320.396 -55.979)" fill="#2d3748" fill-rule="evenodd"/><path d="M649.938,178.39c5.018-1.4,11.785,7.609,8.53,12.07-2.335,3.2-5.22,1.37-5.952-1.447-.373-1.436-.042-3.167-.53-4.769-.6-1.973-1.4-3.894-2.048-5.854" transform="translate(-310.522 -85.142)" fill="#2d3748" fill-rule="evenodd"/><path d="M343.5,103.5c3.817,3.208-3.982,11.028-7.891,4.9-1.075-1.684-1.271-3.222.323-3.844.805-.314,2.7.714,3.84.532A16.251,16.251,0,0,0,343.5,103.5" transform="translate(-159.944 -49.944)" fill="#2d3748" fill-rule="evenodd"/><path d="M323.513,68.41c-1.481-1.847-5.643-13.21-.485-10.679,2.59,1.271,4.73,10.985.485,10.679" transform="translate(-153.149 -27.682)" fill="#2d3748" fill-rule="evenodd"/><path d="M654.973,547.01q-.22-2.151-.439-4.3c1.9.971,5.725,1.93,6.388,4.1,1.245,4.083-4.537.817-5.949.2" transform="translate(-312.737 -258.717)" fill="#2d3748" fill-rule="evenodd"/><path d="M759.581,203.678c-1.134-1.532-4.662-14.312-1.6-14.02.536,4.636.646,9.451,1.6,14.02" transform="translate(-360.916 -90.592)" fill="#2d3748" fill-rule="evenodd"/><path d="M662.853,482.23c-2.506-4.478-6.072-9.146-7.684-14.013,3.78,3.061,6.734,9.315,7.684,14.013" transform="translate(-313.032 -223.654)" fill="#2d3748" fill-rule="evenodd"/><path d="M867.964,475.235q.229,2.435.458,4.869c-2.271.586-.6-4.333-.458-4.869" transform="translate(-414.229 -227.067)" fill="#2d3748" fill-rule="evenodd"/><path d="M653.5,464.378a7.843,7.843,0,0,1-1.8-4.131l1.8,4.131" transform="translate(-311.412 -219.911)" fill="#2d3748" fill-rule="evenodd"/><path d="M680.3,606.2q.06-2.166.119-4.329-.06,2.167-.119,4.329" transform="translate(-325.09 -287.265)" fill="#2d3748" fill-rule="evenodd"/><path d="M352.177,157.375l2.885.359c-.759.355-2.547.828-2.885-.359" transform="translate(-168.283 -75.203)" fill="#2d3748" fill-rule="evenodd"/><path d="M722.783,639.3c1-.151,2-.5,2.988.058l-2.988-.058" transform="translate(-345.372 -305.209)" fill="#2d3748" fill-rule="evenodd"/><path d="M667.531,576.473q.02,1.6.039,3.205-.021-1.606-.039-3.205" transform="translate(-318.991 -275.011)" fill="#2d3748" fill-rule="evenodd"/><path d="M707.31,544.308q-.095,1.712-.189,3.42.095-1.712.189-3.42" transform="translate(-337.908 -259.49)" fill="#2d3748" fill-rule="evenodd"/><path d="M681.028,550.16q-.082-1.489-.163-2.975.082,1.49.163,2.975" transform="translate(-325.362 -260.878)" fill="#2d3748" fill-rule="evenodd"/><path d="M738.489,569.857q-.081,1.326-.161,2.65.081-1.327.161-2.65" transform="translate(-352.021 -271.819)" fill="#2d3748" fill-rule="evenodd"/><path d="M388.739,613.008a2.93,2.93,0,0,1-2.916-.006l2.916.006" transform="translate(-184.361 -292.639)" fill="#2d3748" fill-rule="evenodd"/><path d="M583.987,96.807q.02,1.311.041,2.618-.022-1.312-.041-2.618" transform="translate(-279.068 -46.715)" fill="#2d3748" fill-rule="evenodd"/><path d="M394.405,142.89l-2.99.226,2.99-.226" transform="translate(-187.032 -68.282)" fill="#2d3748" fill-rule="evenodd"/><path d="M795.094,146.978q-.008-1.294-.014-2.586a2.624,2.624,0,0,1,.014,2.586" transform="translate(-379.407 -68.995)" fill="#2d3748" fill-rule="evenodd"/><path d="M339.332,149.865q-.068-1.375-.136-2.747.069,1.375.136,2.747" transform="translate(-162.09 -70.297)" fill="#2d3748" fill-rule="evenodd"/><g transform="translate(424.847 352.771)"><path d="M.81.859,2.823.873.81.859" transform="translate(-0.81 -0.859)" fill="#2d3748" fill-rule="evenodd"/></g><path d="M298.254.3,295.6.524,298.254.3" transform="translate(-141.249 -0.144)" fill="#2d3748" fill-rule="evenodd"/><path d="M469.488,653.6h0" transform="translate(-224.345 -312.229)" fill="#2d3748" fill-rule="evenodd"/><path d="M637.938,190.547l-2.6-.26,2.6.26" transform="translate(-303.592 -90.931)" fill="#2d3748" fill-rule="evenodd"/><path d="M716.4,648.687q.08-1.07.159-2.138-.08,1.072-.159,2.138" transform="translate(-342.344 -308.827)" fill="#2d3748" fill-rule="evenodd"/><path d="M532.924,172.816l-2.556-.022a2.662,2.662,0,0,1,2.556.022" transform="translate(-253.432 -82.419)" fill="#2d3748" fill-rule="evenodd"/><path d="M313.159.516c-.859-.027-1.767.42-2.559-.261l2.559.261" transform="translate(-148.417 -0.123)" fill="#2d3748" fill-rule="evenodd"/><path d="M268.4,163.511l-2.47.226,2.47-.226" transform="translate(-127.075 -78.136)" fill="#2d3748" fill-rule="evenodd"/><path d="M368.523,611.585l-2.6.272,2.6-.272" transform="translate(-174.852 -291.955)" fill="#2d3748" fill-rule="evenodd"/><path d="M410.306,141.568l-2.536.054a2.472,2.472,0,0,1,2.536-.054" transform="translate(-194.849 -67.489)" fill="#2d3748" fill-rule="evenodd"/><path d="M680.221,586.927q-.007-1.1-.014-2.2.007,1.1.014,2.2" transform="translate(-325.048 -278.995)" fill="#2d3748" fill-rule="evenodd"/><path d="M868.985,468.817q-.137,1.33-.273,2.659.136-1.329.273-2.659" transform="translate(-414.939 -224.015)" fill="#2d3748" fill-rule="evenodd"/><path d="M656.98,577.109q-.094-1.132-.188-2.261.094,1.132.188,2.261" transform="translate(-313.858 -274.227)" fill="#2d3748" fill-rule="evenodd"/><path d="M105.828,565.823q-.232,1.128-1.645.444Z" transform="translate(-50.275 -269.872)" fill="#2d3748" fill-rule="evenodd"/><path d="M718.032,564.637q-.076-.984-.15-1.965.076.984.15,1.965" transform="translate(-343.051 -268.351)" fill="#2d3748" fill-rule="evenodd"/><path d="M373.718,144.933l-2.135.29,2.135-.29" transform="translate(-177.559 -69.258)" fill="#2d3748" fill-rule="evenodd"/><path d="M666.7,555.671q0,.965,0,1.929,0-.967,0-1.929" transform="translate(-318.592 -264.973)" fill="#2d3748" fill-rule="evenodd"/><path d="M583.74,109.083q0,.914,0,1.823,0-.914,0-1.823" transform="translate(-278.95 -52.639)" fill="#2d3748" fill-rule="evenodd"/><path d="M81.879,384.75c-.07.642-.141,1.284-.211,1.923q.106-.964.211-1.923" transform="translate(-39.41 -183.849)" fill="#2d3748" fill-rule="evenodd"/><path d="M905.9,468.314q-.057-.907-.113-1.81l.113,1.81" transform="translate(-432.832 -222.915)" fill="#2d3748" fill-rule="evenodd"/><path d="M193.584,623.805l-2.206-.035a1.893,1.893,0,0,1,2.206.035" transform="translate(-91.449 -297.671)" fill="#2d3748" fill-rule="evenodd"/><path d="M361.087,76.756q-.018-.909-.036-1.816a1.465,1.465,0,0,1,.036,1.816" transform="translate(-172.533 -36.163)" fill="#2d3748" fill-rule="evenodd"/><path d="M247.66,61.929c.051-.6.1-1.2.153-1.789-.051.6-.1,1.194-.153,1.789" transform="translate(-118.348 -29.021)" fill="#2d3748" fill-rule="evenodd"/><path d="M717.265,466.072q-.038-.988-.076-1.975.038.989.076,1.975" transform="translate(-342.72 -221.764)" fill="#2d3748" fill-rule="evenodd"/><path d="M708.137,533.679q-.027.932-.056,1.86c.018-.622.037-1.241.056-1.86" transform="translate(-338.368 -255.014)" fill="#2d3748" fill-rule="evenodd"/><path d="M544.629,649.461l1.377,0c-.462,0-.919,0-1.377,0" transform="translate(-260.253 -310.232)" fill="#2d3748" fill-rule="evenodd"/><path d="M111.335,650.072l1.374.038-1.374-.038" transform="translate(-53.726 -310.527)" fill="#2d3748" fill-rule="evenodd"/><path d="M640.137,531.464c-4.485-3.465-8.394-8.647-9.3-14.2,1.928,2.179,3.55,4.61,5.479,6.788.767.865,1.707,1.61,2.443,2.49,1.679,2.009,1.383,2.1,1.383,4.917" transform="translate(-301.394 -247.082)" fill="#2d3748" fill-rule="evenodd"/><path d="M614.921,484.1c-2.153-4.958-4.021-10.972-3.646-16.443,1.485,4.966,4.93,11.205,3.646,16.443" transform="translate(-292.06 -223.369)" fill="#2d3748" fill-rule="evenodd"/><path d="M632.222,555.779q-.054,2.159-.108,4.315.056-2.162.108-4.315" transform="translate(-302.065 -265.025)" fill="#2d3748" fill-rule="evenodd"/><path d="M82.224,631.393l4.414.262c-1.478.02-2.975.378-4.414-.262" transform="translate(-39.678 -301.513)" fill="#2d3748" fill-rule="evenodd"/><path d="M632.308,546.589q.008,1.841.016,3.679-.008-1.843-.016-3.679" transform="translate(-302.159 -260.591)" fill="#2d3748" fill-rule="evenodd"/><path d="M513.182,271.422l-2.479-.129,2.479.129" transform="translate(-244.035 -129.641)" fill="#2d3748" fill-rule="evenodd"/><path d="M541.521,209.755q0-1.494-.009-2.986,0,1.495.009,2.986" transform="translate(-258.77 -98.8)" fill="#2d3748" fill-rule="evenodd"/><path d="M506.112,259.475a1,1,0,0,0-1.12-1.058q2.134-1.153,1.12,1.058" transform="translate(-241.312 -123.295)" fill="#2d3748" fill-rule="evenodd"/><path d="M588.707,365.445q.083-1.33.167-2.657-.084,1.33-.167,2.657" transform="translate(-281.322 -173.351)" fill="#2d3748" fill-rule="evenodd"/><path d="M122.59,632.41l2.977-.207-2.977.207" transform="translate(-59.157 -301.904)" fill="#2d3748" fill-rule="evenodd"/><path d="M525.426,400.02l2.953-.021-2.953.021" transform="translate(-251.068 -191.146)" fill="#2d3748" fill-rule="evenodd"/><path d="M577.987,191.3l-2.054.017,2.054-.017" transform="translate(-275.207 -91.413)" fill="#2d3748" fill-rule="evenodd"/><path d="M856.569,654.8l2.583-.011a2.3,2.3,0,0,1-2.583.011" transform="translate(-409.08 -312.805)" fill="#2d3748" fill-rule="evenodd"/><path d="M156.42,424.514l-1.745.05,1.745-.05" transform="translate(-74.64 -202.861)" fill="#2d3748" fill-rule="evenodd"/><path d="M756.434,175.285c.553.533-.174,1.758-.832,1.336l.832-1.336" transform="translate(-360.357 -83.76)" fill="#2d3748" fill-rule="evenodd"/><path d="M235.687,526.673q.036-1.131.073-2.261-.037,1.132-.073,2.261" transform="translate(-112.627 -250.583)" fill="#2d3748" fill-rule="evenodd"/><path d="M617.061,527.387q.06-1.18.118-2.359-.06,1.181-.118,2.359" transform="translate(-294.872 -250.877)" fill="#2d3748" fill-rule="evenodd"/><path d="M883.21,371.167q.049,1.181.1,2.36-.049-1.182-.1-2.36" transform="translate(-421.936 -177.356)" fill="#2d3748" fill-rule="evenodd"/><path d="M369.275,543.535l2.645.226-2.645-.226" transform="translate(-176.454 -259.117)" fill="#2d3748" fill-rule="evenodd"/><path d="M602.938,424.611q.065-1.174.129-2.346-.065,1.174-.129,2.346" transform="translate(-288.123 -201.773)" fill="#2d3748" fill-rule="evenodd"/><path d="M306.9,455.559l2.636.243-2.636-.243" transform="translate(-146.647 -217.695)" fill="#2d3748" fill-rule="evenodd"/><path d="M455.575,587.767h0" transform="translate(-216.888 -280.461)" fill="#2d3748" fill-rule="evenodd"/><path d="M553.513,218.226q-.051,1.1-.1,2.189.051-1.1.1-2.189" transform="translate(-264.457 -104.276)" fill="#2d3748" fill-rule="evenodd"/><path d="M577.832,560.649c.87-.618,1.716-.211,2.565.058l-2.565-.058" transform="translate(-276.112 -267.219)" fill="#2d3748" fill-rule="evenodd"/><path d="M379.726,156.6c-.572-.023-1.144-.047-1.71-.073.574.023,1.142.048,1.71.073" transform="translate(-180.635 -74.797)" fill="#2d3748" fill-rule="evenodd"/><path d="M649.138,584.9q-.077-1.092-.154-2.181.077,1.094.154,2.181" transform="translate(-310.127 -278.025)" fill="#2d3748" fill-rule="evenodd"/><path d="M557.465,428.142l-1.408.01,1.408-.01" transform="translate(-265.713 -204.595)" fill="#2d3748" fill-rule="evenodd"/><path d="M597.208,477.541c0-.607,0-1.214,0-1.818q0,.912,0,1.818" transform="translate(-285.386 -227.321)" fill="#2d3748" fill-rule="evenodd"/><path d="M538.917,565.029l2.117-.275-2.117.275" transform="translate(-257.519 -269.356)" fill="#2d3748" fill-rule="evenodd"/><path d="M479.925,394.571l2.294-.014a2.345,2.345,0,0,1-2.294.014" transform="translate(-229.329 -188.544)" fill="#2d3748" fill-rule="evenodd"/><path d="M555.258,250.951l-1.32-.012,1.32.012" transform="translate(-264.701 -119.915)" fill="#2d3748" fill-rule="evenodd"/><path d="M302.818,468.593l-1.361-.019,1.361.019" transform="translate(-144.052 -223.916)" fill="#2d3748" fill-rule="evenodd"/><path d="M133.928,410.851l2.29.024a2.116,2.116,0,0,1-2.29-.024" transform="translate(-64.628 -196.33)" fill="#2d3748" fill-rule="evenodd"/><path d="M883.22,413.291c-.049.582-.1,1.165-.143,1.744.048-.584.1-1.164.143-1.744" transform="translate(-421.871 -197.488)" fill="#2d3748" fill-rule="evenodd"/><path d="M507.842,592.381q.1-.954.195-1.906-.1.955-.195,1.906" transform="translate(-242.68 -281.768)" fill="#2d3748" fill-rule="evenodd"/><path d="M269.341,447.739l2.314.033c-.779.537-1.546.2-2.314-.033" transform="translate(-128.703 -213.958)" fill="#2d3748" fill-rule="evenodd"/><path d="M609.142,231.765l2.25-.255-2.25.255" transform="translate(-291.075 -110.63)" fill="#2d3748" fill-rule="evenodd"/><path d="M488,625.85q.1,1,.2,2-.1-1-.2-2" transform="translate(-233.198 -298.839)" fill="#2d3748" fill-rule="evenodd"/><path d="M617.082,539.2q0-.935,0-1.867c0,.625,0,1.245,0,1.867" transform="translate(-294.881 -256.761)" fill="#2d3748" fill-rule="evenodd"/><path d="M91.46,632.071l2.177.287-2.177-.287" transform="translate(-44.135 -301.841)" fill="#2d3748" fill-rule="evenodd"/><path d="M117.78,632.286a1.822,1.822,0,0,1,2.174-.031l-2.174.031" transform="translate(-56.836 -301.762)" fill="#2d3748" fill-rule="evenodd"/><path d="M370.868,466.478l2.129-.261-2.129.261" transform="translate(-177.217 -222.788)" fill="#2d3748" fill-rule="evenodd"/><path d="M523.313,638.746l2.17-.29-2.17.29" transform="translate(-250.063 -304.921)" fill="#2d3748" fill-rule="evenodd"/><path d="M474.415,640.922l2.213-.284-2.213.284" transform="translate(-226.697 -305.975)" fill="#2d3748" fill-rule="evenodd"/><path d="M552.821,226.767c-.033.6-.065,1.192-.1,1.784.033-.6.065-1.191.1-1.784" transform="translate(-264.128 -108.359)" fill="#2d3748" fill-rule="evenodd"/><path d="M217.108,499.468q.1-.948.2-1.9-.1.95-.2,1.9" transform="translate(-103.748 -237.761)" fill="#2d3748" fill-rule="evenodd"/><path d="M541.9,195.26q.029-.931.058-1.858-.028.932-.058,1.858" transform="translate(-258.957 -92.416)" fill="#2d3748" fill-rule="evenodd"/><path d="M269.594,487.643q.1.95.2,1.9c-.065-.634-.13-1.266-.2-1.9" transform="translate(-128.829 -233.016)" fill="#2d3748" fill-rule="evenodd"/><path d="M274.319,447.751l2.244.248-2.244-.248" transform="translate(-131.082 -213.964)" fill="#2d3748" fill-rule="evenodd"/><path d="M496.617,608.327c.426,1.251.27,4.16-.94,5.041-2.51,1.83-2.768-1.511-3.267-3.316-1.382-5.006-3.608-10.6-4.175-15.744-.174-1.579-.268-4.536,1.82-5.068,2.016-.513,3.037,2.68,3.732,4.321a34.959,34.959,0,0,1,2.829,14.766" transform="translate(-233.229 -281.146)" fill="#2d3748" fill-rule="evenodd"/><path d="M504.51,624.373q.043-.97.086-1.937-.043.971-.086,1.937" transform="translate(-241.088 -297.191)" fill="#2d3748" fill-rule="evenodd"/></g></g></g></svg>