<svg xmlns="http://www.w3.org/2000/svg" xmlns:xlink="http://www.w3.org/1999/xlink" width="474.62" height="400" viewBox="0 0 474.62 400"><defs><clipPath id="b"><rect width="474.62" height="400"/></clipPath></defs><g id="a" clip-path="url(#b)"><g transform="translate(-125.999 -33.734)"><path d="M282.1,343.883c.818,5.5,2.876,10.334,4.613,15.483a43.529,43.529,0,0,0,3.358,7.151c.813,1.448,1.844,4.89,3.337,2.879.248,1.05-.078,1.564.267,2.534.486,1.369,3.005,3.073,4.1,4.128,1.056,1.017,2.217,1.8,3.354,2.695.225.177.691.032.874.238.339.386.022.92.166,1.1,1.781,2.238,4.872,3.828,7.189,5.473,3.311,2.351,6.605,4.7,9.831,7.164,2.55,1.947,4.982,4,7.512,5.949a14.863,14.863,0,0,1,3.029,3.077c1.118,1.512,1.286,1.579.509,3.14-1.39,2.79-3.9,4.59-5.571,7.095-1.908,2.855-3.135,6.048-5.728,8.431-1.159-2.614-2.657,1.206-.732.8-.894,2.652-2.893,4.91-4.226,7.4a95.675,95.675,0,0,1-5.167,8.4q-.285-1.03-.571-2.061c-1.815.434-.362,1.765-.228,2.316.113.468.508.516.227,1.533a7.348,7.348,0,0,1-1.409,2.047c-1.045,1.427-2.019,2.895-3.005,4.361a22.6,22.6,0,0,0-1.937,4.044c-.559,1.259-1.073,1.02-1.973,1.947a42.144,42.144,0,0,0-2.686,3.729,57.934,57.934,0,0,0-6.37,10.775c-1.606,3.56-4.571,6.062-5.926,9.838-.693,1.928-.947,3.954-1.547,5.9a48.106,48.106,0,0,0-1.829,5.4c-.289,1.567-.1,3.383-.243,4.757a22.072,22.072,0,0,0-.445,4.428,21.247,21.247,0,0,0,3.329,9.005c-7.532,2.553-16.1,3.27-24,3.085-4.039-.1-8.642-.133-12.594.8-2.285.54-4.041,1.213-6.441,1.025s-4.794-.413-7.191-.62c.7-1.41,2.985-3.186,4.268-4.268.74-.625,1.962-.773,2.528-1.376.649-.691.847-2.413,1.078-3.244a192.039,192.039,0,0,0,4.2-19.341c1.967-11.53,2.73-23.269,3.457-34.871.052-.835.46-1.843.439-2.636a27.5,27.5,0,0,1-.191-3.219c.061-.772.983-1.8.943-2.485-.035-.6-1.062-.144-1.06-1.043,0-1.294,1.852-3.158,2.238-4.319.149-.45-.4-1.053-.455-1.557l0-.09c.024.014.431-1.817.447-1.892.135-.586.664-.77.637-1.5-.023-.634-.952-1.462-.45-2.119.343-.449,1.591.272,1.873-.24.363-.658-1.231-2.907-1.055-3.926.288-1.659,1.472-3.341,1.875-5.046.179-.759-.02-1.947.57-2.575.962-1.024,1.8.025,3.187-.318a3.437,3.437,0,0,1-1.272-4.008c.327-1.369.978-2.889,2.476-1.522-.224-2.044-.216-2.363,1.31-3.911a14.948,14.948,0,0,1,2.423-2.52l.8-.844a2.02,2.02,0,0,0,1.294.641c4.279-.227,6.417-1.1,10.348,1.462a27.784,27.784,0,0,1,4.735,3.3c1.589,1.572,2.871,3.422,4.573,4.891a56.662,56.662,0,0,1,5.479,4.875c1.4,1.558,2.754,3.321,4.635,4.273.144-2.253-1.088-4.268-2.165-6.235a3.716,3.716,0,0,0-1.046-.8c-.114-.395.318-.735.184-1.085,1.631,1.474,3.316,3.662,5.183,4.767,3.047,1.8,1.693-1.715,1.112-3.522a43.781,43.781,0,0,0-8.133-14.254c-6.075-7.277-16.21-15.4-25.908-10.822-9.612,4.54-14.676,12.165-17.434,22.307a144.61,144.61,0,0,0-4.974,35.217c-.175,6.982-.887,13.906-1.621,20.849-.717,6.774-1.01,14.114-2.377,20.766a11.941,11.941,0,0,1-1.792-3.594c-.174-.568.044-1.124-.252-1.682-.137-.257-.831-.225-.961-.459a28.745,28.745,0,0,1-3.05-6.776c-.258-1.165-.022-1.845-.521-2.9-.468-.994-.7-.052-.883-1.278-.025-.17.76-.449.518-1.244-.612-2.006-1.043-.1-1.336-.117-.6-.025.761-4.141.654-4.788-.124-.743-.471-.338-.64-.879a15.317,15.317,0,0,1-.452-1.877c-.347-2.071-1.132-2.747-1.167-4.988-.043-2.7-1.045-4.447-1.494-7.031-.083-.476.437-1.011.343-1.427-.195-.867-.822-1.586-1.067-2.5-.51-1.915.508-3.567.366-5.412.024.3-.572-1.358-.61-1.5-.215-.844-.123-1.974-.293-2.892-.16-.862-.691-2.012-.216-2.817.325-.551,1.055-.4,1.48-1.016-1.562-.5-1.234.046-1.8-1.677-.539-1.645-.591-3.023,1.193-1.936a18.721,18.721,0,0,1-1.473-3.66c-.167-1.086.232-2.137.118-3.218-.306-2.895-1.2-4.656.448-7.464-2.168-1.109-1.23-4.969-1.566-7.07-.364-2.279-1.252-4.458.459-5.956-2.169-1.558-1.066-6.613-1.026-9.027.039-2.309-.142-4.649-.114-7.332a15.258,15.258,0,0,0-.773-4.058c-.467-1.932.008-3.416-.151-5.284-.127-1.485-.688-2.977-.764-4.559-.078-1.614.056-3.424-.171-5.01a27.09,27.09,0,0,1-.536-3.668,8.889,8.889,0,0,1-.128-1.566c0,.014.585-1.351.581-.748.017-2.244-1.107-4.438-.518-7.173.485-2.246.891-1.878,3.157-1.739,1.788.11,3.574.228,5.365.235,2.32.009,9.781-1.6,11.46.036,1.39,1.354.582,7.764.677,9.7.153,3.151-2.864,4.115-3.7,7.333-1.594,6.136,1.04,14.235,8.229,14.759,6.706.49,13.139-5.024,12.218-11.8-.37-2.72-1.623-5.68-3.988-7.271-2.288-1.54-7.148-.379-8.742-2.235-.743-.866-.448-4.232-.535-5.361-.125-1.643-.878-4.931.2-5.709,1.223-.88,5-.9,6.4-.9a33.8,33.8,0,0,0,5.741-.335c4.344-.736,8.675-.706,12.943-1.669A67.975,67.975,0,0,0,282.1,343.883Zm51.772,0c.882-.022,2.778,7.282,3.278,8.571a65.142,65.142,0,0,1,2.686,10.777c.781,3.8,1.479,7.666,2.49,11.412.759,2.815.589,5.541,1.611,8.374-.27,1.754-.028,4.786-1.966,5.54-1.752.682-2.89-.983-3.542-2.426-1.757-3.9-1.193-9.1-1.834-13.291-.756-4.948-.8-9.822-1.393-14.776C334.678,353.7,332.909,348.186,333.87,343.883ZM257.377,243.79c1.921,2.169,4.743,1.259,7.274,1.018-1.074,2.44-2.615,5.052-2.673,7.785-.029,1.418.733,2.676.725,4.028s-1.1,2.592-1.613,3.837c-2.318,5.586-2.878,13.155-2.965,19.153-.179,12.409,3.536,25.627,11.437,35.357a34.5,34.5,0,0,0,5.636,5.57c1.139.88,6.386,2.971,6.632,4.208.476,2.394-4.908,2.158-6.379,2.372-3.092.451-6.148,1.1-9.245,1.515-12.408,1.668-24.657,3-37.166,2.327-1.384-.074-3.972.615-5.28.061-1.537-.651-1.013-1.946-.975-3.46a106.184,106.184,0,0,0-.79-11.572c-.264-3.124.451-2.708,2.742-4.437a16.564,16.564,0,0,0,5.457-7.953c2.2,1.777.608,2.732.921,5.011.383,2.78,2.262,2.324,3.5.464a10.265,10.265,0,0,0-.044-10.334c-1.61-2.583-7.354-6.549-10.613-5.368-4.336,1.573.383,6.85,2.435,7.993-.506,1.46-3.307,2.744-4.555,3.546a24.719,24.719,0,0,1-5.984,2.375,35.594,35.594,0,0,1-16.052,1.077c-5.3-.774-11.368-2.5-14.786-6.843-1.479-1.878-2.838-4.738-1.42-7.09,1.278-2.12,4.437-2.267,5.99-4.321.671-.886.993-2.062,1.61-2.92,1-1.4.6-1.147,2.484-.987a29.264,29.264,0,0,0,9.311-.28c2.259-.553,4.459-1.585,6.668-2.244a17.9,17.9,0,0,0,6.384-3.754c4.184-3.656,8.281-7.629,12.155-11.613,3.851-3.96,6.318-9.058,9.924-13.258,4.086-4.759,8.015-10.842,14-13.462C255.571,240.088,255.508,241.679,257.377,243.79Zm14.55,15.82c.583.609.212,4.1.767,5.218,2.135,4.283,5.868,3.337,9.731,2.437.333,3.432.59,7.3,1.976,10.5.619,1.428,1.6,2.655,2.1,4.148.316.946.189,2.146.546,3.026.386.951,1.365,1.683,1.938,2.62a17.926,17.926,0,0,0,1.963,3.179c1.991,2.166,4.695,4,6.218,6.587a5.126,5.126,0,0,1,.716,3.082,14.123,14.123,0,0,0-.179,2.4c.508,1.2,2.334,1.513,2.535,3.067.114.873-.361.768-.522,1.5a18.747,18.747,0,0,1-.375,2.451c-.509,1.547-2.751,4.459-2.519,5.792-3.3,1.816-9.1,2.968-12.8,2.138-3.78-.848-7.559-5.14-10-7.952-5.727-6.6-9.062-17.027-9.374-25.662-.159-4.382.425-8.784.632-13.159.116-2.465-.41-9.407,1.678-11.133C267.42,259.454,271.517,259.182,271.927,259.61Zm-30.815,8.266c-5.094.292-9.466,8.267-8.523,12.926.774,3.824,2.08.867,3.072-.775,1.17-1.939,3.289-4.284,5.8-3.787,2.795.554,3.507,3.958,4.647,6.116,2.078,3.936,2.726-.29,3.187-2.679C248.931,275.006,247.216,267.527,241.112,267.876Z" transform="translate(-7.229 -90.626)" fill="rgba(38,128,235,0.15)" fill-rule="evenodd"/><g transform="translate(165.999 33.734)"><path d="M58.549,205.578c-1.558.85-3.541,5.667-1.133,7.934s.849,4.817,4.958,2.692,7.65-6.233,3.683-8.217A25.464,25.464,0,0,0,58.549,205.578Z" transform="translate(10.582 38.6)" fill="#f6eb85"/><path d="M38.186,179.064c-1.585-1.009-2.773,6.731-1.386,9.087s14.066,1.85,23.97,2.524,21.99-2.524,29.914-2.524,16.641-2.861,19.017-5.048,4.954-6.563,2.774-8.413-10.5,1.682-21.791,3.2-27.339,3.029-37.64,2.356S39.771,180.073,38.186,179.064Z" transform="translate(3.981 32.274)" fill="#2680eb"/><path d="M292.712,245.927s6.263,51.667,6.655,54.407-13.7,23.877-18.4,30.531-22.7,32.1-22.7,32.1l10.96,15.657,21.528-6.263,1.957,6.263s7.437,3.523,10.96,9.394,12.134,16.831,12.134,21.528v16.048s-101.768,4.306-107.248,2.74-25.051-6.654-28.574-7.045-27.007,7.828-28.182,7.045-14.092-5.088-15.266-7.045-4.306-23.094-3.523-24.66,24.66-46.187,24.66-46.187l50.884-77.892,16.831-24.268L239.48,251.8l28.182,1.566L280.97,251.8Z" transform="translate(-18.612 -34.444)" fill="#2680eb"/><path d="M372.641,381.945c-2.64.82-5.115,2.027-7.658,3.1a17.99,17.99,0,0,1-8.055,1.433c-12.206-.018-24.286.609-36.514.856-3.34.067-6.731.1-10.071.039-1.349-.024-2.671-.178-4.013-.288-.868-.071-4.649.448-5.153.144-1.417-.853-.576-6.345-.748-8.105a34.9,34.9,0,0,0-2.151-8.873,71.339,71.339,0,0,0-18.538-27.628c11.085-4.655,23.178-10.794,35.481-8.032,4.685,1.052,10.9,2.428,13.309,6.961,2.576,4.84,4.831,10.161,7.775,14.794a54.019,54.019,0,0,0,11.547,13.5c1.879,1.533,11.35,10.948,9.912,3.68-.461-2.331-2.166-4.5-3.528-6.4-.693-.968-4.426-4.143-3.845-5.265.652-1.258,7.385-2.144,8.827-2.545,2.981-.827,5.945-1.708,8.913-2.575-1.073,2.023-6.913,9.679-3.182,11.635,1.371.719,4.916-1.827,6.418-2.275,2.559-.761,4.9-.26,7.414.494-.066,1.235-2.492,1.251-3.3,2.095-1.179,1.234-2.008,4.563-1.082,6.042,1.723,2.755,8.391-.057,11.373.989-3.352,3.459-8.61,4.818-13.133,6.221ZM206.085,268.206c.035.071-.029.171-.43.519-.122-.439-.34-.536-.608-.415.215-.234.394-.358.608.415a2.334,2.334,0,0,0,.43-.519Zm1.02-1.45a.5.5,0,0,1-.54.382l.039-.123c.185-.577.431-.479.349-1.541a.636.636,0,0,1,.133.535.615.615,0,0,1,.02.747Zm-29.67,49.855a17.164,17.164,0,0,1,.72-2.1c-.356.634-.362,1.415-.72,2.1ZM292.115,386.8c-4.418-.176-8.725-.1-13.141.094-9.438.411-18.919.471-28.339,1.229a118.517,118.517,0,0,1-13.661.357c-4.041-.137-8.1.008-12.125-.331-4.423-.372-8.565-1.595-13.029-1.661-4.269-.063-9.352-.557-13.492.066-.715.107-1.1.563-1.943.673a23.59,23.59,0,0,1-4-.4c-2.094-.141-4.408.09-6.45-.4a12.345,12.345,0,0,1-1.873-.7,20.119,20.119,0,0,0-2.328-.527c1.946-.725-2.372-2.2-2.72-2.285a1.406,1.406,0,0,0,.425,1.108c-1.1-.848.078-.535-1.728-1.394a11.713,11.713,0,0,0-3.049-.69,12.767,12.767,0,0,0-1.635-.016,1.43,1.43,0,0,0,.222-.344c.6-1.244-1.235-2.665-2.267-1.829.119.243.313.692.547,1.134l-.03-.034c-.383-.442-1.1-1.573-1.82-2.334.909-.5-.2-1.184-.622-1.884a2.413,2.413,0,0,0-.769.511c.239-.5.831-.951.484-1.919a2.717,2.717,0,0,0-.691-.988,1.444,1.444,0,0,0,1.06.458,5.089,5.089,0,0,1-.921-1.9c-.142-.563.646-1.106-.1-1.615.023-.53.339-2.966-.984-2.116h0v0c.847-2.589,2.287-5.263,3.357-7.8,2.493-5.9,5.056-11.838,7.665-17.683,4.314-9.669,8.82-19.314,13.783-28.724,4.922-9.328,10.294-18.35,14.939-27.807,4.481-9.123,9.707-17.853,14.219-26.962,2.125-4.291,4.973-7.838,5.7-12.823.235-1.615.309-4.982-2.135-4.376-1.589.394-3.812,4.371-4.838,5.664-.918-1.261-6.1-8.671-7.489-4.257-1.192,3.786,6.27,5.435,3.292,9.247-.295.378-1.518.76-1.919,1.109a17.3,17.3,0,0,0-2.1,2.7c-1.375,1.871-2.514,3.859-3.786,5.793-.239.364-1.114,1.188-1.181,1.614-.036.226.154.459.3.694-1.035.916-2.34,1.725-2.582,3.209a.338.338,0,0,0,.2.025,23.835,23.835,0,0,0-2.353,3.7c-1.3,1.885-2.568,3.858-3.849,5.847-.692,1.076-1.9,2.34-2.3,3.548-.138.418.265,1.166-.11,1.558-.988,1.028-1.954.809-2.692,2.877a12.627,12.627,0,0,1-.784,2.651c-.749,1.12-1.821,1.648-2.521,2.853a48.628,48.628,0,0,0-3.756,7.106c0,.009,0,.018-.007.027-.029-.18-.068-.376-.115-.591l-1.422,2.556c.82-.16,1.259-.383,1.459-.748a1.226,1.226,0,0,1-.137.382,4.29,4.29,0,0,1-1.322.367q-.476.786-.893,1.606a19.481,19.481,0,0,0-.785,3.238c-.07-.5-.142-.94-.149-1l-1.8,3.472c1.091-.839,1.03-.981,2.068-1-1.31.026-3.291,1.865-3.473,3.631a1.757,1.757,0,0,0,.3.9l-.113-.014c-1.371-.116-.97.161-1.49,1.3a9.333,9.333,0,0,0,1.787-.881.473.473,0,0,1-.018.406c-.34.54-3.117.191-1.333,1.39-1.482-1-2.222,2.273-1.718,3.4-.4.575-.874,1.106-1.321,1.639a14.98,14.98,0,0,0-2.425,3.9c-1.225,2.716-2.686,5.411-4.025,8.074a26.7,26.7,0,0,1-1.725,2.816c-1.106,1.669-.912,1.252-.039,3.07-.327-.106-.812.151-1.281.526a.96.96,0,0,1,1.281-.526c-1.107-2.306-2.057.5-2.567,1.826.023,0,.042-.006.063-.007a1.73,1.73,0,0,0-.154.266h0c-.52,1.073-1.134,1.73-.69,2.854a9.7,9.7,0,0,1,.85-1.647c-.3,1.311-1.734,2.882-2.165,3.75-.359.721-.41,1.478-.851,2.263a13.721,13.721,0,0,0-1.105,2.076c-1.538,4.076-2.286,8.616-3.257,12.9a90.83,90.83,0,0,0-1.864,15.614,10.026,10.026,0,0,0,.431,4.265c.079.207.923,1.31.9,1.713-.117,2.106-4.073,1.668-5.594,1.608a31.251,31.251,0,0,0-6.39.63c-2.144.31-4.248.14-6.424.666-3.616.873-9,2.257-12.5.338-1.69-.928-3.819-3.618-5.045-5.127a10.865,10.865,0,0,1-2.288-6.116c-.462-4.049-.494-8.522.914-12.391,6.54-17.978,17.76-34.321,27.435-50.683,9.079-15.353,19.257-29.906,28.356-45.217a249.768,249.768,0,0,1,16.315-23.582c5.847-7.646,10.02-15.965,14.142-24.619,4.272,2.265,8.795,4.6,13.573,5.62,2.717.583,5.414.406,8.153.594,2.019.138,3.708.615,5.764.668a91.8,91.8,0,0,0,28.053-3.514,42.355,42.355,0,0,0,5.855-2.222c2.475-1.175,3.143-1.674,3.284,1.058.271,5.288,1.135,10.428,1.541,15.684a152.6,152.6,0,0,0,2.341,15.241c.462,2.564.96,5.125,1.34,7.7.288,1.956,1.157,4.676.812,6.631-.38,2.158-2.425,4.348-3.6,6.19-1.187,1.868-2.381,3.732-3.565,5.6a101.591,101.591,0,0,1-7.055,10.055c-4.863,5.967-9,12.206-13.613,18.367-4.9,6.543-8.966,13.61-13.77,20.22-2.538,3.492-5.134,6.785-6.8,10.717-1.38,3.262-4.157,6.262-5.855,9.49-2.229,4.238-5.066,8.12-7.28,12.379-1.546,2.975-4.531,6-4.845,9.459-.525,5.8,4.991,0,6.267-1.613,1.712-2.169,3.59-5.966,6.162-7.142,1.837-.84,4.521-.749,6.515-1.406,2.09-.689,4.141-1.4,6.251-2.034,4.11-1.228,8.076-2.962,12.072-4.521,4.137-1.614,8.272-3.243,12.33-5.039a22.41,22.41,0,0,1,5.469-1.619c.864-.156,3.954-1.615,4.634-1.491,1.143.208,2.718,3.567,3.585,4.431,1.336,1.332,2.838,2.421,4.086,3.854a107.194,107.194,0,0,1,7.193,8.9c4.762,6.852,9.215,14.339,10.909,22.593.76,3.7-.127,3.951-3.71,3.807Zm-123.842-8.958a.814.814,0,0,1-.059-.179.967.967,0,0,0,.059.179c.564-.335.713-.157.771.116a.723.723,0,0,0-.771-.116Zm-1.313-3.825a1.614,1.614,0,0,1-.037-.29,2.225,2.225,0,0,0,.037.29.687.687,0,0,1,.814,0,.746.746,0,0,0-.814,0Zm.567-2.5a.965.965,0,0,0,.592-.331,6.439,6.439,0,0,0-.51.577c0-.025.006-.049.008-.074a.284.284,0,0,0-.091-.172ZM111.382,350.54c-1.284,3.026-1.818,6.338-2.909,9.437a28.72,28.72,0,0,0-1.385,7.193q1.14.841-.051,1.482a11.742,11.742,0,0,0-.058,1.622,10.858,10.858,0,0,0,.516,4.466,23.579,23.579,0,0,0,2.732,6.2c-7.472,2.535-15.984,3.248-23.824,3.065-4.237-.1-8.99-.109-13.118.936-4.446,1.126-8.344.655-12.911.262.667-1.344,3.217-3.587,4.508-4.521.657-.475,1.739-.556,2.237-1.088.711-.758.795-2.231,1.071-3.225a192.4,192.4,0,0,0,4.172-19.217,293.8,293.8,0,0,0,3.43-34.649c.049-.974.552-2.068.528-2.99a20.694,20.694,0,0,1-.281-2.828c.063-.795,1.016-1.873.946-2.58-.043-.443-1.128-.061-1.062-.927.1-1.335,1.829-3.094,2.221-4.291.174-.533-.476-1.064-.455-1.646-.006.166.429-1.8.445-1.871.131-.565.66-.8.632-1.495-.026-.629-.943-1.454-.447-2.106s1.543.338,1.859-.238c.36-.654-1.222-2.888-1.046-3.9.307-1.772,1.514-3.679,1.986-5.479.177-.675-.107-1.509.441-2.093.956-1.017,1.785.026,3.163-.315a3.487,3.487,0,0,1-1.262-3.982c.329-1.382.964-2.877,2.457-1.512-.2-1.8-.407-1.982.885-3.485a27.072,27.072,0,0,1,3.9-3.845,15.635,15.635,0,0,1,7.549-2.426,10.826,10.826,0,0,1,7.715,3.147c2.379,2.375,5.455,4.106,8.152,6.377,2.882,2.424,5.356,5.3,8.124,7.874.568.527,1.614,2,2.492,1.749,1.432-.414.276-2.55-.038-3.5-2.232-6.763-6.243-13.576-11.761-18.19-2.846-2.38-5.677-5.391-8.985-7.124-2.673-1.4-4.76-1.18-7.6-1.28-2.429-.086-2.928-.229-5.093.793a46.713,46.713,0,0,0-4.5,2.317,24.567,24.567,0,0,0-6.418,5.276c-4.558,5.7-6.337,12.941-8.128,19.884a103.336,103.336,0,0,0-3.567,23.02c-.243,8.062-.616,16-1.411,24.035q-.62,6.263-1.429,12.5c-.5,3.836-.523,7.96-1.3,11.728a14.837,14.837,0,0,1-1.814-4.043c-.363-1.029-.731-.993-1.256-1.752a22.949,22.949,0,0,1-2.941-6.635c-.268-1.212-.021-1.82-.518-2.887-.154-.33-.988-.072-1.122-.593-.1-.374.427-.664.4-.791-.054-.3.757-.623.056-1.552-1-1.318-.486.336-1.024.313-.448-.019.9-4.57.739-5.231-.056-.234-.819-.265-.88-.482-.185-.656-.143-1.607-.324-2.319-.441-1.738-1.1-2.436-1.129-4.421-.043-2.624-1.015-4.482-1.483-6.985-.09-.481.439-1,.34-1.418-.2-.847-.828-1.589-1.059-2.486-.445-1.727.149-4.163.028-5.568-.107-1.229-.451-3.223-.678-4.749-.369-2.485.294-1.674,1.373-3.237-1.5-.483-1.306-.058-1.784-1.666-.552-1.857-.5-2.952,1.184-1.924a18.648,18.648,0,0,1-1.461-3.637c-.17-1.1.232-2.107.117-3.2-.311-2.951-1.232-4.553.444-7.417-2.155-1.1-1.216-4.9-1.554-7.024-.364-2.289-1.247-4.426.456-5.917-1.752-1.26-1.058-4.875-1.051-6.8,0-.876.3-2.417.225-3.194-.052-.547-.424-.914-.532-1.551-.4-2.359.481-4.7-.048-7.042a49.593,49.593,0,0,1-.87-7.493c-.2-2.512-.586-5.124-.753-7.7-.124-1.911-.869-3.979-.526-5.958.027-.156.482-1.565.495-1.246a14.256,14.256,0,0,0-.409-1.443,63.7,63.7,0,0,1-.067-6.486h-.015a1.21,1.21,0,0,0,.449-1.09c2.144-.207,4.489.316,6.655.374,2.335.062,4.662-.054,6.994-.162,1.5-.07,4.734-.78,5.876.472.828.907.307,5.578.362,6.792.065,1.435.792,3.688-.048,4.943-.52.78-1.7,1.091-2.3,1.946a8.7,8.7,0,0,0-.866,1.958,14.167,14.167,0,0,0-.738,5.341c.428,8.42,7.176,12.287,14.753,8.894a10.187,10.187,0,0,0,2.724-16.9,8.161,8.161,0,0,0-4.462-1.77c-1.082-.185-4.038-.071-4.746-.845s-.531-3.159-.609-4.154c-.125-1.6-.767-3.972-.419-5.513q-.856-1.927,1.144-1.631l1.266-.255a29,29,0,0,1,3.189-.5c1.926-.133,3.8.1,5.729-.161,1.89-.253,3.742-.725,5.635-.97,2.011-.26,3.987.029,5.978-.312a58.006,58.006,0,0,0,12.437-3.283c1.035-.434,2.79-1.687,3.938-1.48,1.376.248,1.008,1.123,1.4,2.431,2.2,7.258,6.764,14.429,11.6,20.2,4.562,5.447,10.577,9.839,16.017,14.407q4.946,4.155,9.527,8.708c2.222,2.2,4.606,5.633,7.477,6.9.654.025,3.176-.264,3.637.209.532.544.5.848.288,1.188.61-1.606-2.291-1.336-3.925-1.4.185.311,2.02,3.992,2.474,1.945l.791.471a50.842,50.842,0,0,1-4.827,8.348c-1.337,1.88-3.064,3.24-4.264,5.189a50.84,50.84,0,0,1-4.695,7.2c-3.826,4.37-5.955,10.246-9.292,15.1-1.6,2.331-2.44,4.5-4.108,6.816-1.3,1.815-3.419,4.112-4.179,6.2-.3.835.022,1.559-.534,2.333-.351.489-1.392,1.019-1.883,1.526-1.949,2.014-3.469,4.886-5,7.255-1.629,2.522-2.763,5.139-4.142,7.766-1.415,2.7-3.757,4.607-4.982,7.5ZM60.655,362.048c-1.014.016-1.394.021-1.507-.424a2.129,2.129,0,0,1-.039-.534,2.129,2.129,0,0,0,.039.534c.113.444.493.439,1.507.423Zm.127-3.775c.1.283-.527.764-2.2.587,1.662.177,2.3-.3,2.2-.587Zm-4.127,9.478c.15.133.3.272.438.415-.142-.143-.288-.282-.438-.415ZM46.188,387.57c-1.367-.478-4.922-1.322-7.237-2.322,1.032.29,2.107.528,2.521.672l4.716,1.65c2.227-8.027,10.587-11.087,17.741-14.05-3.447-.145-4.678-3.137-6.761-5.275,2.079,2.133,3.33,5.131,6.761,5.275-7.153,2.963-15.514,6.024-17.741,14.05Zm-7.82-8.081c-.078.13-.156.264-.234.411a24.458,24.458,0,0,0-1.354,3.354,6.015,6.015,0,0,1,1.588-3.765ZM46.239,227.08a.7.7,0,0,1,.324-.052c-.374.017-.476.461-.492,1.077-.325-.345-.4-.8.168-1.025Zm25.966,18.548c2.436,1.21,4.8,1.914,7.125,3.377-2.852,2.217-11.955,5.8-11.683-1.053.032-.8.5-2.943,1.227-3.418,1.108-.721,2.365.615,3.331,1.094Zm-27.89-31.9c10.728,3.744,23.227,2.819,34.131.993,11.715-1.962,23.412-3.117,34.761-6.789.011,1.58.7,3.235-.556,4.538-.981,1.021-3.11,1.214-4.407,1.645-3.393,1.125-6.307,2.764-9.853,3.436-3.973.753-7.941.738-11.947,1.184-1.451.162-2.816.421-4.178.683a19.309,19.309,0,0,0-5.251.808c-6.74.031-13.435.231-20.147-.571-3.409-.408-6.781-.908-10.2-1.256-3.2-.326-2.486-1.706-2.354-4.67Zm-4.1-28.8a33.065,33.065,0,0,1-19.051-.775c-4.495-1.444-10.458-3.56-11.4-9.031-.624-3.609,1.539-4.264,4.083-5.761a6.949,6.949,0,0,0,2.628-2.473c.486-.721.922-2.532,1.468-3.025,1.329-1.2,5.522-.147,7.6-.24,3.1-.138,5.2-1.18,8.049-2.1a28.615,28.615,0,0,0,12.129-7.308c3.8-3.614,8.266-7.29,11.34-11.548,3.442-4.768,6.737-9.409,10.487-13.957,2.778-3.37,7.82-10.116,12.805-10.085,2.5.015,2.132,2.376,4.12,3.575,1.815,1.1,4.189.333,6.183.144-1.314,2.988-3.138,6.062-2.493,9.443.362,1.894.554,2.547-.186,4.34a31.7,31.7,0,0,0-1.826,4.841,67.334,67.334,0,0,0-1.719,21.507c1.184,12.093,5.328,24.579,14.392,33.117a28.939,28.939,0,0,0,6.871,4.783c2.524,1.277,2.733,2.608-.394,3.178-6.091,1.112-12.275,1.871-18.41,2.7a165.6,165.6,0,0,1-18.542,1.811c-3.056.063-6.094.443-9.15.226-1.522-.108-3.034-.38-4.56-.422-1.332-.037-3.321.629-4.561.1-1.941-.822-.976-6.5-1.118-8.475-.164-2.264-1.592-6.509-.744-8.649.6-1.5,2.784-2.132,3.918-3.3a16.4,16.4,0,0,0,4.329-6.809c2.355,1.9.329,3.121,1.044,5.439.78,2.529,2.219,1.734,3.345,0a10.234,10.234,0,0,0-.044-10.263,11.245,11.245,0,0,0-4.466-3.819c-1.4-.723-4.51-2.14-6.065-1.512-4.218,1.7.271,6.743,2.416,7.938-.515,1.489-4.169,3.636-5.562,4.271a48.371,48.371,0,0,1-6.914,2.141Zm57.9-46.139a8.943,8.943,0,0,0,.409,2.36,6.6,6.6,0,0,0,3.142,3.735c2.918,1.519,8.835-.668,11.4-2.461a48.441,48.441,0,0,0,2.532,14.907c1.507,4.986,4.594,9.044,7.219,13.471a30.569,30.569,0,0,0,4.533,6.551c1.954,1.915,2.279,2.65,2.1,5.474a10.7,10.7,0,0,1-6.7,9.753c-3.319,1.839-10.17,3.334-13.786,1.8-3.8-1.617-7.5-5.8-9.963-9.021-5.591-7.316-8.427-18.336-8.087-27.431.177-4.738.428-9.585.881-14.307.33-3.439.209-8.383,5.212-6.833,1.616.5.973.127,1.1,2Zm19.2,63.528c.483-.983,4.728-1.97,5.467-1.394,1.121.875,1.168,5.973,1.562,7.423a44.317,44.317,0,0,0,2.436,6.752,45.1,45.1,0,0,0,8.6,12.811c3.665,3.676,7.877,6.223,12.328,8.857,1.271.753,2.5,1.662,3.809,2.345.548.287,1.564.421,2,.852,1.068,1.068.574,3.26.562,4.65a114.238,114.238,0,0,0,.705,16.454c-4.361-3.375-8.3-7.659-12.183-11.594-4.07-4.126-9.312-6.851-13.172-11.22a75.4,75.4,0,0,1-8.856-13.207c-1.13-2.015-3.283-4.583-3.36-6.938-.084-2.539,1.074-5.227,1.087-7.857.009-1.861-1.693-6.474-.977-7.935Zm52.362,56.862c-.265,1.682-.054,5.288-2.393,5.65-1.611.25-2.6-1.279-3.192-2.56-1.783-3.871-1.193-9.032-1.859-13.19-.787-4.908-.8-9.748-1.413-14.664-.536-4.334-2.324-9.8-1.349-14.074.884-.022,3.27,8.337,3.785,9.662,1.061,2.729,2.281,5.025,3.2,7.855a66.253,66.253,0,0,1,2.829,11.246c.394,2.755,1.87,7.65.395,10.076Zm12.943-18.48a48.814,48.814,0,0,1-7.619,9.749c0-1.582-1.182-6.722-.38-7.944.954-1.456,6.372-1.523,8-1.8Zm-84.7-133.5c1.855-.842,3.925-1.108,5.8-1.978a13.655,13.655,0,0,1,5.1-1.5c6.9-.566,13.926,1.2,20.311,3.132,3.514,1.063,6.286,3.392,9.254,5.411a14.075,14.075,0,0,1,6.091,7.437,103.873,103.873,0,0,1,5.79,22.793c1.161,8.129-.724,16.345-.607,24.491.115,8.036.689,16.4,3.242,24.054,1.974,5.916,5.472,15.439,12.844,16.029,7,.56,12.92-6.656,15.812-12.073,7.65-14.322,10.523-30.694,10.939-46.767,1.08-5.379,1.7-11.179,3.57-16.337,2.081,3.255,3.779,6.749,5.693,10.1,2.1,3.683,1.965,6.688,1.783,10.872-.141,3.253-1.289,6.362-1.707,9.6-.482,3.74-1.367,7.387-1.579,11.165-.25,4.455,0,8.956-.377,13.4-.315,3.737-1.14,7.49-1.738,11.192a57.906,57.906,0,0,0-.568,10.726c.083,3.471,1.283,6.842,4.224,8.7-4.371,5.395-9.821,13.339-17.144,14.617a71.241,71.241,0,0,1-7.234.944c-2.021.148-4.384,1.282-6.127.022-3-2.169-3.592-7-4.726-10.166-.784-2.187-8.562-20.1-12.656-15.024-.729.9-.557,4.222-.668,5.5-.161,1.836-.087,3.7-.146,5.545a70.136,70.136,0,0,0-.12,7.067c.1,1.414.948,2.939-.653,3.28-1.482.315-4.606-2.629-5.685-3.391-1.447-1.023-3.007-1.791-4.473-2.777a30.89,30.89,0,0,1-7.549-7.467,49.865,49.865,0,0,1-5.542-9.5c-.742-1.686-1.348-3.412-1.967-5.144a19.506,19.506,0,0,1-.868-2.3c.164-.488,2.137-1.3,2.625-1.683,5.569-4.395,6.684-15.324,5.2-21.716-.9-3.868-3.859-7.266-5.965-10.559a106.437,106.437,0,0,1-5.871-9.681c-1.86-3.729-3.3-7.645-4.966-11.458-.8-1.841-1.771-2.788-.568-4.473.737-1.033,2.262-1.457,2.918-2.588s.729-3.334-.46-4.147c-1.3-.891-3.191.353-4.382.838-1.59.647-3.179.96-4.8,1.457-1.842.565-3.5,1.815-5.457,1.815,1.052-3.622,5.6-3.279,7.07-6.647,1.007-2.3.876-6.585-2.265-6.965-1.783-.215-3.19,1.145-4.515,2.058a11.308,11.308,0,0,1-5.107,1.8c-.753.139-1.975.845-2.689.6-1.158-.388-.49-.149.117-1.1.9-1.416,3.034-2.8,4.324-3.832,2.9-2.324,6.916-4,9.427-6.7,1.66-1.786,2.475-7.791-.678-8.749-1.265-.385-3.322.869-4.561,1.253-2.094.648-4.228,1.164-6.294,1.9-3.67,1.313-7.194,2.872-10.918,4.05,2.121-3.02,6.15-5.624,9.495-7.143Zm124.107-.885c0,2.075.792,6.021-.1,7.907-.806,1.7-5.7,2.646-7.427,3.295-5.6,2.1-11.145,4.442-16.866,6.183,5.895-8.731,14.656-13.8,24.394-17.385Zm-.825-28.192c-1.45,2.082-3.971,4.906-6.92,3.922-3.179-1.061-5.669-5.929-4.045-9.018,1.388-2.639,5.347-4.294,7.793-2.215.533.454.881,1.614,1.391,1.968.328.227.848-.381,1.248-.138,1.183.718,1.638,2.471,3.344,2.324.789-.067,3.32-2.13,3.837-2.657,1.386-1.411.9-2.858,1.122-4.713.3-2.555,2.065-2.947,4.094-4.266,1.931-1.256,3.484-3.128,5.4-4.338,2.281-1.444.974.387,3.058.568.376.033,1.215-1.216,1.868-1.2.845.027,1.213.59,1.7,1.2,1.05,1.334.278,1.752,2.107,2.063,1.321.224,2.139-.735,3.268-.716.924-1.046,2.292-3.23,3.943-2.585,1.118.437,1.518,2.779,1.758,3.757.908,3.707.84,8.064.873,11.866-2.124-1.491-2.4-2.493-3.063-4.9-.431-1.562-1.473-3.857-2.609-1.511-.323.665-.046,1.687-.259,2.418-.247.849-.84,1.267-.932,2.192-.223,2.245,1.616,3.015,3.2,4.108-1.481,1.6-5.741.391-4.6,3.8,1.2,3.6,5.816,1.607,8.118.7,1.962,7.438-6.756,11.022-12.069,13.056-3.119,1.194-4.339,1.86-4.768,5.5a19.213,19.213,0,0,0,1.2,9.234,30.582,30.582,0,0,0,1.523,3.848c.531.916,1.588.98,1.944,1.491,1.313,1.885.368,5.977.214,8.24-.42,6.188-2.348,11.824-3.177,17.862-.425,3.089-1.7,5.98-2.243,9.033-.5,2.8-.7,5.445-3.058,7.447-4.743,4.024-8.411-1.919-10.054-5.825-2.341-5.564-2.574-12.877-2.188-18.811.42-6.45,3.371-12.646,3.527-19.048a71.745,71.745,0,0,0-2.58-19.966c-.748-2.893-1.839-5.483-2.762-8.281-.756-2.287.495-4.352-1.187-6.43ZM233.519,10.4a.067.067,0,0,0,0,.015c-.03-.034-.06-.066-.093-.105a.568.568,0,0,0,.091.09Zm.141-.641a7.766,7.766,0,0,0-.331-1.365c.257.158.548.291.558.456a1.413,1.413,0,0,1-.227.909Zm7.041,1.221c-.049.028-.1.059-.147.086a.732.732,0,0,1-.3-.064.818.818,0,0,0,.112.016,1.03,1.03,0,0,0,.338-.038Zm3.681-1.213a4.781,4.781,0,0,0-2.124.267,2.1,2.1,0,0,1,.368-.183,6.227,6.227,0,0,1,1.756-.084ZM207.053,190.7c.142-3.1.139-4.027,2.573-6.024,2.029-1.665,3.992-3.412,6.041-5.052,4.539-3.632,9.389-7.478,14.549-10.19,2.891-1.519,10.781-4.581,8.788,1.417-1.882,5.661-5.513,10.689-8.638,15.717-3.186,5.127-6.374,10.257-9.684,15.3-1.441,2.2-2.959,4.349-4.337,6.583-1.356,2.2-1.5,3.683-4.276,2.772a64.675,64.675,0,0,1-6.209-2.33c-1.674-.756-1.574-1.218-1.62-3.185,1.037-5.085,2.572-9.748,2.813-15.011ZM220,128.721c-.7,2.833-5.75,3.171-8.473,3.72-.468.094-2.839.861-3.282.6-.873-.519-.444-2.021-.816-2.748-2.038-3.981-2.068,1.108-2.649,2.307-1.589,3.283-4.024-3.29-4.916-4.9-.687-1.239-1.423-1.868-.712-2.908.592-.866,3.887-1.46,4.9-1.834q5.534-2.044,11.048-4.14c1.584-.6,6.462-3.731,6.408-.72-.526,3.464-.665,7.235-1.507,10.624Zm-2.758,33.834c-1.552.482-5.768,2.417-7.338,1.5-1.326-.77-.41-3.469-.261-4.874a51.8,51.8,0,0,0,.09-8.185c-.222-3.924-.548-4.233,3.323-5.288,1.5-.408,6.063-2.618,7.174-1.372.519.582.3,2.432.414,3.137a22.264,22.264,0,0,0,1.23,4.458,36.4,36.4,0,0,0,3.841,6.94,37,37,0,0,1-8.473,3.681Zm-8.765-27.742c.671-.964,4.007-1.1,5.109-1.334q2.923-.618,5.849-1.232c.105,2.375,1.447,8.576-.261,10.289-.96.964-4.173,1.212-5.532,1.547q-2.223.547-4.45,1.08c-.169-2.288-.308-4.578-.552-6.861-.089-.839-.708-2.706-.163-3.49Zm.385,31.349c1.026-1.181,3.8-1.146,5.344-1.507a44.752,44.752,0,0,0,7.113-2.332c1.3-.544,3.866-2.406,5.305-1.934.4.132,1.247,1.792,1.553,2.1a12.016,12.016,0,0,0,1.81,1.317,10.449,10.449,0,0,0,4.668,1.915c-10.333,4.237-18.635,11.776-27.182,18.731-.606-.508-.27-5.055-.2-6.1.124-1.936.207-3.9.352-5.838.119-1.6.15-5.1,1.239-6.357Zm31.379,41.224c-.312,1.763-.359,4.185-1.115,5.814-.693,1.492-.608,1.388-2.452,1.433-2.329.057-5,.447-7.255-.262,2.014-4.447,3.689-9.279,6.444-13.337.865-1.274,2.537-4.535,4.347-4.341s1.417,2.017,1.273,3.335c-.269,2.461-.811,4.921-1.242,7.358Zm9.071-69.367c1.4-9.593,1.281-18.972,1.281-28.633,2.232.3,4.69.11,6.842.741-.695,2.215-2.7,4.213-.715,6.316,2.013,2.136,6.708,3.073,9.43,3.86a87.9,87.9,0,0,0,9.713,2.6,13.178,13.178,0,0,0,4.561.2c2.352-.452,2.56-1.076,4.105,1.347.008.013.022.033.03.047a2.864,2.864,0,0,0-1.486-.091c.055.2.138.39.187.57a4.811,4.811,0,0,0-1.468-.655c-1.538-.27-3.489.42-4.971.761a90.719,90.719,0,0,0-9.834,2.74,76.312,76.312,0,0,0-7.972,3.283c-1.994.97-6.6,2.678-7.228,5.054-1.206,4.555,10.828,8.016,13.763,9.559,2.772,1.456,1.9,3.616,1.928,6.509.034,3.142.318,6.255.1,9.39-.169,2.429-.355,2.053-2.778,2.01-1.815-.033-3.63-.106-5.443,0a25.189,25.189,0,0,0-7.586,1.437c-3.592,1.391-10.49,8.016-3.616,10.034,2.83.831,6.48.527,9.382.327,2.516-.174,6.459-1.319,8.886-.454q1.9-.538,1.37,1.38l.175,2.629q.176,2.646.352,5.291.36,5.413.719,10.828c-2.109-2.99-5.011-8.887-9.506-8.214-3.858.578-6.139,6.561-7.381,9.648a63.672,63.672,0,0,0-2.345,7.748c-.656,2.511-.9,6.061-2.1,8.336-1.181,2.241-2.824,1.489-5.243,1.719-3.025.288-1.805-1.4-1.325-3.975.732-3.916,3.324-10.671.825-14.32-3.191-4.658-7.7,3.973-8.923,6.3a61.615,61.615,0,0,0-3,6.737c-.567,1.484-1.025,4.689-2.486,5.5-1.791,1-4.63-.6-6.274-1.116a58.147,58.147,0,0,0-6.026-1.266c5.647-8.841,11.52-17.548,17-26.493,2.739-4.472,6.194-9.167,7.7-14.226a7.157,7.157,0,0,0,.519-2.893c-.1-.869-1.408-2.237-1.325-2.841.123-.895,1.919-1.642,2.759-2.582,2.918-3.267,3.651-7.155,4.557-11.308.986-4.52,2.181-9.266,2.846-13.832ZM260.342,110.6c4.3-.927,9.189,1.545,12.785,3.539,2.373,1.317,8.706,4.068,8.95,7.292-.066-.875-5.89-.329-7.041-.3a72.174,72.174,0,0,1-14.76-4.625c-1.672-.773-3.636-1.531-3.027-3.516a4.089,4.089,0,0,1,3.092-2.389Zm-4.989,63.418c-2.72-.156-12.591-.05-7.623-4.978,3.11-3.087,8.838-3.757,12.975-3.773a41.457,41.457,0,0,1,4.415.262l1.212.144q1.851-.368,1.156,1.531c.221.741.575,5.134-.075,5.752-.863.819-3.612.458-4.625.537-2.486.194-4.939.54-7.434.526Zm14.438,37.341c-7.154,1.066-14.3,2.425-21.548,2.538a94.72,94.72,0,0,1,4.315-15.6c1.26-3.219,3.548-10.168,7.956-9.825,3.519.272,7.626,6.3,8.607,9.383,1.279,4.016.67,9.327.67,13.5Zm18.371-80.368c-.143.733-3.353,2.051-4.04,2.449a35.745,35.745,0,0,0-12.327,11.991c-.33-1.871-.277-5.42-1.845-6.749-2.76-2.34-2.193,2.9-2.523,4.5-.31,1.5.075,1.259-1.22,1.393-1.149.118-4.08-2.033-5.14-2.575-2.93-1.5-5.737-3.129-8.552-4.83,2.331-3.852,9.207-5.62,13.122-7.161a77.839,77.839,0,0,1,17.128-4.264c1,.518,1.125-.648,1.87-.909a.29.29,0,0,0,.057-.158c.875,1.3,3.683,5.218,3.47,6.309Zm7.285,51.907c2.772,12.733,3.462,25.98,6.962,38.56,3.328,11.958,6.283,23.864,10.128,35.659,2.215,6.8,4.27,13.658,7.231,20.183,2.064,4.55,3.7,14.256,8.732,16.386,3.293,1.394,4.752.159,4.4-3.179-.305-2.905-1.811-4.73-3.055-7.24-.434-.873-1.843-3.34-1.69-4.267.191-1.153.484-1.029,1.686-1.6a42.7,42.7,0,0,1,7.815-2.731c-1.1,1.7-3.286,4.132-3.462,6.211-.146,1.716,1.087,4.864,2.792,5.522,1.611.623,3.507-.689,4.887-1.49a29.413,29.413,0,0,1,4.877-1.842c-2.24,3.228-5.91,5.8-4.339,10.239,1.676,4.737,6.877.863,10.2.328-.95,3.67-5.165,7.854-8.2,9.9a61.235,61.235,0,0,1-6.428,3.717,28.733,28.733,0,0,0-2.733,1.2c-.3.195-.792,1.021-1.061,1.15-3.772,1.822-8.918,2.287-13.023,3.163a48.15,48.15,0,0,1-13.07.977c-3.852-.185-8.119-2.551-11.337-4.538-2.448-1.51-2.8-3.356-3.567-6.023-1.262-4.419-2.393-8.867-3.6-13.3-1.04-3.823-1.523-7.5-2.227-11.376-1.491-8.221-2.178-16.573-3.779-24.78a177.831,177.831,0,0,1-2.56-24.743c-.211-4.013-.865-8.107-1.064-12.042-.162-3.2-.107-6.422-.09-9.715.013-2.313-.807-4.626-.751-6.948a44.786,44.786,0,0,0,.021-5.977c-.462-4.419-.824-8.786-1.171-13.212-.678-8.627-2.672-17.14-3.467-25.73-.344-3.715,3.733-7.278,6.5-9.442,2.944-2.305,5.307-5.544,8.546-7.358,1.2,14.9,2.71,29.721,5.893,44.339ZM246.654,342.192q-4.791,2.135-9.584,4.272c-2.349,1.045-5.431,3.194-8.013,3,1.835-2.487,2.992-5.331,4.949-7.745s3.567-4.973,5.335-7.521a98.5,98.5,0,0,0,7.313,7.995Zm.68-12.5c4.832-2.549,11.7-7.393,17.363-6.479a19.221,19.221,0,0,1,11.165,6.935c1.156,1.542,2.311,2.982,3.633,4.494,1.212,1.386,1.834,1.206.774,2.651-.815,1.112-2.736,1.864-3.986,2.294,0-2.432.757-4.871-2.166-4.63-1.153.095-2.5.37-3.647.558-.991.162-1.564.591-2.408.791a20.386,20.386,0,0,1-2.91.035,30.672,30.672,0,0,0-4.417,1.108,83.78,83.78,0,0,0-8.877,2.694c-1.4-2.146-2.582-4.724-4.489-6.478-2.131-1.961-3.04-2.388-.035-3.972ZM205.877,8.426a1.835,1.835,0,0,0,1.352-.939c-.627,1.053-1,1.1-1.352.939ZM191.39,10.1a6.548,6.548,0,0,1,1.582.445,3.638,3.638,0,0,1,.949.673c-.114-.05-.238-.1-.377-.161-.6-.252-1.376-.708-2.154-.957Zm-9.66,79.821c-.038-.051-.074-.1-.11-.145.037.047.072.094.111.145Zm-1.878.273a.966.966,0,0,1-.445-.327.966.966,0,0,0,.445.327,1.31,1.31,0,0,0,.386.074,1.31,1.31,0,0,1-.386-.074Zm-.751-1.537a3.008,3.008,0,0,0,.051.592,3.008,3.008,0,0,1-.051-.592Zm2.274.832c-.045-.048-.09-.093-.135-.134.045.042.09.087.135.134Zm-.387-.337a1.884,1.884,0,0,0-.219-.13,1.884,1.884,0,0,1,.219.13ZM261.323,12.2a1.225,1.225,0,0,0,.278.048.452.452,0,0,1-.278-.048Zm2.485,1.665a2.009,2.009,0,0,1-.573-.83.968.968,0,0,0,.155.078l.27-.268a.713.713,0,0,0-.072.657c.464.97,1.03-.5,1.729.225a9.532,9.532,0,0,0-1.51.138l-2.421,3.323c1.092.545,1.435-.128,2.045.866a1.1,1.1,0,0,1,.079.322c-.254-.725-.916-.585-2.124-1.188l2.421-3.323ZM265.9,16.3a.422.422,0,0,0,.149-.235,1.251,1.251,0,0,0,.039-.239,1.251,1.251,0,0,1-.039.239.422.422,0,0,1-.149.235.521.521,0,0,1-.193.084.521.521,0,0,0,.193-.084Zm.229-1.177c-.01.145-.017.275-.022.391.005-.117.011-.247.022-.391Zm-1.194,2.95a1.414,1.414,0,0,0,.115.176,1.538,1.538,0,0,1-.115-.176Zm-1.213,4.359c-1.154-.618-.152-1.4-.1-2.346,0-.084.006-.156.009-.234.007.23.009.417,0,.51-.078,1.342-1.03,1.715.7,2.122a2.455,2.455,0,0,0,.446.049,2.147,2.147,0,0,1-1.057-.1ZM281.613,32.4c-.072-.549,2.494-1.746,2.824-1.893-.406.181-2.893,1.373-2.824,1.893Zm2.918-4.858c-.017-.007-.037-.009-.054-.017a1.16,1.16,0,0,0,0-.118.407.407,0,0,0,.054.135Zm1.366,4.431c.014-.06.042-.219.072-.408.045.234.1.454.142.645a1.8,1.8,0,0,0-.214-.237Zm-1.993-.034c0-.93.29-.731.471-.7-.165.249-.472.3-.471.7ZM281.2,33.985a.855.855,0,0,1,.706.281c-.456-.121-.831-.257-.706-.281ZM279,39.3c-.043.015-.08.024-.12.035.039-.011.077-.021.12-.035Zm.222-.08c-.03.012-.056.02-.085.031.029-.01.055-.019.085-.031Zm-.416.136a1.457,1.457,0,0,1-.158.031,1.457,1.457,0,0,0,.158-.031Zm1.693,32.141a.79.79,0,0,1,.635-.286,1.041,1.041,0,0,0-.68.832.547.547,0,0,1,.045-.547Zm2.018-5.945a.28.28,0,0,0-.058-.015c-.565-.044-.811.322-.872.88.038-.487.2-.885.623-1.014-.022-.044-.041-.085-.062-.128a2.77,2.77,0,0,0,.368.277Zm-.67,3.01c-.012-.066-.026-.139-.041-.214.063.266.135.531.209.785a3.944,3.944,0,0,1-.169-.571Zm.492-9.256a1.1,1.1,0,0,1-.152.056,1.035,1.035,0,0,0,.152-.056Zm.138-.082a.721.721,0,0,1-.107.064.85.85,0,0,0,.107-.064Zm-.317.146a1.517,1.517,0,0,1-.215.042,1.472,1.472,0,0,0,.215-.042Zm.58-6.757c.007.25.009.5.016.735a2.6,2.6,0,0,1-.016-.735Zm111.98,333.251c-1.543-1.388-6.712-1.479-8.765-1.869,4.441-4.249,7.779-14.99-.7-16.369-1.878-.3-2.409.419-2.84-1.708-.263-1.3.274-2.5-.373-3.8-1.535-3.082-7.369-2.738-10.284-3.182.7-2.448,2.4-6.82-.169-8.807-2.029-1.567-6.254.525-8.41,1.2-5.827,1.814-11.746,3.884-16.662,7.537a95.99,95.99,0,0,1-6.354-9.123c-1.763-3.067-2.854-6.459-4.512-9.581s-3.424-6.824-5.745-9.516c-1.964-2.279-4.658-2.5-7.25-3.592-6.575-2.759-12.272-2.6-19.143-1.581S290.686,330.5,284.87,334c-2.283-7.7-7.564-16.062-15.749-18.436-3.673-1.066-7.539-.038-10.9,1.638-4.162,2.076-7.434,5.606-11.5,7.572,4.641-7.944,10.5-15.417,15.6-22.919,2.8-4.115,6.331-7.788,9.063-11.981a91.1,91.1,0,0,0,6.857-13.692c1.707,4.354,2,8.935,3.563,13.3,1.439,4.011,2.425,8.126,4.061,12.07a87.716,87.716,0,0,0,5.527,12.013c1.317,2.187,4.563,9,6.957,4.628,5.325,3.6,10.465,5.769,17.125,5.611a47.6,47.6,0,0,0,9.364-.851c2.964-.693,5.8-1.626,8.742-2.291,2.331-.526,4.461-1.948,6.58-3a27.6,27.6,0,0,0,6.737-5.3c2.331-2.366,4.74-4.645,7.083-7,2.319-2.327,2.152-4.7,3.392-7.594,1.295-3.017,1.85-5.684.138-8.729-1.254-2.231-3.475-1.923-3.994-4.182-.493-2.143-.013-4.164-1.359-6.13-1.022-1.492-4.7-2.489-4.71-4.013-.01-1.259,1.3-2.373,1.245-3.883a11.29,11.29,0,0,0-1.431-4.658c-1.362-2.145-3.436-2.219-5.775-1.563-5.652,1.585-11.193,5.658-15.08,9.936-5.329-14.6-9.526-29.513-13.424-44.441-1.722-6.594-3.071-13.275-4.165-20-1.084-6.657-2.726-13.364-3.459-20.056-.44-4.013-1.674-7.769-2.252-11.734-.478-3.283-.8-6.591-1.267-9.875-1.04-7.277-2.485-14.443-3.61-21.7-.621-4.012-2.023-7.522-3.1-11.385-.926-3.313-1.477-6.146-3.024-9.276-2.951-5.969-5.985-13.282-11.718-17.075-5.1-3.374-10.043-6.193-16.257-6.884-3.645-.406-6.582.451-10.146.845-3.156.348-5.858,2.092-8.937,2.721,0-2.925-.286-3,2.384-4.045,1.538-.6,3.038-1.258,4.6-1.779a14.793,14.793,0,0,0,4.308-2.094c1.661-1.192.614-.813,2.6-.4,3.138.649,2.213-.1,4.277-1.667,1.2-.91,2.427-.355,3.833-.173,1.311.17,3.47.749,4.47-.431.761-.9-.069-2.438.492-3.414.885-1.541,3.423-1.47,4.778-2.505,1.483-1.132,1.617-2.408,1.3-4.148-.223-1.2-2.122-3.881-2.015-4.918a.92.92,0,0,1,.9-.949c3.712.187,3.533-.372,2.628-3.661-.054.487-.086.9-.123,1.258a3.283,3.283,0,0,1,.123-1.258c.1-.2.443-.335.758-.5-.083.082-.17.166-.272.26.159.7.205,2.526.876,3.023.48.356,2.165.319,2.5-.275.711-1.242-1.734-1.947-1.83-2.869,2.808-.235,1.85-1.6.382-3q-.087-.575.669-.544a1.526,1.526,0,0,0-.871-.459.706.706,0,0,0,.509-.256.783.783,0,0,0,.061-.538c.054.163.1.3.137.411,2.422.978,1.177-4.21.173-5.094q.116-2.158.23-4.317a3.315,3.315,0,0,0-1.4,1.908c.025-.685.424-1.267,1.4-1.908-1.557-.685-1.71-.769-.038-.915,1.386,1.264,1.192.215,2.051-.557-.052.046,1.3-1.422,1.209-1.2.641-1.587-.067-4.937-2.652-3.846,1.4,1.257-.005,1.488-.5,2.569-.017.037-.03.075-.043.113a1.634,1.634,0,0,1,.114-.369c.866-1.861,1.071-.432.118-2.55l0-.005a1.585,1.585,0,0,0,1.272-.163c.78-.953,1.016-.563,1.434-1.79.367-1.074.2-1.806-.535-2.206.083.022.167.046.251.067a1.577,1.577,0,0,0-.874-1.992q-.452.741-.9,1.484c.137.044.274.083.411.125h0c-.958-.111-1.346.061-1.49.5a.716.716,0,0,1,.049-.571c.116-.189.945.091,1.035-.057,1.485-2.434-.083-4.46-2.473-5.7-.907-.471-2.7-.487-3.017-1.589-.227-.779.9-2.663,1.117-3.586,1.667-.765-1.41-1.212-1.431-1.215-.092,1.089-.033,1.572.6,1.487-.634.086-.689-.4-.6-1.487a9.043,9.043,0,0,0,4.884-1c2.167.062,3.282.437,4.6-1.442-1.284-.533-2.8-.246-3.949-1.065.053.246.1.469.125.676a1.881,1.881,0,0,0-.608-.815c.189.162.091.213-.133.206a1.8,1.8,0,0,0,.133-.206c.078-.912.748-.54,1.427-.483a1.962,1.962,0,0,0-.259-.784,1.858,1.858,0,0,1,.259.784l1.29-.821a.632.632,0,0,0,.429-.282.029.029,0,0,1,0,.007c2.056.613,1.43-3.741.484-3.719a.765.765,0,0,0-.573.247,7.036,7.036,0,0,1,.263-1.421h0c.1-.256.192-.512.289-.768-.519.033-2.2-.968-2.226.226a1.225,1.225,0,0,0-.263-.6c.15-1.321-.628-1.209-1.833-1.578-.448-.137-.942-.995-1.446-.635-.758.541-.3,1.05.185,1.435a1.61,1.61,0,0,1-.645,1.076,1.9,1.9,0,0,0-.159-.131,1.948,1.948,0,0,0,.8-.946c-1.55-1.226-2.2-.424-3.4.563a2.622,2.622,0,0,0,1.553.63,1.792,1.792,0,0,0-.077.186,2.2,2.2,0,0,1-1.475-.816c1.266-1.048,1.153-1.69-.387-2.312-.521-.21-.851.257-1.494.01-.319-.123-.55-.68-.862-.865-2.331-1.379-5.13-.594-7.612-.921.311-.04.589-.079.8-.107a2.288,2.288,0,0,0-1.613-1.487q0-.731,0-1.463a1.482,1.482,0,0,0-.287-.035.631.631,0,0,0,.236-.6,1.179,1.179,0,0,1-1.434-.377c.652.832,1.921.4,2.309-.671.406-1.119-.464-1.871-1.222-2.7.018-.8-.322-1.085-.759-1.161.79-1.552.968-.782.119-2.723-.07-1.308-1.18-.833-1.928.007.079-.193.16-.391.236-.6L262.05,10.3c.15.478.48,1.328.046,1.734.288-.415.083-1.321-.046-1.734L259.887,9.1c.061.129.227.614.432,1.164a17.681,17.681,0,0,0-1.763-2.046,16.778,16.778,0,0,0-2.213-2.366c-2.448-.71-4.3,4.078-7.287,3.423-1.761-.386-.939-.842-2.6-.519-.911-1.184-6.858.678-7.086,1.8a1.161,1.161,0,0,1,.266-.045c-.671.24-1.254.61-1.9.86-1.628.628-.659.792-2.508-.265a1.832,1.832,0,0,0-1.109-.281c.8-.357,1.18-2.831,1.191-3.714.029-2.108-.25-1.738.572-3.249a4.423,4.423,0,0,0-1.7.1,3.439,3.439,0,0,0,.194-1.051A1.957,1.957,0,0,0,233.151.177c-1.926-.47-2.3,2.295-.908,2.748-1.335-.433-.8-2.182-2.617-2.419a1.764,1.764,0,0,1,1.7.855c.206-.414.411-.828.617-1.243-1.447-.151-2.116-.274-3.284.406a5.831,5.831,0,0,0-2.813,1.841c-2.351,2.2-4.461,4.351-6.625,6.74-1.112-2.284-2.34-3.947-4.144-1.391a31.371,31.371,0,0,0-3.794,8.177c-1.692-.777-.979-1.03-1.688-2.288.737,1.225-.013,1.507,1.688,2.288q.253-.8.507-1.606c-1.482-1.688-1.419-3.365-3.023-5.166-.178.577.334,1.4.423,1.919.1.577-.539.977-.394,1.6.6-.219.738-.087.757.153-.021-.239-.162-.37-.757-.153-.238-1.013.353-1.551.023-2.682a3.492,3.492,0,0,0-.56-1.114c1.021-1.707-2.28-2.889-3.049-1.874a1.821,1.821,0,0,0-.213.362c-1.289-.58-1.687.654-2.288,1.58q-.213.434-.429.87a13.827,13.827,0,0,0-2.034,2.78c-1.222,1.824-1.734,4.493-3.23,6.013.05-.979.584-3.149-1.174-2.274.58-.289.664-.64.536-1.047a2.024,2.024,0,0,0,.365.163l.743.072a3.833,3.833,0,0,0-2.014-3.035c0,.362-.011.735.012,1.091l-.018-.038c-.471-1.129-.271-1.461-.68-1.807a3.052,3.052,0,0,0,.57.077c-1.313-2.221-3.059-2.576-5.473-1.95.165.039.337.072.512.1a1.774,1.774,0,0,0-.785.17c-.938.456-2.324,3.08-2.975,3.989-2.29,3.2-3.356,7.124-4.554,10.824-.336,1.041-.848,3.481-2.149,3.831-1.513.406-3.115-2.059-4.447-2.882-4.261-2.636-6.38,2.1-7.036,5.852-.979,1.661-.753,2.942.659,3.729a3.892,3.892,0,0,1-.652-1.808c.187,1.067,1.077,1.437,1.238,1.894A15.26,15.26,0,0,1,169.9,37.6q1.092.815.164,1.2a8.121,8.121,0,0,0-1.063.867c-1.021,1.076-1.011,2.569-1.946,3.616-1.056,1.184-2.026.661-2.524,2.608-.854,3.335,1.25,8.37,5.036,8.69-.45,1.313-1.031,2.645-1.367,3.992-.446,1.792-.414,1.974.43,3.687-6.3-.936-5.8,5.73-2.216,9a7.362,7.362,0,0,0,2.879,1.6c.794.249,3.191.11,3.763.864,1.2,1.588-1.483,3.653-1.72,5.425a6.254,6.254,0,0,0-.026.855c-.992,1.213-.943,1.314.474,2.449.776,1,3.174.76,3.9,1.716,1.122,1.472-1.38,3.841-.126,5.56,1,1.366,2.037.515,3.633,1.094q1.159.53,2.317,1.062a2.766,2.766,0,0,1,1.187-.473c.9.454.041,1.253,1.178,1.521.591.186,1.955.894,2.552.527-.846.52-1.414,1.807-1.9,3.221a3.293,3.293,0,0,0-.719,2.213,10.554,10.554,0,0,1-.924,2.206c1.965.3,1.734,2.15,3.094,3.167,1.838,1.573,2.144.113,1.71-.655a4.683,4.683,0,0,1,.568.353c.037.026-.358.96.03,1.178.543.306.542,0,1.106-.007.531-.006,1.3-.8,1.951-.87.346-.035,1.366.437,1.578.3.588-.39.543-.818.314-1.335l.263.526c.633,1.654.952,1.282,1.912.808-.26.128.752-.627.961-.567-.473-1.312-2.349-1.173-3.5-1.5a25.176,25.176,0,0,1,2.594.506c1.127.485.771.979,2.105,1.13a7.827,7.827,0,0,0,3.258-.967.4.4,0,0,0,.086-.138l.623-1c.847.1-.07,1.4,1.259.883.993-.388.51-.927.194-1.516a1.376,1.376,0,0,0-.343-.429c1.373.328,3,2.176,4.878,1.658,1.057-.291,1.116-1.013,1.89-1.687,1.035-.9,1.355-.762,2.609-1.2a17.74,17.74,0,0,1,2.332-.982c1.244-.221.9-.084,1.931.44.616.313.967.9,1.746,1.015.711.1,1.827-.714,2.4-.489,1.565.612,1.167,2.809,1.256,4.257-7.923-2.521-17.184,1.509-23.016,7.044a61.161,61.161,0,0,0-4.021,4.912c-1.525,1.77-2.962,2.575-3.177,5.1-.185,2.175.8,3.481.022,5.57a59.848,59.848,0,0,0-2.1,5.884c-2.6,9.972-2.676,20.327-4.6,30.437A100.863,100.863,0,0,1,176.3,189.2c-1.941,3.975-3.569,6.409-7.827,8.085-3.444,1.355-5.966-.422-7.649-3.514-4.53-8.323-5.175-16.882-5.12-26.165.026-4.459.535-8.919.965-13.353a79.323,79.323,0,0,0-.208-13.477c-.641-9.2-2.741-17.09-5.9-25.742-1.5-4.1-2.761-8.1-6.367-10.774a56.969,56.969,0,0,0-6.418-4.658c-1.894-1.034-3.022-1.969-5.183-2.432a41.736,41.736,0,0,1-4.088-1.217,34.511,34.511,0,0,0-10.38-1.352c-7.93.027-16.634,2.7-23.773,6.12-3.554,1.705-7.414,4.244-9.756,7.477a22.655,22.655,0,0,0-2.28,4.317c-.785,1.795-.539,2.123-2.2,2.06-1.042-.039-2.207-1-3.4-1.054a10.514,10.514,0,0,0-3.479.736,15.034,15.034,0,0,0-4.366,1.7c-3.33,2.151-6.147,5.577-8.692,8.568C55.517,130,51.3,136.129,46.944,141.7c-4.292,5.488-9.506,10.359-16.173,12.847-2.543.949-5.359,1.141-7.956,1.908-1.139.337-2.519,1.231-3.713,1.216-1.876-.024-1.732-.943-2.381-2.432a13.5,13.5,0,0,0-3.285-4.466C7.244,144.914-.457,153.6.021,160.291c.28,3.909,3.21,6.488,3.107,10.325a27.875,27.875,0,0,0,1.4,10.638c1.437,3.821,4.971,7.783,8.088,10.383,2.887,2.408,6.5,2.919,10.14,3.322a41.678,41.678,0,0,0,5.009.651c1.381-.026,2.637-.584,4.047-.527a12.58,12.58,0,0,0,5.915-.768,12.573,12.573,0,0,1,4.972-.939c0,3.815.242,7.546.57,11.347.043.5.39,1.806.159,2.253-.285.552-.623.188-.978.585a11.1,11.1,0,0,0-2.094,2.644,17.046,17.046,0,0,0-1.594,10.92c.532,2.952,2.268,4.168,1.857,7.3-.483,3.685-1.38,7.446-1.553,11.155a26.54,26.54,0,0,1-.478,4.822,18.813,18.813,0,0,0-.886,3.8c.037.622.7.9.7,1.467,0,.5-.573.431-.612.857a31.571,31.571,0,0,0-.163,3.74c.036,1.747-.134,3.484-.069,5.231.05,1.33-.26,4.481,1.234,3.962a7.647,7.647,0,0,0-.544,2.749.861.861,0,0,1-.021-.269,6.365,6.365,0,0,1,.565-2.48l-.852.3c-.521,1.345.119,2.663.262,4,0,.134-.009.268-.018.4a42.129,42.129,0,0,0,.172,5.788c.332,4.43.488,9.367,1.686,13.348,1.313,4.363.893,9.847,1.4,14.652.579,5.5,1.519,10.911,2.219,16.39.625,4.893.927,10.2,2,14.966a109.885,109.885,0,0,1,2.095,11.8c.653,5.688,2.728,10.02,5.013,15.188.966,2.187,1.032,2.152-.741,3.75-.743.669-1.373,1.452-2.13,2.106a9.3,9.3,0,0,1-5.161,2.309c-4.9.58-9.848,2.322-12.6,6.546-2.66,4.083-.936,8.867,1.054,13.027-2.627.223-9.732.062-8.07,4.848,1.136,3.272,7.195,2.176,9.871,2.212,3.91.053,7.848-.139,11.724-.193,1.764-.025,1.944-.207,3.663.466a9.606,9.606,0,0,0,4.607.588c1.866-.122,3.73.153,5.538-.116a16.249,16.249,0,0,1,5.986-.218,14.127,14.127,0,0,0,4.633-.069,51.315,51.315,0,0,1,5.452-.147c4.411-.118,8.788-.035,13.2.014,4.29.048,8.584-.538,12.845-.346,7.431.335,14.994.03,22.459.2,3.443.08,6.1,2.084,9.555,1.878,3.508-.209,7.064-.241,10.545-.731,5.993-.844,11.768-2.039,17.857-2.35,3.849-.2,7.231,1.46,10.852,2.5,1.312.377,2.492.2,3.719.48,1.157.263,2.344,1.019,3.567,1.333a36.768,36.768,0,0,0,8.2,1.092q.494.914,1.14.223l.524-.3c.811-.108,1.389-.474,2.241-.527,1.312-.084,2.654.095,3.871-.022a37.315,37.315,0,0,1,7.76-.117c1.671.172,3.135-.071,4.78-.04-.019,0,2.257.444,2.309.424.2-.078.52-.64.652-.665q-.071-.807.487-.729.447-.1.59.467a3.476,3.476,0,0,0,.765.423c.046.007,2.1-.236,2.248-.29.589-.222.841-.863,1.311-.96.557-.114.89.5,1.373.475,1.065-.058.94-.532,1.758-.68,2.874-.518,6.392.155,9.36.16s5.9-.266,8.747-.391c3.5-.154,6.932.511,10.46.038,3.356-.449,6.713-.644,10.094-.787,7.065-.3,14.316.017,21.316-.814,7.289-.864,14.7,0,22-.13,7.7-.138,15.435-.207,23.13-.523,7.658-.314,15.285-1.226,22.913-1.409,1.94-.047,3.846-.509,5.78-.65,1.77-.128,3.511.153,5.294,0,3.25-.284,6.206-.066,9.472-.116,3.652-.056,7.2-.613,10.834-.837,3.672-.227,7.309.292,10.952-.432,1.991-.4,5.705-3.124,3.164-5.409Z" transform="translate(0 0)" fill="#2d3748" fill-rule="evenodd"/><path d="M438.509,106.71H438.5l-.056.064Z" transform="translate(-187.998 -45.377)" fill="#2d3748" fill-rule="evenodd"/><path d="M490.195,74.289c.464-1.614-.712-2.77-1.5-4.023-.464,2.844-1.888,2.721,1.5,4.023" transform="translate(-209.259 -29.879)" fill="#2d3748" fill-rule="evenodd"/><path d="M343.464,182.682c.012.033.028.062.037.1.013-.057,0-.086-.037-.1" transform="translate(-147.273 -78.332)" fill="#2d3748" fill-rule="evenodd"/><path d="M320.23,178.249c.105.238.337,1.881.5,1.889,1.489.071-.325-2.709-1.277-2.872-1.377.889.806,1.056.774.983" transform="translate(-136.79 -76.014)" fill="#2d3748" fill-rule="evenodd"/><path d="M319.725,161.415c-.1-1.256-.521-1.415-1.724-.8.359.79.787.676,1.724.8" transform="translate(-136.36 -68.722)" fill="#2d3748" fill-rule="evenodd"/><path d="M292,107.278l1.724.287-1.013-2.3L292,107.278" transform="translate(-125.211 -44.763)" fill="#2d3748" fill-rule="evenodd"/><path d="M312.5,547.757s0,0,0,0c-.042.016-.048.019,0,0" transform="translate(-133.984 -234.87)" fill="#2d3748" fill-rule="evenodd"/><path d="M106.169,266.421c1.217-2.036,3.526-4.55,6.153-3.7,2.454.791,3.134,4.009,4.192,6.033,2.058,3.936,2.7-.29,3.155-2.678-.372-4.784-2.233-12.57-8.529-11.745-4.789.629-8.924,8.321-8.012,12.87.766,3.823,2.059.867,3.041-.775" transform="translate(-43.799 -109.064)" fill="#2d3748" fill-rule="evenodd"/><path d="M422.453,118.431c-2.351-.839-2.349,1.7-2.439,3.611-.083,1.755.188,5.871,2.4,6.5s2.415-3.01,2.757-4.48c-.514-1.745-.8-4.944-2.721-5.629" transform="translate(-180.111 -50.291)" fill="#2d3748" fill-rule="evenodd"/><path d="M423.048,110.791c-1.726-1.526-2.878-1.993-5.083-1.008-1.135.507-2.755,1.61-2.933,3-.555,4.329,6.495-1.105,8.016-1.993" transform="translate(-177.978 -46.463)" fill="#2d3748" fill-rule="evenodd"/><path d="M428.085,153.733c4.022,1.039,4.279-4.458-.194-4.467-2.993-.006-2.053,3.887.194,4.467" transform="translate(-182.684 -64.01)" fill="#2d3748" fill-rule="evenodd"/><path d="M374.8,127.288c-1.5.22-2.031,1.162-1.709,2.665.371,1.735,1.312,1.749,3,1.911,4.058.013,1.41-4.969-1.286-4.576" transform="translate(-159.956 -54.118)" fill="#2d3748" fill-rule="evenodd"/><path d="M438.056,109.474c.371,1.03,2.388,1.495,3.442,1.1,1.254-.467,1.514-1.6.382-2.645-.968-.893-2.3-.658-3.518-.574.041.39-.537,1.477-.306,2.117" transform="translate(-187.828 -45.613)" fill="#2d3748" fill-rule="evenodd"/><path d="M217.473,312.715c1.918,0,.108-3.247-1.472-3.449.033,1-.033,3.451,1.472,3.449" transform="translate(-92.623 -132.619)" fill="#2d3748" fill-rule="evenodd"/></g></g></g></svg>