<svg xmlns="http://www.w3.org/2000/svg" xmlns:xlink="http://www.w3.org/1999/xlink" width="474.62" height="400" viewBox="0 0 474.62 400"><defs><clipPath id="b"><rect width="474.62" height="400"/></clipPath></defs><g id="a" clip-path="url(#b)"><g transform="translate(-644 -206)"><circle cx="184.055" cy="184.055" r="184.055" transform="translate(664.046 206)" fill="#deecfc"/><g transform="translate(644 223.312)"><path d="M176.923,74.584c-1.283.279-6.416,4.018-6.584,7.254s1.283,4.687,4.464,2.846,7.365-3.961,5.412-7.2S178.206,74.3,176.923,74.584Z" fill="#f6eb85"/><path d="M222.266,42.871c-1.076.159-5.061,0-5.061,0L208.28,45.1s-4.94,1.116-5.1,2.391a34.262,34.262,0,0,1-2.391,6.056c-.478.956.638,9.4,4.144,11s6.535-4.622,7.81-7.49-.956-7.171,5.9-7.171,7.968-.638,7.968-.638Z" fill="#f56565"/><path d="M619.7,138.813c2.4,7.844,3.433,15.513,5.447,23.415,2.218,8.7,4.556,17.743,7.593,26.185,5.674,15.778,14.936,26.435,23.667,40.933,6.811,11.31,25.64,49.538,29.143,55.568,2.188,3.768,3.594,9.324,5.1,13.415.851,2.315,1.765,8.159,1.361,10.535-6.567-.733-13.549-1.534-19.975,0-2.09.5-9.261,4.8-11.276,4.3-2.222-.555-.907-3.927-1.749-5.98-2.39-5.825-5.061-11.777-6.807-17.805-1.784-6.162-13.714-44.372-20.469-56.789-3.472-6.381-6.07-12.818-9.94-18.966-4.025-6.394-7.361-12.529-13.969-16.578.685-5.538,3.841-11.58,5.669-16.869a68.628,68.628,0,0,0,3.286-15.207c.623-5.237,2.616-10.364,1.854-15.7-.4-2.776-2.215-4.635-2.887-7.09-.387-1.413-1.43-.17.045-1.943C616.477,139.4,618.822,139.4,619.7,138.813Zm-5.512,4.091c1.142,6.209-2.622,14.764-3.973,20.888-1.415,6.414-3.107,12.679-4.632,19.049-.756,3.159-2.209,5.938-3.146,9-1.05,3.434-1.536,7.017-2.614,10.465-2.148,6.871-5.109,13.461-4.268,20.774.732,6.36,1.608,13.216,3.694,19.256,2.475,7.167,4.8,13.936,5.359,21.574.529,7.265-1.235,14.828-3.141,21.79-.675,2.465-5.767,20.34-7.311,20.083-1.175-8.1-7.452-16.032-11.5-23.054-4.651-8.076-11.462-15.067-18.208-21.5,1.894-.741,3.691-4.649,4.6-6.492,1.259-2.544,2.724-5.122,4.167-7.562,2.643-4.469,10.1-22.23,12.373-26.678,2.694-5.266,20.668-58.435,20.267-63.946-.179-2.463-.323-3.375.987-5.239C608.565,148.868,612.227,145.267,614.188,142.9Zm-41.615-2.464c0,2.452.221,2.9-1.242,4.541-1.238,1.39-2.841,2.394-4.043,3.9a60.652,60.652,0,0,0-6.974,10.888,85.327,85.327,0,0,0-7.424,24.705c-1.357,9.153-.568,18.542-1.166,27.753-.223,3.424-.812,7.467-3.083,10.223-2.032,2.466-5.729,4.272-8.524,5.682a57.031,57.031,0,0,0-16.66,12.832c-1.189,1.3-1.516,4.272-2.867,5.352s-5.511,4.329-7.108,5.041c-3.711,1.658-18.171.089-22.1-.6s-9.48-3.947-12.933-5.662q-7.351-3.65-18.564-15.479c21.169-8.089,45.593-15.717,64.5-28.67.107,1.542,2.8,5.8,3.072,4.533,1.767-8.127,2.952-16.363,4.7-24.488a37.142,37.142,0,0,1,1.761-6.359c.419-1.02-4.483-1.8-6.458-1.022-7.356,2.913-14.989,4.335-22.736,6.043-14.274,3.147-30.5,4.354-42.839,12.954a93.854,93.854,0,0,0-14.774,12.986c-4.74,5.141-9.146,13.618-9.795,20.776-8.569-3.861-19.769-2.194-28.6-1.394,3.205-8.073,13.651-16.033,20.094-21.534,5.321-4.546,10.527-9.254,16.4-13.116,13.1-8.617,26.308-16.775,41.418-21.654,7.478-2.415,14.947-4.853,22.732-6.105,4.244-.683,8.552-.892,12.819-1.322,4.163-.42,5.749-1.31,8.827-4.238,5.751-5.47,13.655-6.69,21.065-8.653C559.346,146.423,566.344,144.782,572.573,140.439Z" transform="translate(-227.26 -71.092)" fill="#2680eb" fill-rule="evenodd"/><path d="M297.417,232.706q.916.314.676-1.186-.917-.408-.676,1.186M509.384,80.466c-.968.089-.421,1.045.154,1.4q-.077-.7-.154-1.4m-56.4,140.553q.865-.663-.616-1.12-.842.685.616,1.12m-218.631-2.4c-3.136-.5-5.566-5.258-8.152-4.257-3.237,1.253-6.2,6.908-8.411,9.454,1.7,1.37,3.592,2.6,5.4,3.836,1.862,1.273,1.384,1.723,3.261.21,1.367-1.1,2.461-3.083,3.595-4.435,1.361-1.626,3.091-3.072,4.31-4.808m72.274,180.095c.556.047.932-12.484,1.382-14.209a48.393,48.393,0,0,1,4.676-11.124,56.517,56.517,0,0,0,2.922-4.872c.963-2.323-.6-3.91-1.035-6.577-.937-5.687.305-10.712,2.3-15.985-3.667-.834-7.2-2.206-10.933-2.779,0,5.032-.5,9.25-2.572,13.866-.519,1.156-1.565,2.095-1.117,3.51.145.46,1.426.76,1.734,1.183,1.727,2.386,2.005,4.282,2.1,7.257.312,9.994-.78,19.806.548,29.73M280.652,225.828c2.027,1.713,8.5-10.379,10.722-10.31,4.731.147-1.99,12.036-2.4,13.49,1.892-.674,3.682-4.959,4.694-6.62.868-1.423,4.057-8.412,5.879-8.843,3.553-.841,1.977,5.621,1.48,7.137-1.118,3.409-2.212,6.783-3.188,10.237,2.076-1.133,3.616-7.915,4.548-10.13,1.287-3.063,2.319-6.421,4.327-9.1,1.37-1.828,3.626-4.406,6.1-4.534,3.007-.157,4.138,3.048,6.847,3.648.362-6.83-.311-13.7.488-20.5a107.3,107.3,0,0,0-16,1.27c-2.973.513-4.947.493-6.412,3.274-1.135,2.156-2.021,4.408-3.094,6.6a171.041,171.041,0,0,1-13.983,24.391M213,200.338c-3.9,4.007-7.435,8.152-11.113,12.355s-8.817,6.917-12.3,11.268c-3.183,3.977-5.573,8.555-8.608,12.66a162.508,162.508,0,0,0-9,14.515c2.949.539,3.676.6,5.585-1.591,1.581-1.814,2.876-4,4.472-5.826a67.771,67.771,0,0,1,11.925-11.049,56.838,56.838,0,0,1,15.791-7.763c2.114-.646,2.891-.482,4.061-2.416.84-1.385,1.146-3.12,2-4.539,1.839-3.062,4.746-4.783,7.635-6.725-3.265-3.845-7.178-6.986-10.444-10.89M473.748,83.653c-1.071.8-1.214,3.812-1.707,5.062-.9,2.3-2.184,4.451-3.307,6.644-1.969,3.85-3.606,8.16-3.533,12.576.074,4.54,3.592,7.146,7.821,7.969,4.646.9,8.213-.922,12.3-2.876,4.052-1.94,7.4-5,10.62-8.1,2.551-2.449,4.177-6.438,7.069-7.812,2.745-1.3,6.116-2.459,6.942-6.331.564-2.645-.511-2.335-2.83-1.771-2.469.6-4.256,2.186-6.546,3.038,1.275-2.906,1.581-5.291.011-8.138-.9-1.64-2.6-4.354-4.653-4.419-1.353-.043-2.971,1.437-4.218,1.913-1.528.582-3.219.85-4.791,1.283a31.561,31.561,0,0,1-13.175.962m9.178,183.013c1.562.26,6.594-17.556,7.285-20.085,1.9-6.962,3.657-14.531,3.13-21.792-.556-7.658-2.918-14.383-5.34-21.578-2.045-6.071-2.937-12.881-3.681-19.257-.853-7.323,2.106-13.9,4.252-20.776.992-3.176,1.513-6.426,2.385-9.62.916-3.361,2.535-6.408,3.355-9.845,1.521-6.374,3.2-12.638,4.615-19.051,1.345-6.1,5.018-13.363,3.882-19.559-1.913,2.313-4.225,4.33-6.115,6.6-1.927,2.319-1.257,2.5-1.023,5.715.385,5.308-.731,11.474-1.967,16.631-2.578,10.752-7.135,20.516-10.461,30.947-1.709,5.364-2.389,11.41-4.807,16.473-2.168,4.539-5.168,8.574-7.467,12.959-2.521,4.807-5.472,9.346-8.228,14.022-1.305,2.215-2.663,4.384-3.822,6.682-.976,1.937-2.057,6.607-3.969,7.356a90.552,90.552,0,0,1,16.523,21.121c4.037,7.038,10.282,14.937,11.454,23.057m14.005-108.7c6.353,3.9,9.536,9.619,13.436,15.761s7.532,12.4,10.994,18.779a179.631,179.631,0,0,1,15.761,39.245c1.716,6.293,4.215,12.4,6,18.566,1.648,5.693,2.184,11.486,4.555,16.942.655,1.506,1.162,4.837,2.9,5.369,2.047.627,7.537-2.181,9.607-2.7a58.46,58.46,0,0,1,20.624-1.245c.4-2.374-2.322-7.058-3.172-9.372a98.3,98.3,0,0,0-4.548-11.517c-3.242-6.226-6.99-12.282-10.741-18.149-3.974-6.216-7.242-12.884-11.306-18.946-1.876-2.8-4.557-6.572-5.79-9.682a22.515,22.515,0,0,0-1.535-3.433c-.641-1.139-1.391-2.262-2.068-3.389A238.259,238.259,0,0,1,521.3,150.114c-3.007-8.471-5.52-17-7.9-25.669-2.237-8.147-2.66-16.55-5.145-24.67-1.462.979-3.913.842-3.868,2.783.009.381,2.058,3.1,2.283,3.627a15.772,15.772,0,0,1,.94,3.345c1.009,5.549-1.017,10.931-1.732,16.38-.692,5.274-1.316,9.591-3.114,14.539-1.947,5.358-5.134,11.9-5.828,17.516m-146.3,32.785c6.21,5.4,11.963,11.459,19.313,15.107,3.452,1.713,6.2,4.141,10.11,4.823s7.98.3,11.922.017c4.03-.286,7.675-.333,11.387-1.99,1.6-.712,4.025-1.4,5.389-2.491s2.2-2.83,3.39-4.132a57.04,57.04,0,0,1,16.66-12.821c7.127-3.593,11.071-7.671,11.606-15.89.6-9.2-.191-18.584,1.166-27.729A85.1,85.1,0,0,1,449,120.963a60.571,60.571,0,0,1,6.974-10.878c1.2-1.5,2.8-2.505,4.042-3.893,1.463-1.642,1.242-2.087,1.242-4.536-6.229,4.339-13.226,5.979-20.51,7.906-7.385,1.955-15.334,3.2-21.064,8.646-3.078,2.926-4.663,3.815-8.826,4.234-4.268.43-8.575.639-12.819,1.321-7.787,1.252-15.251,3.688-22.731,6.1-15.109,4.875-28.317,13.026-41.417,21.635-5.874,3.861-11.072,8.561-16.4,13.1-6.442,5.5-15.1,12.861-18.309,20.926,8.827-.8,17.79-3.346,26.356.511.651-7.169,5.513-14.144,10.257-19.286a96.773,96.773,0,0,1,14.5-12.782c12.318-8.777,28.745-11.052,43.084-14.21,7.752-1.708,14.977-3.039,22.338-5.951,1.864-.737,7.3-4.037,8.328-2.071.656,1.257-1.027,3.061-1.445,4.082a33.571,33.571,0,0,0-1.556,5.453c-1.892,8.395-3.07,16.95-4.9,25.367-.269,1.24-.628,6.846-2.856,6.084-1.485-.507-.108-9.067-.216-10.613-18.905,12.945-41.267,20.562-62.438,28.645m21.249,144.5c-4.2.181-8.48,2.442-12.553,3.47-5.49,1.387-11.252,2.8-16.334,5.286-2.705,1.324-2.731,2.1-1.99,5.115.582,2.372,1.253,4.668,1.743,7.082,1.215,5.991,2.573,11.908,4.085,17.829,15.648-13.056,35.621-20.44,55.14-25.471,2.762-.712,5.575-.931,8.375-1.418,2.452-.426,5.246-.122,7.571-.6,1.494-.311,2.844-1.317,4.371-1.67,3.3-.765,7.239-.827,10.417-2a128.649,128.649,0,0,0,13.218-5.791c4.593-2.34,8.29-4.049,9.225-9.081.742-3.99,2.6-7.719,3.18-11.636.753-5.108-.182-9.646-.5-14.752a185.671,185.671,0,0,0-5.453-35.284c-2.881-11.05-4.937-22.362-6.923-33.564-.387-2.183-1.16-4.194-1.666-6.341-.844-3.569-2.522-2.654-5.763-2.444-6.062.391-12.472-2.026-17.505-5.29-2.377-1.54-5.382-5.062-8.1-5.819-2.421-.675-4.893,2.6-7.2,3.691-5.523,2.618-12.3,3.326-18.324,3.74-13.15.9-23.116-7.657-32.076-16.361A175.41,175.41,0,0,1,335.3,222.775c-5.756,4.709-10.648,10.825-15.438,16.433-4.5,5.27-8.14,13.466-14.253,17.157-3.564,2.154-6.221.791-9.663-1.374-2.732-1.72-5.744-2.657-8.494-4.243-12.7-7.327-24.689-15.6-37.1-23.369-2.713-1.7-6.978-5.694-10.171-5.982-2.366-.213-2.179.378-3.548,2.337-1.326,1.9-2.67,3.783-3.986,5.688-5.159,7.466-10.657,15.173-14.838,23.235a69.65,69.65,0,0,1,26.662-1.222c8.239,1.18,18.758,2.6,26.052,7.057,3.116,1.9,6.176,4.039,9.284,6.2,3.9,2.714,6.93,6.51,11.249,8.558,3.724,1.765,7.755,2.564,11.627,3.88,4.35,1.477,10.522,4.23,15.142,3.034,3.937-1.019,7.233-4.51,10.2-6.915,3.856-3.128,8.542-5.267,12.443-8.184,6.915-5.167,14.132-9.583,21.569-14.2,8.88-5.515,17.4-11.855,26.616-16.71a53.281,53.281,0,0,0,5.291-2.758c1.586-1.073,2.728-3.036,4.636-1.637,1.7,1.243.956,3.532.442,5.127-.481,1.495-.926,1.973-.616,3.277.289,1.214,2.156,3.075,2.8,4.262,3.029,5.6,5.193,11.615,8.1,17.281,2.824,5.509,6.011,10.811,8.638,16.425,5.184,11.081,12.423,20.9,17.013,32.339-2.114.866-2.378-.917-4.018-1.085-1.793-.185-1.144.156-2.924,1.439a59.132,59.132,0,0,1-7.509,4.153c-5.7,2.99-11.543,6.509-17.7,8.575-10.571,3.55-20.313,9.824-30.92,13.7m181.891-51.739c-.365,2.623-.835,5.225-1.217,7.843-.27,1.851-1.305,4.533-1.071,6.364,2.724-1.286,5.654-5.6,7.756-.881,1.253,2.808-.318,8.381-.687,11.4,3.077-.624,2.383-8.184,7.3-5.744,3.781,1.876,1.135,11.409,4.092,12.337,2.042-3.22,1.705-10.525,2.374-14.358.313-1.8-.135-4.21,1.968-4.327,1.821-.1,3.263,2.539,4.125,3.745.821-4.38,3.037-8.268,2.07-12.3q-.9-3.741-1.85-7.476c-.376-1.463-.777-5.953-2.049-6.958-2.367-1.871-11.017,1.461-13.633,2.212-2.386.686-5.428,1.336-7.624,2.491-2.307,1.215-1.6,2.964-1.555,5.649M477.12,132.752c3.543-.388,6.613-2.534,9.331-4.772,4.455-3.667,5.132-6.54,5.978-12.191-5.714,2.785-9.935,5.088-16.381,5.2-7.38.133-11.008-4.194-14.4-10.147a32.906,32.906,0,0,0-2.874,4.38c-.839,1.921-.733,1.522-.489,3.471a28.419,28.419,0,0,0,3.4,9.508c3.289,5.7,9.756,6.474,15.437,4.548M331.255,361.846h6.7q-.577-3.682-1.153-7.364c-.335-2.142.221-5.156-1.884-5.528-1.744-.309-3.474,1.623-5.248,1.45-2.024-.2-3.189-1.649-5.536-1.065-3.34.833-2.673,4.49-2.722,7.56-.019,1.206-.483,3.019-.106,4.191.656,2.045.108,1.229,2.141,1.428,2.387.234,5.349-.539,7.807-.672m166.1-295.628c2.455.39,8.811,5.613,10.606,4.368,2.436-1.691-4.567-6.362-6-7.1-7.012-3.594-20.129-.754-24.843,5.807,3.09.3,6.864-2.529,10.033-2.994,3.4-.5,6.795-.075,10.206-.084m-1.711,135.174c2,8.051,5.587,16.679,5.565,25.049A59.709,59.709,0,0,1,495.742,251c-1.761,3.986-3.338,8.015-5.34,11.889a31.849,31.849,0,0,1-3.06,5.559c-1.581,1.93-2.071,1.788-3.951.255-.84,2.149-1.721,4.363-4.577,2.919-2.057-1.041-2.013-3.619-2.686-5.536-1.8-5.138-5.662-9.569-8.385-14.25-2.793-4.8-5.15-9.961-8.239-14.574-1.487-2.221-3.26-4.289-4.848-6.446-1.205-1.635-3.044-5.415-4.717-6.374-.221,2.155,2.077,5.293,2.926,7.4a81.567,81.567,0,0,1,2.875,8.473c1.564,5.571,2.507,11.393,3.7,17.056,2.127,10.124,4.636,20.182,6.06,30.458a121.057,121.057,0,0,1,.671,29.039c-.431,4.124-2.849,7.612-4.48,11.368-2.216,5.106-4.908,8.29-9.359,11.912-8.083,6.577-17.032,10.514-26.875,13.45-1.837.548-3.543.31-5.266.681-1.933.416-3.471,1.4-5.572,1.729a127.71,127.71,0,0,0-16.174,3.382c-4.127,1.212-8.2,2.474-12.284,3.734-3.111.96-6.944,1.852-9.939,3.266a197.051,197.051,0,0,0-21.172,11.92c-2.01,1.273-3.492,2.043-4.974,3.925-1.6,2.036-1.372,3.475-2.246,5.8-.815,2.167-2.238,3.388-4.173,1.586-1.807-1.684-1.093-5.238-1.24-7.322-.221-3.143-2.083-15.158-4.246-16.163-1.562-.725-6.129.834-8.022,1.042a27.943,27.943,0,0,1-7.11-.072c.808,3.364-2.142,7.913-3.382,10.871a67.136,67.136,0,0,0-4.635,15.327c-.6,3.66-.4,7.335-.967,11.038-.58,3.822.3,9.815-4.892,10.388-8.24.91-10.342-15.575-11.279-21.1-1.471-8.67-.307-17.213.561-25.93.07-.706.429-3.812.11-4.375-.261-.459-2.577-1.251-2.876-1.463-2.611-1.857-1.548-2.844-.771-5.609,1.486-5.283,1.055-11.886,4.624-16.506,2.731-3.535,8.86-1.388,12.392-.434,2.633.711,5.233,1.668,7.79,2.616,1.768.655,3.743,2.615,5.292,2.931,3.088.631,5.364-3.313,7.668-4.71a79.425,79.425,0,0,1,12.971-6.525c8.23-3.1,16.746-4.887,25.19-7.5a115.77,115.77,0,0,0,15.185-5.659c3.628-1.707,7.288-4.11,11.213-5.267a147.6,147.6,0,0,0,14.789-5.5c5.133-2.141,10.75-3.514,16.019-5.249a289.625,289.625,0,0,1-27.874-51.172c-.869-2.069-1.7-4.149-2.472-6.257-.392-1.073-1.354-5.884-2.374-6.562-1.853-1.233-9.3,4.354-11.376,5.714-7.519,4.925-14.729,10.309-22.562,14.786-6.783,3.877-13.183,8.373-19.671,12.531-3.572,2.29-6.9,5.21-10.528,7.522s-7.886,6.6-12.179,7.6c-1.6.372-4.314-.082-5.933-.214a37.437,37.437,0,0,1-7.048-1.025c-4.351-1.241-8.947-2.653-13.2-4.2-7.643-2.779-13.566-9.635-20.456-13.868-8.3-5.1-17.71-6.374-26.991-9.194-10.154-3.085-21.417-3.421-32.134-2.62,0-9.779,4.72-17.113,9.871-25.138-3.71-2.436-5.275-3.954-9.428-1.7-3.08,1.672-5.92,3.175-8.778,5.044-3.1,2.031-6.407,3.588-9.5,5.815-3.359,2.42-6.3,4.987-9.4,7.7-2.333,2.037-4.99,3.889-7.431,5.73-2.41,1.819-4.864,1.555-7.946.316-.909-.366-3.747-1.642-4.228-2.257-.968-1.239-.252-2.1.552-3.738a85.406,85.406,0,0,1,6.664-11.081c2.167-3.087,4.979-5.665,7.249-8.675,2.154-2.856,3.695-6.173,6.19-8.762,2.791-2.9,6.1-5.219,8.736-8.3,1.314-1.539,2.811-3.18,2.915-5,.08-1.393-1.471-2.743-1.486-3.742-.033-2.346,3.987-4.733,5.666-6.459,2.464-2.535,4.9-4.726,8.7-3.638,2.794.8,7,4.32,9.08,6.367,2.619,2.577,4.791,5.558,7.493,8.107,1.519,1.433,3.138,2.741,4.708,4.115.929.812,2.4,3.142,3.426,3.616.918.426,1.814.023,3.1-.011-.578.015,2.347.507,2.192.465,1.385.371,2.751.772,4.116,1.214,5.609,1.812,10.777,4.87,15.838,7.915,12.855,7.733,24.918,15.975,37.509,24.218,3.73,2.441,4.755,2.267,7.618-1.227,2.672-3.26,4.888-6.883,7.4-10.263a151.647,151.647,0,0,1,13.683-15.935c5.028-5.093,10.822-9.357,16.2-14.069,1.492-1.309,7.642-5.727,7.253-7.385-.219-.936-2.207-2.515-2.837-3.473a32.644,32.644,0,0,1-2.606-4.615c-4.082-9.274,6.511-9.91,12.709-12.776,7.567-3.5,15.058-7.365,22.792-10.489,3.883-1.568,7.772-3,11.692-4.455,3.609-1.339,6.9-3.51,10.447-4.987,2.616-1.089,8.3-1.5,10.043-3.819,1.028-1.366.585-5.679.766-7.27a53.026,53.026,0,0,1,1.429-7.834c-1.3-.234-3.73,1.19-4.909,1.737a39.123,39.123,0,0,1-6.766,2.754c-5.39,1.417-11.033,1.579-16.343,3.117-8.082,2.342-16.7,3.7-24.605,7.058-9.1,3.869-16.939,10.674-23.334,18.02a55.371,55.371,0,0,0-8.177,11.937c-.583,1.166-1.275,5.072-2.172,5.885-1.142,1.035-4.156-.054-5.453-.268,0,3.447.072,6.9-.052,10.34-.132,3.633.524,9.2-.733,12.555-1.179,3.146-3.381,2.495-5.712.93-3.1-2.078-4.688-3.271-7.465-.05-4.831,5.6-6.659,14.305-9.973,20.863-1.086,2.148-3.762,6.645-5.225,2.23-1.066-3.217.7-7.321-.124-10.5-1.129,1.983-4.506,7.883-7.177,7.867-3.676-.022-2.476-5.73-2.354-8.056-2.167,2.314-8.528,9.872-10.068,3.813-1.182-4.65,2.119-9.266,4.463-12.927,2.728-4.261,5.409-8.586,8.239-12.774,2.77-4.1,4.623-8.742,7.431-12.866-2.14.3-6.283-.4-4.967-3.716.689-1.732,2.867-1,3.93-2.08,1.108-1.12,1.7-4.3,2.323-5.767,3.054-7.232,7.433-13.178,12.5-19.058,8.948-10.391,20.372-18.688,31.89-25.647,13.724-8.292,27.872-13.334,43.239-17.387,7.282-1.92,14.667-2.8,22.028-4.186,3.056-.574,6.155-.9,8.573-2.834,3.6-2.887,5.982-5.025,10.327-6.867a45,45,0,0,1,10.673-2.811c4.1-.683,8.814.225,12.758-.934a53.733,53.733,0,0,0,10.074-4.73c1.5-.843,4.155-1.318,4.964-2.035,1.563-1.383,2.6-4.832,3.6-6.689-2.469.647-3.409-1.108-4.07-3.232-1.1-3.533-1.11-2.359-4.54-3.839-2.032-.877-2.689-3.216-4.3-4.046-1.727-.891-4.466,1.031-6.505.406a4.542,4.542,0,0,1-3.18-4.176c.037-.79.87-1.49.884-2.133.036-1.507-1.195-2.339-1.015-3.991.279-2.557,1.578-2.125.475-4.9s-.67-3.3-.34-6.16c.092-.79-.314-2.063.237-2.735.321-.393,1.5-.453,1.619-.652a5.338,5.338,0,0,0,.554-2.708c.052-.774-.188-2.322.618-2.894.7-.5,1.691.427,2.3.134.532-.254.991-1.52,1.864-1.672,3.225-.564,2.241,2.716,3.887-1.378a9.426,9.426,0,0,1,3.4-4.691q1.116.515,1.392-.417.375-.674.752-1.347c1.334-.316,1.526.684,2.559-.3,1.734-1.648-.05-5.3,3.452-4.322,2.54.708,3.158,3.966,5.815,4.748.366-1.061.319-4.162,1.862-4.476,1.571-.319,2.767,2.544,3.338,3.479.372-.8.987-3.212,1.6-3.8,1.759-1.692,1.227-.053,2.784.172l.734.86q1.222-.6,2.405-1.261c1.707-.323,1.1-.146,2.588.456,1.19.482.478,1.033,1.925,1.336,1.051.219,1.94-.872,3.109-.538l1.021.446q.723,1.6,2.218.567c1.176.485,2.762,2.433,4.014,2.369,2.392-.125,1.829-3.418,4.453-3.257.973.059,3.487,2.675,4.181,3.452.973,1.09.7,2.031,1.916,3.257,1.766,1.775.73.823,2.415,1.627,2.511,1.2,3.438.745,4.472,3.629a26.263,26.263,0,0,1,1.414,8.286c.005,1.658-1.187,5.315,1.115,4.513,1.615-.563,1.344-4.567,3.077-3.311,1.318.954-1.283,6.056-1.312,7.252-.087,3.443.462,3.719-1.671,6.292-1.011,1.219-3.329,3.464-3.842,5.043-.608,1.868,1,5.1,1.377,6.77.806,3.62.125,4.385-2.266,7.23l-.77.461q-1.915,0-1.063,1.909c-.508,1.422-.447,2.792-1.167,4.221-.393.781-2.13,2.362-2.218,3.134-.157,1.378.527,1.619,1.687,3.047,4.675,5.758,6.817,13.219,9.13,20.145,4.073,12.2,9.094,24.1,13.958,36.036,1.9,4.654,3.816,9.124,5.783,13.83,2.448,5.859,5.888,11.208,8.8,16.885,2.011,3.924,4.064,8.233,6.578,11.619,3.162,4.26,4.939,9.735,7.711,14.346,2.962,4.925,6.421,9.778,9.278,14.846,2.732,4.848,6.107,9.285,8.7,14.263,3.238,6.216,7.009,13.685,7.9,20.728.315,2.5,1.3,6.613-.252,8.749-1.6,2.211-6.02,3.136-8.261,1.485a77.487,77.487,0,0,1,4.639,16.641c.434,2.41,1.04,4.538.509,7-.475,2.2.313.919-1.465,2.207-1.489,1.078-.8-1.961-1.971,1.137-.246.653.237,2.465.22,3.224-.068,3.045-.295,6.144-.413,9.206-.09,2.323.285,4.283-2.57,4.037-2.288-.2-3.42-2.627-4.436-4.341-.381,2.73-.6,5.455-.915,8.192-.279,2.429.279,4.828-2.831,4.566-5.1-.43-7.109-9.671-8.4-13.532-2.323,3.061-3.452,9.137-4.474,12.88-.972,3.563-2.107,11.146-7.078,6.48-3.312-3.108-2.029-9.223-1.435-13.2.2-1.312,2.992-12.841,1.684-13.506-1.869,2-4.046,5.267-7.124,3.5-2.767-1.585-1.866-5.106-1.646-7.647.627-7.23,3.107-14.159,4.947-21.166-1.046-.234-3.59-.442-4.453-1.221-1.1-1-.423-1.483-.909-2.758a40.087,40.087,0,0,0-2.765-5.123c-3.031-5.346-3.966-10.675-5.532-16.493-1.513-5.619-4.362-10.565-5.874-16.256-1.675-6.3-3.46-12.5-5.436-18.78a199.281,199.281,0,0,0-17.68-39.223c-.939-1.633-8.628-19.279-9.786-18.758-.826.372-1.3,4.938-1.614,6.173a46.467,46.467,0,0,0-1.046,8.806C490.934,182.652,493.933,194.5,495.642,201.392Z" transform="translate(-116.097 -32.08)" fill="#2d3748" fill-rule="evenodd"/><path d="M198.269,207.864c2.87.685,3.9-6.006,4.218-8.077.52-3.358,1.116-6.246,2.925-9.183a27.046,27.046,0,0,1,3.072-4.128c.666-.717,2.334-1.651,2.683-2.421.963-2.127-.156-7.475-.143-9.868.008-1.537-1-8.689.807-9.188,2.344-.649,2.954,5.873,3.214,7.341.3,1.682.248,3.3.427,4.966.166,1.553,1.011,2.514,1.335,3.549.926,2.957-1.272,5.44-2.848,8.1a60.26,60.26,0,0,0-4.881,9.082c-1.336,3.511-1.25,7.21-2.294,10.765-1.7,5.777-8.816,8.928-14.583,7.233-3.065-.9-2.421-2.973-3.392-5.36-.368-.906-1.4-1.41-1.708-2.612a10.464,10.464,0,0,1,.222-4.218,178.634,178.634,0,0,1,5.082-18.806c-10.347,5.7-21.306,9.454-33.221,9.24-5.923-.107-10.237-1.378-14.527,3.683-3.325,3.922-3.32,10.82-4.677,15.7-1.472,5.295-2.8,12.077-6.153,16.507-4.045,5.346-9.567,4.466-9.979-2.663-.352-6.079,2.672-11.839,2.164-18.01-.255-3.1-1.477-5.84-1.4-8.984a48.686,48.686,0,0,1,1.1-7.9A24.43,24.43,0,0,0,111,199.844c-3.937,3.82-5.578,8.537-8.829,12.907-2.966,3.987-5.591,9.472-11.447,9.336-7.474-.174-7.945-9.377-5.142-14.3,1.433-2.514,3.423-4.482,5.244-6.7,2.016-2.451,2.254-4.42,2.67-7.551.316-2.388.4-5.543,2.551-7.117,1.932-1.418,4.358-.728,6.145-2.607,1.71-1.8,3.06-4.514,4.6-6.5,1.918-2.479,3.9-5.041,5.609-7.672,3.67-5.665,8.493-9.607,13.577-14.039-1.843-1.149-6.7.121-8.987-.243-3.751-.6-8.6-2.384-11.511-4.952-6.032-5.333-8.931-12.27-9.228-20.287-.286-7.7.922-16.987,6.644-22.71a41.191,41.191,0,0,1,10.333-7.329c2.453-1.238,7.5-3.938,10.341-2.823,6.549,2.576-8.262,12.821-10.215,14.46-6.222,5.222-9.846,10.263-9.7,18.616.14,8.122,7.965,11.984,14.51,14.671a29.017,29.017,0,0,0,11.287,2.41c4.3-.114,7.22-2.583,11.134-4.031a208.475,208.475,0,0,1,23.55-6.685c7.821-1.891,16.328-1.464,24.337-2.7a102.259,102.259,0,0,0,21.681-5.331c7.369-2.836,13.053-11.293,21.091-12.182,4.985-.551,2.548,2.978.395,4.788-2.577,2.166-5.376,4.052-7.954,6.225A52.086,52.086,0,0,1,201.9,138.4a183.98,183.98,0,0,1-19,3.878c-8.114,1.154-16.281.794-24.251,2.9a86.371,86.371,0,0,0-13.754,4.85c-1.824.828-5.6,2.154-5.933,3.627-.438,1.906,1.087,1.868-.751,3.624-3.1,2.958-7.125,5.05-10.253,8.12a78.339,78.339,0,0,0-9.62,10.745c-2.8,3.978-5.035,7.833-9.18,10.577a23.368,23.368,0,0,1-5.269,2.923c-1.437.385-2.094-.2-3.324.6C97.3,192.362,99.257,199,98.394,202.29c-1.1,4.211-3.934,7.371-5.695,11.276,2.464-.533,4.185-4.614,5.451-6.539,1.42-2.159,3.219-3.614,5.025-5.48,3.8-3.923,4.805-9.288,9.322-12.981,8.181-6.69,20.9-6.113,27.725-15.081,1.105-1.453,2.144-5.652,3.471-6.566,2.43-1.673,2.224,3.327,1.974,4.812-.854,5.068-3.98,11.057-8.066,14.256-1.849,1.449-4.436,2.112-6.04,3.992l-1.179.468a10.2,10.2,0,0,1,.382,2.546c.037,1.507-.328,2.977-.389,4.5-.152,3.826.694,7.1,1.46,10.761.549,2.617-.927,8.074.249,10.208,2.323-7.8,5.055-16.8,9.456-23.73,1.04-1.639,3.1-2.992,3.922-4.68l1.167-1.3a11.207,11.207,0,0,1-1.782-2.114c-2.639-5.546,3.143-2.117,5.45-1.646,3.709.757,8.33-.8,12.181-.915a87.586,87.586,0,0,0,11.123-.822,119,119,0,0,0,11.948-2.617c3.891-1.045,7.487-3.193,11.269-4.136-3.781-2.585-4.978-5.949-6.286-10.151-.859-2.763-3.914-9.467-1.991-12.271,2.083-3.041,2.827,1.636,3.5,3.292,1.143,2.8,2.874,7.58,4.992,9.681,1.142,1.133,2.684,1.009,3.7,2.52a8.463,8.463,0,0,1,.969,3.937c.347,3.806-1.157,6.853-2.5,10.318-3.13,8.079-4.395,16.719-8.489,24.406a39.018,39.018,0,0,0,7.55-.37" transform="translate(-78.579 -61.806)" fill="#2d3748" fill-rule="evenodd"/><path d="M362.37,120.858c2-.47,8.285-1.156,6.461-4.819-1.846-3.7-6.758,2.287-6.461,4.819m59.518-29.169c-1.173-.364-3.035-1.213-4.291-1.123-1.489.107-2.6,1.186-4.105,1.328-3.082.291-5.465-1.024-7.479,2.267,4.285,0,12.855,1.452,15.875-2.473M341.055,168.44c4.077.569,6.1-17.44,6.319-19.8-1.829-.187-6.759,3.4-7.189,5.059-.472,1.818,1.155,4.734,1.352,6.623a29.225,29.225,0,0,1-.482,8.118m22.721-102.8c-4.909.478-10.4,2.067-14.908-.663-3.653-2.213-5.006-6.882-8.083-9.623,0,7.9,7.108,14.133,14.341,16.641,3.683,1.277,9.326-.649,12.58,1.432.944.6,2.956,3.352,3.029,4.487.252,3.87-2.507.407-4.069.526-2.172.166-5.194,5.89-7,7.63a41.889,41.889,0,0,1-4.436,3.5c-.507.371-3.112,1.689-3.242,2.326-.114.565,1.314,2.643,1.615,3.179a29.374,29.374,0,0,0,7.839,8.938c1.613,1.282,3.293,2,4.91,3.062.527.349,2.673,3.271,2.049,3.148.9-2.737,3.468-5.908,5.176-8.328,1.751-2.482,4.058-5.081,6.992-6.086a23.356,23.356,0,0,1,4.765-.929,11.921,11.921,0,0,1,2.8.232q2.018.89,1.579-1.434c1.413-2.935.581-6.63,2.378-9.611a9.509,9.509,0,0,1,9.511-4.691c1.776.177,3.69.939,5.448.628,1.743-.308,3.718-1.714,5.424-2.32,6.625-2.355,14.8-5.218,19.994-10.125.788-.744,3.014-2.808,3.189-3.878l-1.389-3.128q-.182-2.293-2.231-1.25c-1.609-.034-4.66,1.812-6.27,2.34-2.044.671-4.1,1.261-6.111,2.018A73.474,73.474,0,0,1,409.1,67.105c-3.8.809-5.6,1.3-7.6-2.294-1.953-3.514-1.676-5.57-6.222-5.056-4.052.457-7.448,1.986-11.183,3.6-2.481,1.071-5.712,3.043-8.235,3.466-1.87.314-3.888-.415-5.689-.79a28.76,28.76,0,0,0-6.392-.388m47.065,20.41h2.042l-4.747-2.789c-2.228,3.594-7.794,2.031-11.169,4.173-2.771,1.759-5.373,9.256-2.712,11.987,3.7,3.795,5.519-4.626,6.568-6.566,2.137-3.948,5.355-6.9,10.018-6.805M346.161,94.1a5.715,5.715,0,0,1,1.887-7.77c3.545-2.391,7.114-5.011,10.59-7.661a31.208,31.208,0,0,1-14.961-6.484c-5.558-4.158-7.14-8-6.985-15.025.078-3.526-.415-13.546,5.276-10.637,4.7,2.4,5.35,9.124,10.408,11.4,5,2.25,10.883-.084,16.138,1.669,1.5.5,5.5,4.011,6.712,3.995,1.614-.022,5.669-3.59,7.2-4.438a41.36,41.36,0,0,1,13.051-4.81c2.679-.385,3.552-.66,5.494,1.315,2.174,2.211,2.856,4.945,3.632,7.818,8.25-3.4,16.584-6.567,25.068-9.337a29.776,29.776,0,0,0,6.843-3.422c3.291-2.029,5.122-1.09,5.72,3.106,1.054,7.391-3.463,12.119-7.388,17.651-2.165,3.051-3.643,5.206-7.162,6.764-3.663,1.621-8.073,1.1-12.051,2.318,1.021,1.243,1.56,4.138,2.459,5.012.732.71,4.231.593,5.411,1.213,3.537,1.859,3.116,4.962.925,8.03-2.473,3.461-6.127,4.1-10.121,4.4a34.219,34.219,0,0,1-5.17.033c-1.158-.082-5.189-1.333-6.061-.962-1.033.439-1.273,2.719-1.744,3.76-.748,1.655-1.58,3.33-3.339,4.1a4.859,4.859,0,0,1-4.624-.426c-1.856-1.215-1.347-2.651-2.515-4.212q-.165-2.466-2.1-.936-1.48.518-2.956,1.046a24,24,0,0,0-5.726,2.7c-3.431,2.384-5.508,6.407-9.332,8.083a9,9,0,0,1-3.261,12.279,21.27,21.27,0,0,1-3.111,1.435c-.749.241-2.71.046-3.216.464-.733.607-1.136,6.351-1.65,7.631-1.765,4.4-5.513,6.59-7.732,10.581-2.164,3.9-1.7,9.94-2.329,14.327-.78,5.434-1.276,11.138-3.6,16.18-1.556,3.374-6.227,7.373-10.35,6.708-6.062-.977-3.427-8.723-1.567-12.061,2.868-5.148,2.865-9.044,2.137-14.739-2.393.356-8.324,2.7-8.039-1.864.2-3.111,6.911-5.963,9.265-7.525a98.418,98.418,0,0,0,15.259-12.166,27.058,27.058,0,0,0,5.461-7.882c.688-1.867.541-3.682.69-5.634.138-1.8,1.714-4.264,1.636-5.834-.115-2.329-6.248-6.05-8-8.516A54.934,54.934,0,0,1,346.161,94.1" transform="translate(-190.303 -38.454)" fill="#2d3748" fill-rule="evenodd"/><path d="M528.509,148.167c1.88-.246,9.1-2.247,10.344-.374,2.263,3.417-4.39,4.054-6.063,4.364-7.392,1.367-14.625,3.185-21.793,5.222-14.26,4.05-28.8,9.134-42.08,15.732-2.08,1.033-8.192,5.238-10.274,3.114-2.69-2.744,3.835-5.788,5.33-6.643a159.106,159.106,0,0,1,20.735-9.98c14-5.5,28.8-9.781,43.8-11.435" transform="translate(-249.829 -84.701)" fill="#2d3748" fill-rule="evenodd"/><path d="M248.62,481.508c10.608-1.582,22.133.753,32.428,3.973a52.2,52.2,0,0,1,9.756,3.912c1.627.9,5.494,2.516,6.415,4.21,1.535,2.824-.183,4.027-2.654,3.563-2.349-.442-5.236-1.793-7.689-2.41a231.922,231.922,0,0,0-33.764-6.078,23.957,23.957,0,0,0-7.32.523c-1.96.357-7.136,2.488-8.609,1.238-5.326-4.513,8.9-8.651,11.437-8.931" transform="translate(-148.178 -237.635)" fill="#2d3748" fill-rule="evenodd"/><path d="M527.684,522c.718,4.024-1.328,4.4-4.747,6.28a110.924,110.924,0,0,1-10.669,5.05,119.263,119.263,0,0,1-12.28,4.6c-3.507,1.033-8.915,3.349-12.556,3.006-1.47-.139-2.419.053-2.431-1.768-.01-1.975,1.847-1.857,3.379-2.293,4.691-1.335,9.232-3.339,13.844-4.929,8.686-2.992,17.387-5.519,25.46-9.95" transform="translate(-262.192 -256.409)" fill="#2d3748" fill-rule="evenodd"/><path d="M76.358,135.636c-2.72-4.491-2.666-10.477-1.913-15.552.254-1.71,4.38-14.355,6.874-11.726,1.479,1.559-3.555,11.49-4.082,13.759a21.7,21.7,0,0,0-.544,8.239c.114.756,1.808,5.554-.335,5.28" transform="translate(-74 -66.843)" fill="#2d3748" fill-rule="evenodd"/><path d="M340.724,189.974c-1.992-2.725.675-8.821,1.482-11.717.5-1.785,2.017-8.489,4.426-7.058,2.339,1.389-.279,7.673-.748,9.408-.694,2.574-1.7,9.3-5.16,9.367" transform="translate(-195.798 -95.69)" fill="#2d3748" fill-rule="evenodd"/><path d="M749,471.614,750.1,469c.93.707,2.229,1.054,1.282,2.127a2.442,2.442,0,0,1-2.38.487" transform="translate(-383.074 -232.141)" fill="#cf536d" fill-rule="evenodd"/><path d="M683.337,160.277A21.984,21.984,0,0,1,679,160.5l4.337-.226" transform="translate(-351.022 -90.78)" fill="#cf536d" fill-rule="evenodd"/><path d="M784.5,391.253q-.006-1.626-.011-3.253.006,1.628.011,3.253" transform="translate(-399.325 -195.052)" fill="#cf536d" fill-rule="evenodd"/><path d="M300.5,241.253q0-1.628-.01-3.253,0,1.628.01,3.253" transform="translate(-177.707 -126.368)" fill="#cf536d" fill-rule="evenodd"/><path d="M391.253,68.521,388,68.5a5.243,5.243,0,0,1,3.253.02" transform="translate(-217.777 -48.64)" fill="#cf536d" fill-rule="evenodd"/><path d="M407.5,685q-.02,1.085-.042,2.168.021-1.086.042-2.168" transform="translate(-226.688 -331.044)" fill="#cf536d" fill-rule="evenodd"/><path d="M155,205.483l1.626.018L155,205.483" transform="translate(-111.089 -111.479)" fill="#cf536d" fill-rule="evenodd"/><path d="M719.5,557.169q-.015-1.087-.028-2.168.013,1.087.028,2.168" transform="translate(-369.555 -271.519)" fill="#cf536d" fill-rule="evenodd"/><path d="M770.406,295.168q.051-1.085.1-2.168c-.034.725-.068,1.446-.1,2.168" transform="translate(-392.876 -151.552)" fill="#cf536d" fill-rule="evenodd"/><path d="M679.509,95c-.039.723-.078,1.448-.118,2.168q.059-1.086.118-2.168" transform="translate(-351.201 -60.89)" fill="#cf536d" fill-rule="evenodd"/><path d="M936.481,532.169q.011-1.087.021-2.169-.011,1.087-.021,2.169" transform="translate(-468.919 -260.072)" fill="#cf536d" fill-rule="evenodd"/><path d="M538.5,71.168c-.021-.724-.041-1.448-.062-2.168q.031,1.087.062,2.168" transform="translate(-286.663 -48.985)" fill="#cf536d" fill-rule="evenodd"/><path d="M120.415,157.168q.046-1.086.092-2.168-.047,1.087-.092,2.168" transform="translate(-95.253 -88.364)" fill="#cf536d" fill-rule="evenodd"/><path d="M481,144.5l1.626-.008L481,144.5" transform="translate(-260.36 -83.553)" fill="#cf536d" fill-rule="evenodd"/><path d="M817.508,75.168q-.055-1.086-.107-2.168.054,1.086.107,2.168" transform="translate(-414.394 -50.817)" fill="#cf536d" fill-rule="evenodd"/><path d="M158.5,284q0,1.086,0,2.168c0-.725,0-1.446,0-2.168" transform="translate(-112.691 -147.431)" fill="#cf536d" fill-rule="evenodd"/><path d="M942.51,514.169q-.067-1.085-.132-2.169c.044.724.088,1.446.132,2.169" transform="translate(-471.62 -251.83)" fill="#cf536d" fill-rule="evenodd"/><path d="M445,505.5l1.626-.051L445,505.5" transform="translate(-243.876 -248.832)" fill="#cf536d" fill-rule="evenodd"/><path d="M770.51,322.169q-.063-1.086-.127-2.168.064,1.086.127,2.168" transform="translate(-392.865 -163.915)" fill="#cf536d" fill-rule="evenodd"/><path d="M289.168,481.487,287,481.5l2.168-.014" transform="translate(-171.53 -237.858)" fill="#cf536d" fill-rule="evenodd"/><path d="M257.168,481.312l-2.168.2,2.168-.2" transform="translate(-156.878 -237.778)" fill="#cf536d" fill-rule="evenodd"/><path d="M769.5,313.626q-.024-.814-.048-1.626c.016.543.033,1.084.048,1.626" transform="translate(-392.441 -160.252)" fill="#cf536d" fill-rule="evenodd"/><path d="M814.507,118.626q-.047-.815-.091-1.626.046.815.091,1.626" transform="translate(-413.028 -70.964)" fill="#cf536d" fill-rule="evenodd"/><path d="M508.488,127.626q.007-.814.013-1.626c0,.543-.008,1.084-.013,1.626" transform="translate(-272.947 -75.085)" fill="#cf536d" fill-rule="evenodd"/><path d="M369.189,404.221l.9.052c-.668.576-1.451-.016-.9-.052" transform="translate(-209.077 -202.479)" fill="#cf536d" fill-rule="evenodd"/><path d="M430,504.5l1.084-.018L430,504.5" transform="translate(-237.008 -248.388)" fill="#cf536d" fill-rule="evenodd"/><path d="M941.51,506.626q-.061-.814-.121-1.626c.041.543.081,1.084.121,1.626" transform="translate(-471.166 -248.624)" fill="#cf536d" fill-rule="evenodd"/><path d="M161.511,311q-.069.814-.138,1.626.069-.815.138-1.626" transform="translate(-114.007 -159.794)" fill="#cf536d" fill-rule="evenodd"/><path d="M618.169,182.236c-.649.483-1.432.213-2.169.2l2.169-.2" transform="translate(-322.175 -100.835)" fill="#cf536d" fill-rule="evenodd"/><path d="M935.477,545.626q.012-.815.025-1.626-.012.816-.025,1.626" transform="translate(-468.46 -266.482)" fill="#cf536d" fill-rule="evenodd"/><path d="M709.383,582.626q.063-.815.127-1.626c-.042.544-.085,1.085-.127,1.626" transform="translate(-364.934 -283.424)" fill="#cf536d" fill-rule="evenodd"/><path d="M144,204.441c.363.021.726.042,1.084.064L144,204.441" transform="translate(-106.052 -111.002)" fill="#cf536d" fill-rule="evenodd"/><path d="M586.169,149.338l-2.169.176,2.169-.176" transform="translate(-307.523 -85.771)" fill="#cf536d" fill-rule="evenodd"/><path d="M491.511,680c-.049.542-.1,1.085-.145,1.626.048-.544.1-1.085.145-1.626" transform="translate(-265.107 -328.755)" fill="#cf536d" fill-rule="evenodd"/><path d="M293.169,301.349l-2.168.164,2.168-.164" transform="translate(-173.362 -155.375)" fill="#cf536d" fill-rule="evenodd"/><path d="M463,640.513l4.337-.172-4.337.172" transform="translate(-252.118 -310.596)" fill="#cf536d" fill-rule="evenodd"/><path d="M706.4,544.711q.054-1.357.107-2.711l-.107,2.711" transform="translate(-363.569 -265.566)" fill="#cf536d" fill-rule="evenodd"/><path d="M760,95.515l2.711-.2-2.711.2" transform="translate(-388.111 -61.036)" fill="#cf536d" fill-rule="evenodd"/><path d="M284,435.34l2.711.174L284,435.34" transform="translate(-170.156 -216.728)" fill="#cf536d" fill-rule="evenodd"/><path d="M402.321,395.168a2.085,2.085,0,0,1,.062-2.168,3.261,3.261,0,0,1-.062,2.168" transform="translate(-224.21 -197.341)" fill="#cf536d" fill-rule="evenodd"/><path d="M881.477,492q.012,1.087.025,2.168c-.008-.725-.016-1.447-.025-2.168" transform="translate(-443.734 -242.672)" fill="#cf536d" fill-rule="evenodd"/><path d="M480.5,621.168c-.009-.724-.017-1.449-.025-2.169.009.727.017,1.448.025,2.169" transform="translate(-260.121 -300.824)" fill="#cf536d" fill-rule="evenodd"/><path d="M433,489.332l2.169.182L433,489.332" transform="translate(-238.382 -241.45)" fill="#cf536d" fill-rule="evenodd"/><path d="M408.035,401.04q-.169-1.307.472-.971.169,1.228-.472.971" transform="translate(-226.934 -200.546)" fill="#cf536d" fill-rule="evenodd"/><path d="M457.5,334q-.011.814-.022,1.626.012-.815.022-1.626" transform="translate(-249.591 -170.326)" fill="#cf536d" fill-rule="evenodd"/><path d="M916.5,522.626q-.006-.814-.014-1.626.007.814.014,1.626" transform="translate(-459.765 -255.951)" fill="#cf536d" fill-rule="evenodd"/><path d="M773,95.5l2.169,0L773,95.5" transform="translate(-394.064 -61.118)" fill="#cf536d" fill-rule="evenodd"/><path d="M740,217.514l2.168-.175Z" transform="translate(-378.953 -116.908)" fill="#cf536d" fill-rule="evenodd"/><path d="M676.084,385.5,675,385.484l1.084.017" transform="translate(-349.19 -193.9)" fill="#cf536d" fill-rule="evenodd"/><path d="M700.409,574.626c.034-.542.066-1.085.1-1.626q-.051.815-.1,1.626" transform="translate(-360.825 -279.761)" fill="#cf536d" fill-rule="evenodd"/><path d="M545.084,591.462,544,591.5l1.084-.041" transform="translate(-289.207 -288.214)" fill="#cf536d" fill-rule="evenodd"/><path d="M457.49,338c0,.543.008,1.087.011,1.626,0-.544-.007-1.085-.011-1.626" transform="translate(-249.595 -172.157)" fill="#cf536d" fill-rule="evenodd"/><path d="M395.626,81.5h0" transform="translate(-220.524 -54.709)" fill="#cf536d" fill-rule="evenodd"/><path d="M477,119.47l2.168.033L477,119.47" transform="translate(-258.529 -72.095)" fill="#cf536d" fill-rule="evenodd"/><path d="M448.5,136q0,.814,0,1.626c0-.544,0-1.085,0-1.626" transform="translate(-245.477 -79.664)" fill="#cf536d" fill-rule="evenodd"/><path d="M424,137.515l2.168-.191Z" transform="translate(-234.261 -80.27)" fill="#cf536d" fill-rule="evenodd"/><path d="M587.97,312.062c-5.312.584-12.066.076-16.865-2.508-3.326-1.793-4.868-7.668-.037-8.494,2.712-.463,5.967,1.925,8.365,2.848a81.255,81.255,0,0,0,8.771,2.384c2,.523,4.893,1.841,3.072,4.693-.328.514-3.268,2.066-3.306,1.078" transform="translate(-300.197 -155.215)" fill="#2d3748" fill-rule="evenodd"/><path d="M738.421,358.8c-.521,3.41-.6,7.176-2.235,10.293-2.359,4.493-2.824-.32-2.452-2.789a49.745,49.745,0,0,0,.572-11.045c-.223-3.014-2.252-6.544-.767-9.258,4.053,2.626,4.136,8.5,4.882,12.8" transform="translate(-375.748 -175.82)" fill="#2d3748" fill-rule="evenodd"/><path d="M739.98,167.577c-2.242-.513-5.91-2-2.75-4.086,1.284-.85,3.814-.442,5.248-1.238.869-.482,1.361-1.514,2.231-1.888,2.885-1.241,3.18.878,2.095,3.573-1.149,2.85-3.906,3.779-6.824,3.64" transform="translate(-377.122 -90.653)" fill="#2d3748" fill-rule="evenodd"/><path d="M737.309,140.019c3.684-2.754,3.183.687,1.236,3.111q-1.087,1.225-2.176,2.449l.636.78c-.109,1.109.927,1.929-.344,2.655-2.1,1.2-3.672-1.635-3.662-3.2.015-2.6,2.58-4.237,4.309-5.789" transform="translate(-375.748 -81.038)" fill="#2d3748" fill-rule="evenodd"/><path d="M737.75,136.577c-3.44,3.372-3.311-3.417-1.483-4.881,3.509-2.809,1.248,3.708,1.483,4.881" transform="translate(-376.664 -77.374)" fill="#2d3748" fill-rule="evenodd"/><path d="M752.11,140.5c-.245-1.2-.276-6.86,2.106-6.484,2.59.41-.262,6.662-2.106,6.484" transform="translate(-384.448 -78.748)" fill="#2d3748" fill-rule="evenodd"/><path d="M744,174.458l1.084.046L744,174.458" transform="translate(-380.785 -97.273)" fill="#cf536d" fill-rule="evenodd"/><path d="M438.726,88.216c-2.934-5,3.762-13.531,7.114-6.625.455.935,1.484,3.457.246,4.232-1.33.832-1.045-.377-2.139-.56-1.3-.217-.878-.826-2.393-.165-1.077.47-2.083,2.255-2.827,3.117" transform="translate(-240.671 -53.564)" fill="#2d3748" fill-rule="evenodd"/></g></g></g></svg>