<svg xmlns="http://www.w3.org/2000/svg" xmlns:xlink="http://www.w3.org/1999/xlink" width="200" height="32.21" viewBox="0 0 200 32.21"><defs><clipPath id="b"><rect width="200" height="32.21"/></clipPath></defs><g id="a" clip-path="url(#b)"><g transform="translate(-40 -19)"><g transform="translate(40 19)"><path d="M-146.358,214.543c-1.947-3.894-5.368-6.2-9.175-6.2h-.157a6.3,6.3,0,0,0-4.771,1.927,16.613,16.613,0,0,0-6.354-1.332,17.14,17.14,0,0,0-6.093,1.132,6.009,6.009,0,0,0-4.573-1.868c-3.892-.06-7.42,2.306-9.438,6.342a7.508,7.508,0,0,0-.56,1.572h-.077c-1.622-2.815-4.149-7.079-4.889-7.633a1.188,1.188,0,0,0-1.268-.09c-1.681.841-4.169,7.409-4.169,18.833,0,.212.006.419.012.626l-5.973.39a.791.791,0,0,0-.738.841.791.791,0,0,0,.789.74l.052,0,5.985-.391a15.068,15.068,0,0,0,.406,2.14l-5.017,1.616a.791.791,0,0,0-.511,1,.792.792,0,0,0,.753.549.793.793,0,0,0,.243-.038l5.039-1.623c1.925,4.719,6.483,7.278,13.3,7.325l.536,0c.375,0,.752.006,1.129.006,2.878,0,5.762-.186,8.092-1.977a7.446,7.446,0,0,0,4.812,1.944,6.863,6.863,0,0,0,2.157-.359c2.855.935,5.585.013,8.121-2.744a31.107,31.107,0,0,0,5.291-9.114,3.957,3.957,0,0,0,2.544,1.285c.06,0,.121.006.185.006a3.666,3.666,0,0,0,3.017-1.977C-145.645,224.458-144.62,218.02-146.358,214.543Zm-31.248-4.408h.092a5.044,5.044,0,0,1,2.41.586,4.126,4.126,0,0,0-2.356,2.039,19.912,19.912,0,0,0-1.165,5.686,27.784,27.784,0,0,1-.915,5.188c-.764,2.311-1.92,3.8-3.014,3.877a1.413,1.413,0,0,1-1.032-.579c-1.609-1.757-2.638-6.468-2.116-9.694l.117-.726a5.412,5.412,0,0,1,.395-1.1C-182.766,210.562-178.884,210.135-177.606,210.135Zm-5.379,28.33-.54,0c-4.373-.03-9.392-1.217-11.458-5.99l1.368-.441a.792.792,0,0,0,.511-1,.792.792,0,0,0-1-.511l-1.4.45a12.888,12.888,0,0,1-.323-1.67l2.015-.132a.792.792,0,0,0,.738-.841.792.792,0,0,0-.841-.738l-2.031.133c0-.165-.008-.331-.008-.5,0-10.087,1.889-15.07,2.775-16.614.884,1.284,2.667,4.246,4.218,6.952l.279.486h.906a16.769,16.769,0,0,0,2.147,9.42,3.709,3.709,0,0,0,2.934,1.974l.063,0h.04c.066,0,.131,0,.192-.006a3.274,3.274,0,0,0,.688-.129l.036-.011c.1-.03.192-.063.286-.1l.071-.028c.08-.034.159-.073.238-.113q.167-.085.329-.188l.023-.014c.084-.054.167-.113.249-.174l.019-.014c.085-.064.169-.132.252-.2a43.888,43.888,0,0,0,2.056,4.287.957.957,0,0,0-.434.142,3.035,3.035,0,0,1-2.511.588,2.625,2.625,0,0,1-1.334-1.154,2.39,2.39,0,0,0,1.166-1.859c-.046-1.181-4.492-1.181-4.538,0a2.431,2.431,0,0,0,1.161,1.866,2.618,2.618,0,0,1-1.329,1.147,3.036,3.036,0,0,1-2.511-.588.967.967,0,0,0-1.334.3.967.967,0,0,0,.3,1.334,5.579,5.579,0,0,0,2.954.98,3.82,3.82,0,0,0,1.208-.194h0a1.949,1.949,0,0,0,1.815,1.083h0a1.931,1.931,0,0,0,1.8-1.088l.016.006a3.82,3.82,0,0,0,1.208.194,5.581,5.581,0,0,0,2.954-.98.963.963,0,0,0,.286-.279q.583.924,1.181,1.71c.061.081.123.16.184.239l.1.133c.2.254.406.5.61.728C-177.279,238.513-180.06,238.49-182.985,238.465Zm17.14-.191v-3.45c1.139-.889,2.548-2.809,2.46-3.407-.046-.394-1.737-1.46-3.427-1.46-1.714,0-3.427,1.065-3.473,1.46-.089.6,1.365,2.56,2.506,3.435v3.424c-1.735.436-3.405-.093-5.071-1.609l-.238-.229a13.716,13.716,0,0,1-1.134-1.243l-.1-.128q-.106-.133-.212-.272c-.094-.124-.188-.249-.281-.379l-.011-.015a36.3,36.3,0,0,1-3.966-7.639,12.308,12.308,0,0,0,1.116-2.5,28.613,28.613,0,0,0,1.019-5.608,22.568,22.568,0,0,1,.846-4.7c.687-.477,1.881-1.181,2.486-1.538.16-.094.3-.176.417-.254a15.223,15.223,0,0,1,6.1-1.289,15.852,15.852,0,0,1,9.519,3.475,23.2,23.2,0,0,1,.647,3.7q.036.309.072.622c.139,1.205.281,2.437.5,3.594a15.947,15.947,0,0,0,.5,2,11.937,11.937,0,0,0,.616,1.541q.113.242.231.469C-158.189,235.2-161.924,239.234-165.845,238.274Zm16.582-11.877c-.289.433-.866,1.15-1.456,1.114a2.9,2.9,0,0,1-1.954-1.558l-.154-.261c-.145-.246-.277-.5-.4-.759a12.168,12.168,0,0,1-.511-1.3,14.029,14.029,0,0,1-.45-1.822c-.194-1.051-.327-2.192-.457-3.31q-.043-.37-.086-.734a17.369,17.369,0,0,0-1.091-5.017,3.686,3.686,0,0,0-2.3-1.9,5.548,5.548,0,0,1,2.468-.573c1.165-.019,5.151.293,7.57,5.132C-146.731,218.124-147.6,223.9-149.263,226.4Z" transform="translate(204.583 -208.201)" fill="#2680eb"/><circle cx="2.13" cy="2.13" r="2.13" transform="translate(28.982 13.905) rotate(-9.217)" fill="#2680eb"/><circle cx="2.13" cy="2.13" r="2.13" transform="translate(41.553 14.106) rotate(-13.282)" fill="#2680eb"/><circle cx="1.853" cy="1.853" r="1.853" transform="translate(13.064 14.949)" fill="#2680eb"/></g><path d="M13.83-104.734a5.677,5.677,0,0,1,.323.711q.162.42.259.743a1.258,1.258,0,0,1,.081.372q.016.21.048.4t.048.4q.016.21.016.4,0,.258-.016.5t-.048.5a5.522,5.522,0,0,1-.194.937,4.9,4.9,0,0,1-.291.9q-.1.194-.194.4a2.976,2.976,0,0,1-.226.4q-.129.194-.259.372a2.857,2.857,0,0,1-.291.339q-.162.162-.307.323t-.307.323a2.853,2.853,0,0,1-.339.291q-.178.129-.372.291-.194.129-.388.242t-.388.21q-.226.1-.436.194a3.014,3.014,0,0,1-.436.162,2.588,2.588,0,0,1-.436.145q-.21.048-.436.113a4.809,4.809,0,0,1-.485.1l-.452.065q-.259.032-.5.049t-.5.016H2.1a2.08,2.08,0,0,1-.808-.162,1.874,1.874,0,0,1-.679-.452,1.874,1.874,0,0,1-.452-.679A2.08,2.08,0,0,1,0-96.914v-18.613a2.247,2.247,0,0,1,.162-.808,1.873,1.873,0,0,1,.452-.679,1.7,1.7,0,0,1,.323-.259q.162-.1.355-.194a2.08,2.08,0,0,1,.808-.162H7.3q.259,0,.469.016t.469.048q.226.032.436.048a2.2,2.2,0,0,1,.436.081q.226.065.42.113t.42.113q.388.162.808.355l.388.194a1.994,1.994,0,0,1,.355.226,3.875,3.875,0,0,0,.339.242,2,2,0,0,1,.339.275,7.4,7.4,0,0,1,.582.582l.259.323a2,2,0,0,1,.226.355,2,2,0,0,1,.226.355l.194.388q.065.194.145.388a3.823,3.823,0,0,1,.145.42,2.456,2.456,0,0,1,.1.4q.032.21.065.436t.048.452q.016.226.016.452,0,.194,0,.372a1.727,1.727,0,0,1-.032.339q-.065.452-.129.711a1.842,1.842,0,0,0-.1.323,1.843,1.843,0,0,1-.1.323,2.682,2.682,0,0,1-.145.307,2.684,2.684,0,0,0-.145.307q-.065.1-.145.21t-.145.21a1.168,1.168,0,0,1-.145.226,2.267,2.267,0,0,0-.145.194q-.1.1-.178.194t-.178.194l-.194.194a1.283,1.283,0,0,1-.194.162.253.253,0,0,0-.048.065.253.253,0,0,1-.048.065v.129a.187.187,0,0,0,.032.129.186.186,0,0,0,.065.129q.129.1.242.194t.242.226q.1.1.21.194a1.411,1.411,0,0,1,.21.226q.1.129.194.242a1.189,1.189,0,0,1,.162.242q.1.129.178.258T13.83-104.734Zm-9.145.354V-99.3a.127.127,0,0,0,.016.08.065.065,0,0,1,.016.048q.1.1.065.1l.1.1H7.416a1.565,1.565,0,0,0,.307-.032,1.99,1.99,0,0,0,.517-.161,1.463,1.463,0,0,0,.485-.225.871.871,0,0,0,.226-.161,2.123,2.123,0,0,1,.226-.193,2.373,2.373,0,0,0,.323-.418.624.624,0,0,0,.145-.225,2.642,2.642,0,0,1,.113-.257,1.942,1.942,0,0,0,.162-.546,1.625,1.625,0,0,0,.032-.321v-.627a1.549,1.549,0,0,0-.032-.305A1.942,1.942,0,0,0,9.759-103a1.442,1.442,0,0,0-.259-.514q-.065-.1-.145-.209a1.652,1.652,0,0,0-.178-.209q-.259-.192-.452-.321a2.106,2.106,0,0,0-.485-.257.805.805,0,0,0-.259-.08,2.186,2.186,0,0,1-.259-.048q-.162-.032-.307-.048a2.782,2.782,0,0,0-.307-.016h-2.1a.066.066,0,0,0-.048.016.128.128,0,0,1-.081.016q-.032.032-.048.032t-.048.032q-.032.032-.032.048t-.032.048a.127.127,0,0,1-.016.08A.066.066,0,0,0,4.686-104.38Zm4.168-5a1.848,1.848,0,0,0,.323-.353,1.808,1.808,0,0,0,.113-.193,1.456,1.456,0,0,0,.081-.193A1.448,1.448,0,0,0,9.5-110.6a2.4,2.4,0,0,0,.048-.241,1.952,1.952,0,0,0,.016-.273A2.689,2.689,0,0,0,9.5-111.6a1.027,1.027,0,0,0-.129-.449q-.032-.1-.081-.209a.556.556,0,0,0-.113-.176,3.732,3.732,0,0,0-.323-.385,3.666,3.666,0,0,0-.355-.289.749.749,0,0,0-.21-.1.747.747,0,0,1-.21-.1q-.194-.064-.452-.128a2.928,2.928,0,0,0-.517-.032h-2.1a.287.287,0,0,0-.129.032q-.032,0-.1.064-.032.032-.032.048t-.032.048a.066.066,0,0,1-.016.048.127.127,0,0,0-.016.08v4.076a.065.065,0,0,0,.016.048.065.065,0,0,1,.016.048l.065.128q.032.032.048.032t.048.032a.128.128,0,0,1,.081.016.066.066,0,0,0,.048.016h2.1a1.982,1.982,0,0,0,.275-.016,2.4,2.4,0,0,0,.242-.048.886.886,0,0,0,.242-.032q.113-.032.21-.064a1.521,1.521,0,0,0,.42-.225A1.356,1.356,0,0,0,8.854-109.384Zm8.014-5.885a2.426,2.426,0,0,1,.679-1.68,2.282,2.282,0,0,1,1.68-.679,2.244,2.244,0,0,1,1.648.679,2.426,2.426,0,0,1,.679,1.68v18.1a2.282,2.282,0,0,1-.679,1.68,2.244,2.244,0,0,1-1.648.679,2.282,2.282,0,0,1-1.68-.679,2.282,2.282,0,0,1-.679-1.68v-18.1Zm19.97,11.019a1.959,1.959,0,0,1,1.648.679,2.129,2.129,0,0,1,.711,1.648v.194a8.206,8.206,0,0,1-.065,1.05q-.065.5-.162.986a8.7,8.7,0,0,1-.679,1.777,6.334,6.334,0,0,1-1.1,1.486A6.786,6.786,0,0,1,35.707-95.3a8.038,8.038,0,0,1-.872.4,5.514,5.514,0,0,1-.937.275,8.589,8.589,0,0,1-1.05.194,9.271,9.271,0,0,1-1.115.065A9.3,9.3,0,0,1,29.6-94.62a5.514,5.514,0,0,1-.937-.275q-.452-.178-.9-.4a8.873,8.873,0,0,1-.776-.533q-.355-.275-.711-.6A7.581,7.581,0,0,1,25.2-97.916a3.992,3.992,0,0,1-.4-.872q-.145-.452-.275-.9a8.409,8.409,0,0,1-.226-2.036v-8.983a8.015,8.015,0,0,1,.226-2q.129-.485.275-.921a4.955,4.955,0,0,1,.4-.889,7.579,7.579,0,0,1,1.066-1.486q.355-.323.711-.6a5.631,5.631,0,0,1,.776-.5,7.452,7.452,0,0,1,1.842-.711,9.3,9.3,0,0,1,2.133-.258,9.265,9.265,0,0,1,1.115.065,8.587,8.587,0,0,1,1.05.194,6.894,6.894,0,0,1,1.81.711,5.287,5.287,0,0,1,1.163.808,5.147,5.147,0,0,1,.485.485l.452.517a2.476,2.476,0,0,1,.549,1.713,2,2,0,0,1-.808,1.486,2.384,2.384,0,0,1-1.745.452,3.224,3.224,0,0,1-.937-.275,2.071,2.071,0,0,1-.776-.63,5.037,5.037,0,0,0-1-.937,2.777,2.777,0,0,0-1.357-.355,2.553,2.553,0,0,0-1.874.776,3.65,3.65,0,0,0-.614.824,2.073,2.073,0,0,0-.259,1.018v9.306a4.3,4.3,0,0,0,.194,1.357,1.763,1.763,0,0,0,.21.566q.145.242.307.5a2.014,2.014,0,0,0,.84.646,2.819,2.819,0,0,0,1.2.226,2.908,2.908,0,0,0,1.228-.226,2.014,2.014,0,0,0,.84-.646q.162-.259.307-.5a1.762,1.762,0,0,0,.21-.566,4.182,4.182,0,0,0,.194-1.325v-.032a2.389,2.389,0,0,1,.679-1.648A2.244,2.244,0,0,1,36.838-104.25Zm14.606-11.019a2.426,2.426,0,0,1,.679-1.68,2.244,2.244,0,0,1,1.648-.679,2.244,2.244,0,0,1,1.648.679,2.3,2.3,0,0,1,.711,1.68v18.1a2.165,2.165,0,0,1-.711,1.68,2.244,2.244,0,0,1-1.648.679,2.244,2.244,0,0,1-1.648-.679,2.282,2.282,0,0,1-.679-1.68v-7.109a.2.2,0,0,0-.032-.113,1.058,1.058,0,0,1-.065-.113.31.31,0,0,0-.226-.1H46.467a.31.31,0,0,0-.226.1.31.31,0,0,0-.1.226v7.109a2.282,2.282,0,0,1-.679,1.68,2.244,2.244,0,0,1-1.648.679,2.282,2.282,0,0,1-1.68-.679,2.282,2.282,0,0,1-.679-1.68v-18.1a2.426,2.426,0,0,1,.679-1.68,2.282,2.282,0,0,1,1.68-.679,2.244,2.244,0,0,1,1.648.679,2.426,2.426,0,0,1,.679,1.68v6.172a.31.31,0,0,0,.1.226.31.31,0,0,0,.226.1h4.653a.31.31,0,0,0,.226-.1,1.061,1.061,0,0,1,.065-.113.2.2,0,0,0,.032-.113v-6.172Zm7.432,0a2.426,2.426,0,0,1,.679-1.68,2.282,2.282,0,0,1,1.68-.679,2.244,2.244,0,0,1,1.648.679,2.426,2.426,0,0,1,.679,1.68v18.1a2.282,2.282,0,0,1-.679,1.68,2.244,2.244,0,0,1-1.648.679,2.282,2.282,0,0,1-1.68-.679,2.282,2.282,0,0,1-.679-1.68v-18.1Zm18.29-.162a2.1,2.1,0,0,1,.178-.856,2.255,2.255,0,0,1,.469-.695,2.115,2.115,0,0,1,1.551-.646,1.992,1.992,0,0,1,.84.178,2.8,2.8,0,0,1,.711.469,2.1,2.1,0,0,1,.614,1.551v17.966a2.558,2.558,0,0,1-.773,1.874,2.411,2.411,0,0,1-1.869.776,2.6,2.6,0,0,1-1.385-.42,2.44,2.44,0,0,1-.966-1.066L73.8-101.923l-2.738-5.623a.207.207,0,0,0-.226-.1.143.143,0,0,0-.162.162v10.5a2.055,2.055,0,0,1-.619,1.519,2.271,2.271,0,0,1-.7.469,2.133,2.133,0,0,1-.863.178,2.1,2.1,0,0,1-1.53-.646,2.071,2.071,0,0,1-.651-1.519v-17.966a2.581,2.581,0,0,1,.782-1.907,2.623,2.623,0,0,1,1.922-.776,2.7,2.7,0,0,1,1.433.42,2.68,2.68,0,0,1,.965,1.1l2.7,5.59,2.7,5.59q.032.1.193.1.162-.065.162-.194V-115.43Zm16.609.162a2.426,2.426,0,0,1,.679-1.68,2.244,2.244,0,0,1,1.648-.679,2.244,2.244,0,0,1,1.648.679,2.3,2.3,0,0,1,.711,1.68v18.1a2.165,2.165,0,0,1-.711,1.68,2.244,2.244,0,0,1-1.648.679,2.244,2.244,0,0,1-1.648-.679,2.282,2.282,0,0,1-.679-1.68v-7.109a.2.2,0,0,0-.032-.113,1.056,1.056,0,0,1-.065-.113.31.31,0,0,0-.226-.1H88.8a.31.31,0,0,0-.226.1.31.31,0,0,0-.1.226v7.109a2.282,2.282,0,0,1-.679,1.68,2.244,2.244,0,0,1-1.648.679,2.282,2.282,0,0,1-1.68-.679,2.282,2.282,0,0,1-.679-1.68v-18.1a2.426,2.426,0,0,1,.679-1.68,2.282,2.282,0,0,1,1.68-.679,2.244,2.244,0,0,1,1.648.679,2.426,2.426,0,0,1,.679,1.68v6.172a.31.31,0,0,0,.1.226.31.31,0,0,0,.226.1h4.653a.31.31,0,0,0,.226-.1,1.059,1.059,0,0,1,.065-.113.2.2,0,0,0,.032-.113v-6.172Zm21.424.743a8.84,8.84,0,0,1,.679,1.81q.1.452.162.953a8.211,8.211,0,0,1,.065,1.05v8.983a8.211,8.211,0,0,1-.065,1.05q-.065.5-.162.986a8.7,8.7,0,0,1-.679,1.777,6.334,6.334,0,0,1-1.1,1.486,6.784,6.784,0,0,1-1.486,1.131,8.034,8.034,0,0,1-.872.4,5.515,5.515,0,0,1-.937.275,8.589,8.589,0,0,1-1.05.194,9.271,9.271,0,0,1-1.115.065,9.3,9.3,0,0,1-2.133-.259,5.514,5.514,0,0,1-.937-.275q-.452-.178-.9-.4a8.876,8.876,0,0,1-.776-.533q-.355-.275-.711-.6a7.58,7.58,0,0,1-1.066-1.486,3.993,3.993,0,0,1-.4-.872q-.145-.452-.275-.9a8.408,8.408,0,0,1-.226-2.036v-8.983a8.014,8.014,0,0,1,.226-2q.129-.485.275-.921a4.956,4.956,0,0,1,.4-.889,7.579,7.579,0,0,1,1.066-1.486q.355-.323.711-.6a5.633,5.633,0,0,1,.776-.5,7.453,7.453,0,0,1,1.842-.711,9.3,9.3,0,0,1,2.133-.258,9.265,9.265,0,0,1,1.115.065,8.587,8.587,0,0,1,1.05.194,6.894,6.894,0,0,1,1.81.711,4.9,4.9,0,0,1,.808.5,7.089,7.089,0,0,1,.679.6A7.369,7.369,0,0,1,115.2-114.525Zm-9.306,4.007v8.6a4.3,4.3,0,0,0,.194,1.357,1.763,1.763,0,0,0,.21.566q.145.242.307.5a2.014,2.014,0,0,0,.84.646,2.819,2.819,0,0,0,1.2.226,2.908,2.908,0,0,0,1.228-.226,2.014,2.014,0,0,0,.84-.646q.162-.259.307-.5a1.763,1.763,0,0,0,.21-.566,4.3,4.3,0,0,0,.194-1.357v-8.6a4.7,4.7,0,0,0-.194-1.357,3.23,3.23,0,0,0-.517-1.066,2.014,2.014,0,0,0-.84-.646,2.907,2.907,0,0,0-1.228-.226,2.819,2.819,0,0,0-1.2.226,2.014,2.014,0,0,0-.84.646,3.23,3.23,0,0,0-.517,1.066A4.7,4.7,0,0,0,105.892-110.519Zm25.593,4.815a5.911,5.911,0,0,1,1.422,3.134,6.182,6.182,0,0,1,.065,1.777,9.3,9.3,0,0,1-.355,1.713,6.1,6.1,0,0,1-1.842,2.844,6.908,6.908,0,0,1-3.005,1.616,8.885,8.885,0,0,1-3.684.129,7.531,7.531,0,0,1-3.393-1.422,5.528,5.528,0,0,1-1.2-1.163,7.74,7.74,0,0,1-.84-1.357,2.033,2.033,0,0,1-.194-1.115,2.348,2.348,0,0,1,.355-1.018,2.286,2.286,0,0,1,.792-.743,2.179,2.179,0,0,1,1.115-.291,2.158,2.158,0,0,1,1.2.355,1.887,1.887,0,0,1,.808.937,1.8,1.8,0,0,0,.145.242q.081.113.178.242a.806.806,0,0,0,.178.275l.242.242a3.086,3.086,0,0,0,1.179.646,3.539,3.539,0,0,0,1.341.129,2.917,2.917,0,0,0,1.26-.42,2.4,2.4,0,0,0,.9-1,2.633,2.633,0,0,0,.307-1.454,2.607,2.607,0,0,0-.469-1.2,3.235,3.235,0,0,0-1.018-.921,6.812,6.812,0,0,0-1.309-.6q-1.1-.388-2.23-.808a11.2,11.2,0,0,1-2.1-1.034,7.786,7.786,0,0,1-1.729-1.5,5.218,5.218,0,0,1-1.05-2.149,7.08,7.08,0,0,1-.048-3.183,6.456,6.456,0,0,1,1.276-2.666,7.1,7.1,0,0,1,2.327-1.826,7.419,7.419,0,0,1,3.07-.759A7.808,7.808,0,0,1,129-117.3a7.213,7.213,0,0,1,1.551.969,5.529,5.529,0,0,1,1.2,1.357,2.265,2.265,0,0,1,.355,1.2,2.494,2.494,0,0,1-.258,1.131,2.455,2.455,0,0,1-.808.856,2.13,2.13,0,0,1-1.2.339H129.8a2.2,2.2,0,0,1-1.131-.323,2.739,2.739,0,0,1-.84-.808,3.115,3.115,0,0,0-.355-.517q-.129-.129-.259-.242t-.291-.242a2.3,2.3,0,0,0-1.454-.4,3.1,3.1,0,0,0-1.422.436,2.616,2.616,0,0,0-.953,1.066,2.083,2.083,0,0,0-.113,1.519,2.138,2.138,0,0,0,.582,1.05,4.272,4.272,0,0,0,.969.695,6.96,6.96,0,0,0,1.163.485q.614.194,1.163.388.646.226,1.276.469a9.557,9.557,0,0,1,1.212.565,12.42,12.42,0,0,1,1.131.711A5.68,5.68,0,0,1,131.485-105.7Z" transform="translate(106.992 143.582)" fill="#2680eb"/></g></g></svg>